<?xml version="1.0" encoding="UTF-8" standalone="no"?>
<!-- Created with Inkscape (http://www.inkscape.org/) -->

<svg
   xmlns:dc="http://purl.org/dc/elements/1.1/"
   xmlns:cc="http://creativecommons.org/ns#"
   xmlns:rdf="http://www.w3.org/1999/02/22-rdf-syntax-ns#"
   xmlns:svg="http://www.w3.org/2000/svg"
   xmlns="http://www.w3.org/2000/svg"
   xmlns:sodipodi="http://sodipodi.sourceforge.net/DTD/sodipodi-0.dtd"
   xmlns:inkscape="http://www.inkscape.org/namespaces/inkscape"
   width="23.531635mm"
   height="18.40415mm"
   viewBox="0 0 23.531636 18.40415"
   version="1.1"
   id="svg8"
   inkscape:version="0.92.1 r15371"
   sodipodi:docname="backspace.svg">
  <defs
     id="defs2" />
  <sodipodi:namedview
     id="base"
     pagecolor="#ffffff"
     bordercolor="#666666"
     borderopacity="1.0"
     inkscape:pageopacity="0.0"
     inkscape:pageshadow="2"
     inkscape:zoom="2.8"
     inkscape:cx="31.508312"
     inkscape:cy="43.246291"
     inkscape:document-units="mm"
     inkscape:current-layer="layer1"
     showgrid="false"
     fit-margin-top="0"
     fit-margin-left="0"
     fit-margin-right="0"
     fit-margin-bottom="0"
     inkscape:window-width="1920"
     inkscape:window-height="1057"
     inkscape:window-x="-8"
     inkscape:window-y="-8"
     inkscape:window-maximized="1">
    <inkscape:grid
       type="xygrid"
       id="grid4511"
       originx="-164.08127"
       originy="-65.007812" />
  </sodipodi:namedview>
  <metadata
     id="metadata5">
    <rdf:RDF>
      <cc:Work
         rdf:about="">
        <dc:format>image/svg+xml</dc:format>
        <dc:type
           rdf:resource="http://purl.org/dc/dcmitype/StillImage" />
        <dc:title></dc:title>
      </cc:Work>
    </rdf:RDF>
  </metadata>
  <g
     inkscape:label="レイヤー 1"
     inkscape:groupmode="layer"
     id="layer1"
     transform="translate(-164.08126,-213.58803)">
    <g
       id="g4560">
      <g
         transform="matrix(0.55186103,0,0,0.57111779,84.987049,86.937484)"
         id="g4519">
        <path
           inkscape:connector-curvature="0"
           id="rect4500"
           d="m 146.1705,221.75907 h 36.94492 c 1.57767,0 2.84779,1.27012 2.84779,2.8478 v 24.91826 c 0,1.57768 -1.27012,2.8478 -2.84779,2.8478 H 146.1705 c -1.57768,0 -2.8478,-1.27012 -2.8478,-2.8478 v -24.91826 c 0,-1.57768 1.27012,-2.8478 2.8478,-2.8478 z"
           style="fill:#434343;fill-opacity:1;stroke:none;stroke-width:0.54091156;stroke-linejoin:round;stroke-miterlimit:4;stroke-dasharray:none;stroke-dashoffset:0;stroke-opacity:1" />
        <path
           inkscape:connector-curvature="0"
           id="rect4502"
           d="m 146.1705,223.37 h 36.94492 c 1.57767,0 2.84779,1.27012 2.84779,2.8478 v 24.91826 c 0,1.57768 -1.27012,2.8478 -2.84779,2.8478 H 146.1705 c -1.57768,0 -2.8478,-1.27012 -2.8478,-2.8478 V 226.2178 c 0,-1.57768 1.27012,-2.8478 2.8478,-2.8478 z"
           style="fill:#111111;fill-opacity:1;stroke:none;stroke-width:0.54091156;stroke-linejoin:round;stroke-miterlimit:4;stroke-dasharray:none;stroke-dashoffset:0;stroke-opacity:1" />
        <path
           inkscape:connector-curvature="0"
           id="rect4496"
           d="m 146.14776,222.56456 h 36.99039 c 1.56508,0 2.82506,1.25997 2.82506,2.82505 v 24.71933 c 0,1.56509 -1.25998,2.82507 -2.82506,2.82507 h -36.99039 c -1.56508,0 -2.82506,-1.25998 -2.82506,-2.82507 v -24.71933 c 0,-1.56508 1.25998,-2.82505 2.82506,-2.82505 z"
           style="fill:#1e1e1e;fill-opacity:1;stroke:none;stroke-width:0.53874815;stroke-linejoin:round;stroke-miterlimit:4;stroke-dasharray:none;stroke-dashoffset:0;stroke-opacity:1" />
      </g>
      <path
         sodipodi:nodetypes="sccccs"
         inkscape:connector-curvature="0"
         id="path4507"
         d="m 173.23987,218.93299 -3.43959,3.96875 3.43959,3.96875 h 7.9375 v -7.9375 z"
         style="fill:none;stroke:#26a8bb;stroke-width:0.465;stroke-linecap:butt;stroke-linejoin:round;stroke-miterlimit:4;stroke-dasharray:none;stroke-opacity:1" />
      <path
         inkscape:connector-curvature="0"
         id="path4510"
         d="m 175.35725,221.05037 3.70273,3.70273 -1.85136,-1.85136 1.85136,-1.85137 -3.70273,3.70273"
         style="fill:none;stroke:#26a8bb;stroke-width:0.51080155;stroke-linecap:round;stroke-linejoin:round;stroke-miterlimit:4;stroke-dasharray:none;stroke-opacity:1" />
    </g>
  </g>
</svg>
