<?xml version="1.0" encoding="UTF-8" standalone="no"?>
<!-- Created with Inkscape (http://www.inkscape.org/) -->

<svg
   xmlns:osb="http://www.openswatchbook.org/uri/2009/osb"
   xmlns:dc="http://purl.org/dc/elements/1.1/"
   xmlns:cc="http://creativecommons.org/ns#"
   xmlns:rdf="http://www.w3.org/1999/02/22-rdf-syntax-ns#"
   xmlns:svg="http://www.w3.org/2000/svg"
   xmlns="http://www.w3.org/2000/svg"
   xmlns:sodipodi="http://sodipodi.sourceforge.net/DTD/sodipodi-0.dtd"
   xmlns:inkscape="http://www.inkscape.org/namespaces/inkscape"
   width="200mm"
   height="150mm"
   viewBox="0 0 200 150"
   version="1.1"
   id="svg8"
   inkscape:export-filename="D:\Documents\Dropbox\Shinshu-Univ\2017\1h\HCI\SwiftKey\images\keboard-lowercases.png"
   inkscape:export-xdpi="546.81824"
   inkscape:export-ydpi="546.81824"
   inkscape:version="0.92.1 r15371"
   sodipodi:docname="lowercases.svg">
  <defs
     id="defs2">
    <linearGradient
       id="linearGradient5089"
       osb:paint="solid">
      <stop
         style="stop-color:#7e7e7e;stop-opacity:1;"
         offset="0"
         id="stop5087" />
    </linearGradient>
  </defs>
  <sodipodi:namedview
     id="base"
     pagecolor="#ffffff"
     bordercolor="#666666"
     borderopacity="1.0"
     inkscape:pageopacity="0.0"
     inkscape:pageshadow="2"
     inkscape:zoom="1.1212722"
     inkscape:cx="386.3581"
     inkscape:cy="170.72002"
     inkscape:document-units="mm"
     inkscape:current-layer="layer1"
     showgrid="false"
     showguides="false"
     inkscape:window-width="1920"
     inkscape:window-height="1057"
     inkscape:window-x="-8"
     inkscape:window-y="-8"
     inkscape:window-maximized="1"
     fit-margin-top="0"
     fit-margin-left="0"
     fit-margin-right="0"
     fit-margin-bottom="0">
    <sodipodi:guide
       position="-0.0030509777,-8.3923344e-005"
       orientation="0,793.70079"
       id="guide5036"
       inkscape:locked="false" />
    <sodipodi:guide
       position="209.99696,-8.3923344e-005"
       orientation="-1122.5197,0"
       id="guide5038"
       inkscape:locked="false" />
    <sodipodi:guide
       position="209.99696,296.99993"
       orientation="0,-793.70079"
       id="guide5040"
       inkscape:locked="false" />
    <sodipodi:guide
       position="-0.0030509777,296.99993"
       orientation="1122.5197,0"
       id="guide5042"
       inkscape:locked="false" />
    <inkscape:grid
       type="xygrid"
       id="grid5104"
       originx="-0.0030509777"
       originy="-8.3923345e-005" />
  </sodipodi:namedview>
  <metadata
     id="metadata5">
    <rdf:RDF>
      <cc:Work
         rdf:about="">
        <dc:format>image/svg+xml</dc:format>
        <dc:type
           rdf:resource="http://purl.org/dc/dcmitype/StillImage" />
        <dc:title />
      </cc:Work>
    </rdf:RDF>
  </metadata>
  <g
     inkscape:label="レイヤー 1"
     inkscape:groupmode="layer"
     id="layer1"
     transform="translate(-0.00305098,-146.99991)">
    <g
       style="stroke:none;stroke-opacity:1"
       id="g5428"
       transform="translate(-5.2916631,147.10828)">
      <g
         style="stroke:none;stroke-opacity:1"
         transform="matrix(1.0752871,0,0,1.0982185,-119.30702,47.309608)"
         id="g5102">
        <path
           inkscape:connector-curvature="0"
           id="rect5085"
           d="m 120.01084,17.758663 h 11.71048 c 0.9282,0 1.67545,0.74725 1.67545,1.675448 v 12.46644 c 0,0.928198 -0.74725,1.675448 -1.67545,1.675448 h -11.71048 c -0.9282,0 -1.67545,-0.74725 -1.67545,-1.675448 v -12.46644 c 0,-0.928198 0.74725,-1.675448 1.67545,-1.675448 z"
           style="fill:#111111;fill-opacity:1;stroke:none;stroke-width:0.16766435;stroke-linejoin:round;stroke-miterlimit:4;stroke-dasharray:none;stroke-dashoffset:0;stroke-opacity:1" />
        <path
           inkscape:connector-curvature="0"
           id="rect5097"
           d="m 120.01084,16.258558 h 11.71048 c 0.9282,0 1.67545,0.74725 1.67545,1.675448 v 12.46644 c 0,0.928199 -0.74725,1.675448 -1.67545,1.675448 h -11.71048 c -0.9282,0 -1.67545,-0.747249 -1.67545,-1.675448 v -12.46644 c 0,-0.928198 0.74725,-1.675448 1.67545,-1.675448 z"
           style="fill:#4e4e4e;fill-opacity:1;stroke:none;stroke-width:0.16766435;stroke-linejoin:round;stroke-miterlimit:4;stroke-dasharray:none;stroke-dashoffset:0;stroke-opacity:1" />
        <path
           inkscape:connector-curvature="0"
           id="rect5093"
           d="m 120.01084,17.058664 h 11.71048 c 0.9282,0 1.67545,0.74725 1.67545,1.675448 v 12.46644 c 0,0.928199 -0.74725,1.675448 -1.67545,1.675448 h -11.71048 c -0.9282,0 -1.67545,-0.747249 -1.67545,-1.675448 v -12.46644 c 0,-0.928198 0.74725,-1.675448 1.67545,-1.675448 z"
           style="fill:#373737;fill-opacity:1;stroke:none;stroke-width:0.16766435;stroke-linejoin:round;stroke-miterlimit:4;stroke-dasharray:none;stroke-dashoffset:0;stroke-opacity:1" />
      </g>
      <g
         style="stroke:none;stroke-opacity:1"
         id="g5112"
         transform="matrix(1.0752871,0,0,1.0982185,-99.463266,47.309608)">
        <path
           inkscape:connector-curvature="0"
           id="rect5106"
           d="m 120.01084,17.758663 h 11.71048 c 0.9282,0 1.67545,0.74725 1.67545,1.675448 v 12.46644 c 0,0.928198 -0.74725,1.675448 -1.67545,1.675448 h -11.71048 c -0.9282,0 -1.67545,-0.74725 -1.67545,-1.675448 v -12.46644 c 0,-0.928198 0.74725,-1.675448 1.67545,-1.675448 z"
           style="fill:#111111;fill-opacity:1;stroke:none;stroke-width:0.16766435;stroke-linejoin:round;stroke-miterlimit:4;stroke-dasharray:none;stroke-dashoffset:0;stroke-opacity:1" />
        <path
           inkscape:connector-curvature="0"
           id="rect5108"
           d="m 120.01084,16.258558 h 11.71048 c 0.9282,0 1.67545,0.74725 1.67545,1.675448 v 12.46644 c 0,0.928199 -0.74725,1.675448 -1.67545,1.675448 h -11.71048 c -0.9282,0 -1.67545,-0.747249 -1.67545,-1.675448 v -12.46644 c 0,-0.928198 0.74725,-1.675448 1.67545,-1.675448 z"
           style="fill:#4e4e4e;fill-opacity:1;stroke:none;stroke-width:0.16766435;stroke-linejoin:round;stroke-miterlimit:4;stroke-dasharray:none;stroke-dashoffset:0;stroke-opacity:1" />
        <path
           inkscape:connector-curvature="0"
           id="rect5110"
           d="m 120.01084,17.058664 h 11.71048 c 0.9282,0 1.67545,0.74725 1.67545,1.675448 v 12.46644 c 0,0.928199 -0.74725,1.675448 -1.67545,1.675448 h -11.71048 c -0.9282,0 -1.67545,-0.747249 -1.67545,-1.675448 v -12.46644 c 0,-0.928198 0.74725,-1.675448 1.67545,-1.675448 z"
           style="fill:#373737;fill-opacity:1;stroke:none;stroke-width:0.16766435;stroke-linejoin:round;stroke-miterlimit:4;stroke-dasharray:none;stroke-dashoffset:0;stroke-opacity:1" />
      </g>
      <g
         style="stroke:none;stroke-opacity:1"
         transform="matrix(1.0752871,0,0,1.0982185,-79.619516,47.309608)"
         id="g5120">
        <path
           inkscape:connector-curvature="0"
           id="rect5114"
           d="m 120.01084,17.758663 h 11.71048 c 0.9282,0 1.67545,0.74725 1.67545,1.675448 v 12.46644 c 0,0.928198 -0.74725,1.675448 -1.67545,1.675448 h -11.71048 c -0.9282,0 -1.67545,-0.74725 -1.67545,-1.675448 v -12.46644 c 0,-0.928198 0.74725,-1.675448 1.67545,-1.675448 z"
           style="fill:#111111;fill-opacity:1;stroke:none;stroke-width:0.16766435;stroke-linejoin:round;stroke-miterlimit:4;stroke-dasharray:none;stroke-dashoffset:0;stroke-opacity:1" />
        <path
           inkscape:connector-curvature="0"
           id="rect5116"
           d="m 120.01084,16.258558 h 11.71048 c 0.9282,0 1.67545,0.74725 1.67545,1.675448 v 12.46644 c 0,0.928199 -0.74725,1.675448 -1.67545,1.675448 h -11.71048 c -0.9282,0 -1.67545,-0.747249 -1.67545,-1.675448 v -12.46644 c 0,-0.928198 0.74725,-1.675448 1.67545,-1.675448 z"
           style="fill:#4e4e4e;fill-opacity:1;stroke:none;stroke-width:0.16766435;stroke-linejoin:round;stroke-miterlimit:4;stroke-dasharray:none;stroke-dashoffset:0;stroke-opacity:1" />
        <path
           inkscape:connector-curvature="0"
           id="rect5118"
           d="m 120.01084,17.058664 h 11.71048 c 0.9282,0 1.67545,0.74725 1.67545,1.675448 v 12.46644 c 0,0.928199 -0.74725,1.675448 -1.67545,1.675448 h -11.71048 c -0.9282,0 -1.67545,-0.747249 -1.67545,-1.675448 v -12.46644 c 0,-0.928198 0.74725,-1.675448 1.67545,-1.675448 z"
           style="fill:#373737;fill-opacity:1;stroke:none;stroke-width:0.16766435;stroke-linejoin:round;stroke-miterlimit:4;stroke-dasharray:none;stroke-dashoffset:0;stroke-opacity:1" />
      </g>
      <g
         style="stroke:none;stroke-opacity:1"
         id="g5128"
         transform="matrix(1.0752871,0,0,1.0982185,-59.775766,47.309608)">
        <path
           inkscape:connector-curvature="0"
           id="rect5122"
           d="m 120.01084,17.758663 h 11.71048 c 0.9282,0 1.67545,0.74725 1.67545,1.675448 v 12.46644 c 0,0.928198 -0.74725,1.675448 -1.67545,1.675448 h -11.71048 c -0.9282,0 -1.67545,-0.74725 -1.67545,-1.675448 v -12.46644 c 0,-0.928198 0.74725,-1.675448 1.67545,-1.675448 z"
           style="fill:#111111;fill-opacity:1;stroke:none;stroke-width:0.16766435;stroke-linejoin:round;stroke-miterlimit:4;stroke-dasharray:none;stroke-dashoffset:0;stroke-opacity:1" />
        <path
           inkscape:connector-curvature="0"
           id="rect5124"
           d="m 120.01084,16.258558 h 11.71048 c 0.9282,0 1.67545,0.74725 1.67545,1.675448 v 12.46644 c 0,0.928199 -0.74725,1.675448 -1.67545,1.675448 h -11.71048 c -0.9282,0 -1.67545,-0.747249 -1.67545,-1.675448 v -12.46644 c 0,-0.928198 0.74725,-1.675448 1.67545,-1.675448 z"
           style="fill:#4e4e4e;fill-opacity:1;stroke:none;stroke-width:0.16766435;stroke-linejoin:round;stroke-miterlimit:4;stroke-dasharray:none;stroke-dashoffset:0;stroke-opacity:1" />
        <path
           inkscape:connector-curvature="0"
           id="rect5126"
           d="m 120.01084,17.058664 h 11.71048 c 0.9282,0 1.67545,0.74725 1.67545,1.675448 v 12.46644 c 0,0.928199 -0.74725,1.675448 -1.67545,1.675448 h -11.71048 c -0.9282,0 -1.67545,-0.747249 -1.67545,-1.675448 v -12.46644 c 0,-0.928198 0.74725,-1.675448 1.67545,-1.675448 z"
           style="fill:#373737;fill-opacity:1;stroke:none;stroke-width:0.16766435;stroke-linejoin:round;stroke-miterlimit:4;stroke-dasharray:none;stroke-dashoffset:0;stroke-opacity:1" />
      </g>
      <g
         style="stroke:none;stroke-opacity:1"
         transform="matrix(1.0752871,0,0,1.0982185,-39.932016,47.309608)"
         id="g5136">
        <path
           inkscape:connector-curvature="0"
           id="rect5130"
           d="m 120.01084,17.758663 h 11.71048 c 0.9282,0 1.67545,0.74725 1.67545,1.675448 v 12.46644 c 0,0.928198 -0.74725,1.675448 -1.67545,1.675448 h -11.71048 c -0.9282,0 -1.67545,-0.74725 -1.67545,-1.675448 v -12.46644 c 0,-0.928198 0.74725,-1.675448 1.67545,-1.675448 z"
           style="fill:#111111;fill-opacity:1;stroke:none;stroke-width:0.16766435;stroke-linejoin:round;stroke-miterlimit:4;stroke-dasharray:none;stroke-dashoffset:0;stroke-opacity:1" />
        <path
           inkscape:connector-curvature="0"
           id="rect5132"
           d="m 120.01084,16.258558 h 11.71048 c 0.9282,0 1.67545,0.74725 1.67545,1.675448 v 12.46644 c 0,0.928199 -0.74725,1.675448 -1.67545,1.675448 h -11.71048 c -0.9282,0 -1.67545,-0.747249 -1.67545,-1.675448 v -12.46644 c 0,-0.928198 0.74725,-1.675448 1.67545,-1.675448 z"
           style="fill:#4e4e4e;fill-opacity:1;stroke:none;stroke-width:0.16766435;stroke-linejoin:round;stroke-miterlimit:4;stroke-dasharray:none;stroke-dashoffset:0;stroke-opacity:1" />
        <path
           inkscape:connector-curvature="0"
           id="rect5134"
           d="m 120.01084,17.058664 h 11.71048 c 0.9282,0 1.67545,0.74725 1.67545,1.675448 v 12.46644 c 0,0.928199 -0.74725,1.675448 -1.67545,1.675448 h -11.71048 c -0.9282,0 -1.67545,-0.747249 -1.67545,-1.675448 v -12.46644 c 0,-0.928198 0.74725,-1.675448 1.67545,-1.675448 z"
           style="fill:#373737;fill-opacity:1;stroke:none;stroke-width:0.16766435;stroke-linejoin:round;stroke-miterlimit:4;stroke-dasharray:none;stroke-dashoffset:0;stroke-opacity:1" />
      </g>
      <g
         style="stroke:none;stroke-opacity:1"
         id="g5144"
         transform="matrix(1.0752871,0,0,1.0982185,-20.088266,47.309608)">
        <path
           inkscape:connector-curvature="0"
           id="rect5138"
           d="m 120.01084,17.758663 h 11.71048 c 0.9282,0 1.67545,0.74725 1.67545,1.675448 v 12.46644 c 0,0.928198 -0.74725,1.675448 -1.67545,1.675448 h -11.71048 c -0.9282,0 -1.67545,-0.74725 -1.67545,-1.675448 v -12.46644 c 0,-0.928198 0.74725,-1.675448 1.67545,-1.675448 z"
           style="fill:#111111;fill-opacity:1;stroke:none;stroke-width:0.16766435;stroke-linejoin:round;stroke-miterlimit:4;stroke-dasharray:none;stroke-dashoffset:0;stroke-opacity:1" />
        <path
           inkscape:connector-curvature="0"
           id="rect5140"
           d="m 120.01084,16.258558 h 11.71048 c 0.9282,0 1.67545,0.74725 1.67545,1.675448 v 12.46644 c 0,0.928199 -0.74725,1.675448 -1.67545,1.675448 h -11.71048 c -0.9282,0 -1.67545,-0.747249 -1.67545,-1.675448 v -12.46644 c 0,-0.928198 0.74725,-1.675448 1.67545,-1.675448 z"
           style="fill:#4e4e4e;fill-opacity:1;stroke:none;stroke-width:0.16766435;stroke-linejoin:round;stroke-miterlimit:4;stroke-dasharray:none;stroke-dashoffset:0;stroke-opacity:1" />
        <path
           inkscape:connector-curvature="0"
           id="rect5142"
           d="m 120.01084,17.058664 h 11.71048 c 0.9282,0 1.67545,0.74725 1.67545,1.675448 v 12.46644 c 0,0.928199 -0.74725,1.675448 -1.67545,1.675448 h -11.71048 c -0.9282,0 -1.67545,-0.747249 -1.67545,-1.675448 v -12.46644 c 0,-0.928198 0.74725,-1.675448 1.67545,-1.675448 z"
           style="fill:#373737;fill-opacity:1;stroke:none;stroke-width:0.16766435;stroke-linejoin:round;stroke-miterlimit:4;stroke-dasharray:none;stroke-dashoffset:0;stroke-opacity:1" />
      </g>
      <g
         style="stroke:none;stroke-opacity:1"
         transform="matrix(1.0752871,0,0,1.0982185,-0.24451639,47.309608)"
         id="g5152">
        <path
           inkscape:connector-curvature="0"
           id="rect5146"
           d="m 120.01084,17.758663 h 11.71048 c 0.9282,0 1.67545,0.74725 1.67545,1.675448 v 12.46644 c 0,0.928198 -0.74725,1.675448 -1.67545,1.675448 h -11.71048 c -0.9282,0 -1.67545,-0.74725 -1.67545,-1.675448 v -12.46644 c 0,-0.928198 0.74725,-1.675448 1.67545,-1.675448 z"
           style="fill:#111111;fill-opacity:1;stroke:none;stroke-width:0.16766435;stroke-linejoin:round;stroke-miterlimit:4;stroke-dasharray:none;stroke-dashoffset:0;stroke-opacity:1" />
        <path
           inkscape:connector-curvature="0"
           id="rect5148"
           d="m 120.01084,16.258558 h 11.71048 c 0.9282,0 1.67545,0.74725 1.67545,1.675448 v 12.46644 c 0,0.928199 -0.74725,1.675448 -1.67545,1.675448 h -11.71048 c -0.9282,0 -1.67545,-0.747249 -1.67545,-1.675448 v -12.46644 c 0,-0.928198 0.74725,-1.675448 1.67545,-1.675448 z"
           style="fill:#4e4e4e;fill-opacity:1;stroke:none;stroke-width:0.16766435;stroke-linejoin:round;stroke-miterlimit:4;stroke-dasharray:none;stroke-dashoffset:0;stroke-opacity:1" />
        <path
           inkscape:connector-curvature="0"
           id="rect5150"
           d="m 120.01084,17.058664 h 11.71048 c 0.9282,0 1.67545,0.74725 1.67545,1.675448 v 12.46644 c 0,0.928199 -0.74725,1.675448 -1.67545,1.675448 h -11.71048 c -0.9282,0 -1.67545,-0.747249 -1.67545,-1.675448 v -12.46644 c 0,-0.928198 0.74725,-1.675448 1.67545,-1.675448 z"
           style="fill:#373737;fill-opacity:1;stroke:none;stroke-width:0.16766435;stroke-linejoin:round;stroke-miterlimit:4;stroke-dasharray:none;stroke-dashoffset:0;stroke-opacity:1" />
      </g>
      <g
         style="stroke:none;stroke-opacity:1"
         id="g5160"
         transform="matrix(1.0752871,0,0,1.0982185,19.599234,47.309608)">
        <path
           inkscape:connector-curvature="0"
           id="rect5154"
           d="m 120.01084,17.758663 h 11.71048 c 0.9282,0 1.67545,0.74725 1.67545,1.675448 v 12.46644 c 0,0.928198 -0.74725,1.675448 -1.67545,1.675448 h -11.71048 c -0.9282,0 -1.67545,-0.74725 -1.67545,-1.675448 v -12.46644 c 0,-0.928198 0.74725,-1.675448 1.67545,-1.675448 z"
           style="fill:#111111;fill-opacity:1;stroke:none;stroke-width:0.16766435;stroke-linejoin:round;stroke-miterlimit:4;stroke-dasharray:none;stroke-dashoffset:0;stroke-opacity:1" />
        <path
           inkscape:connector-curvature="0"
           id="rect5156"
           d="m 120.01084,16.258558 h 11.71048 c 0.9282,0 1.67545,0.74725 1.67545,1.675448 v 12.46644 c 0,0.928199 -0.74725,1.675448 -1.67545,1.675448 h -11.71048 c -0.9282,0 -1.67545,-0.747249 -1.67545,-1.675448 v -12.46644 c 0,-0.928198 0.74725,-1.675448 1.67545,-1.675448 z"
           style="fill:#4e4e4e;fill-opacity:1;stroke:none;stroke-width:0.16766435;stroke-linejoin:round;stroke-miterlimit:4;stroke-dasharray:none;stroke-dashoffset:0;stroke-opacity:1" />
        <path
           inkscape:connector-curvature="0"
           id="rect5158"
           d="m 120.01084,17.058664 h 11.71048 c 0.9282,0 1.67545,0.74725 1.67545,1.675448 v 12.46644 c 0,0.928199 -0.74725,1.675448 -1.67545,1.675448 h -11.71048 c -0.9282,0 -1.67545,-0.747249 -1.67545,-1.675448 v -12.46644 c 0,-0.928198 0.74725,-1.675448 1.67545,-1.675448 z"
           style="fill:#373737;fill-opacity:1;stroke:none;stroke-width:0.16766435;stroke-linejoin:round;stroke-miterlimit:4;stroke-dasharray:none;stroke-dashoffset:0;stroke-opacity:1" />
      </g>
      <g
         style="stroke:none;stroke-opacity:1"
         id="g5168"
         transform="matrix(1.0752871,0,0,1.0982185,-108.72368,71.122108)">
        <path
           inkscape:connector-curvature="0"
           id="rect5162"
           d="m 120.01084,17.758663 h 11.71048 c 0.9282,0 1.67545,0.74725 1.67545,1.675448 v 12.46644 c 0,0.928198 -0.74725,1.675448 -1.67545,1.675448 h -11.71048 c -0.9282,0 -1.67545,-0.74725 -1.67545,-1.675448 v -12.46644 c 0,-0.928198 0.74725,-1.675448 1.67545,-1.675448 z"
           style="fill:#111111;fill-opacity:1;stroke:none;stroke-width:0.16766435;stroke-linejoin:round;stroke-miterlimit:4;stroke-dasharray:none;stroke-dashoffset:0;stroke-opacity:1" />
        <path
           inkscape:connector-curvature="0"
           id="rect5164"
           d="m 120.01084,16.258558 h 11.71048 c 0.9282,0 1.67545,0.74725 1.67545,1.675448 v 12.46644 c 0,0.928199 -0.74725,1.675448 -1.67545,1.675448 h -11.71048 c -0.9282,0 -1.67545,-0.747249 -1.67545,-1.675448 v -12.46644 c 0,-0.928198 0.74725,-1.675448 1.67545,-1.675448 z"
           style="fill:#4e4e4e;fill-opacity:1;stroke:none;stroke-width:0.16766435;stroke-linejoin:round;stroke-miterlimit:4;stroke-dasharray:none;stroke-dashoffset:0;stroke-opacity:1" />
        <path
           inkscape:connector-curvature="0"
           id="rect5166"
           d="m 120.01084,17.058664 h 11.71048 c 0.9282,0 1.67545,0.74725 1.67545,1.675448 v 12.46644 c 0,0.928199 -0.74725,1.675448 -1.67545,1.675448 h -11.71048 c -0.9282,0 -1.67545,-0.747249 -1.67545,-1.675448 v -12.46644 c 0,-0.928198 0.74725,-1.675448 1.67545,-1.675448 z"
           style="fill:#373737;fill-opacity:1;stroke:none;stroke-width:0.16766435;stroke-linejoin:round;stroke-miterlimit:4;stroke-dasharray:none;stroke-dashoffset:0;stroke-opacity:1" />
      </g>
      <g
         style="stroke:none;stroke-opacity:1"
         transform="matrix(1.0752871,0,0,1.0982185,-88.879933,93.611691)"
         id="g5176">
        <path
           inkscape:connector-curvature="0"
           id="rect5170"
           d="m 120.01084,17.758663 h 11.71048 c 0.9282,0 1.67545,0.74725 1.67545,1.675448 v 12.46644 c 0,0.928198 -0.74725,1.675448 -1.67545,1.675448 h -11.71048 c -0.9282,0 -1.67545,-0.74725 -1.67545,-1.675448 v -12.46644 c 0,-0.928198 0.74725,-1.675448 1.67545,-1.675448 z"
           style="fill:#111111;fill-opacity:1;stroke:none;stroke-width:0.16766435;stroke-linejoin:round;stroke-miterlimit:4;stroke-dasharray:none;stroke-dashoffset:0;stroke-opacity:1" />
        <path
           inkscape:connector-curvature="0"
           id="rect5172"
           d="m 120.01084,16.258558 h 11.71048 c 0.9282,0 1.67545,0.74725 1.67545,1.675448 v 12.46644 c 0,0.928199 -0.74725,1.675448 -1.67545,1.675448 h -11.71048 c -0.9282,0 -1.67545,-0.747249 -1.67545,-1.675448 v -12.46644 c 0,-0.928198 0.74725,-1.675448 1.67545,-1.675448 z"
           style="fill:#4e4e4e;fill-opacity:1;stroke:none;stroke-width:0.16766435;stroke-linejoin:round;stroke-miterlimit:4;stroke-dasharray:none;stroke-dashoffset:0;stroke-opacity:1" />
        <path
           inkscape:connector-curvature="0"
           id="rect5174"
           d="m 120.01084,17.058664 h 11.71048 c 0.9282,0 1.67545,0.74725 1.67545,1.675448 v 12.46644 c 0,0.928199 -0.74725,1.675448 -1.67545,1.675448 h -11.71048 c -0.9282,0 -1.67545,-0.747249 -1.67545,-1.675448 v -12.46644 c 0,-0.928198 0.74725,-1.675448 1.67545,-1.675448 z"
           style="fill:#373737;fill-opacity:1;stroke:none;stroke-width:0.16766435;stroke-linejoin:round;stroke-miterlimit:4;stroke-dasharray:none;stroke-dashoffset:0;stroke-opacity:1" />
      </g>
      <g
         style="stroke:none;stroke-opacity:1"
         id="g5191"
         transform="matrix(1.0752871,0,0,1.0982185,39.442984,47.309608)">
        <path
           inkscape:connector-curvature="0"
           id="rect5185"
           d="m 120.01084,17.758663 h 11.71048 c 0.9282,0 1.67545,0.74725 1.67545,1.675448 v 12.46644 c 0,0.928198 -0.74725,1.675448 -1.67545,1.675448 h -11.71048 c -0.9282,0 -1.67545,-0.74725 -1.67545,-1.675448 v -12.46644 c 0,-0.928198 0.74725,-1.675448 1.67545,-1.675448 z"
           style="fill:#111111;fill-opacity:1;stroke:none;stroke-width:0.16766435;stroke-linejoin:round;stroke-miterlimit:4;stroke-dasharray:none;stroke-dashoffset:0;stroke-opacity:1" />
        <path
           inkscape:connector-curvature="0"
           id="rect5187"
           d="m 120.01084,16.258558 h 11.71048 c 0.9282,0 1.67545,0.74725 1.67545,1.675448 v 12.46644 c 0,0.928199 -0.74725,1.675448 -1.67545,1.675448 h -11.71048 c -0.9282,0 -1.67545,-0.747249 -1.67545,-1.675448 v -12.46644 c 0,-0.928198 0.74725,-1.675448 1.67545,-1.675448 z"
           style="fill:#4e4e4e;fill-opacity:1;stroke:none;stroke-width:0.16766435;stroke-linejoin:round;stroke-miterlimit:4;stroke-dasharray:none;stroke-dashoffset:0;stroke-opacity:1" />
        <path
           inkscape:connector-curvature="0"
           id="rect5189"
           d="m 120.01084,17.058664 h 11.71048 c 0.9282,0 1.67545,0.74725 1.67545,1.675448 v 12.46644 c 0,0.928199 -0.74725,1.675448 -1.67545,1.675448 h -11.71048 c -0.9282,0 -1.67545,-0.747249 -1.67545,-1.675448 v -12.46644 c 0,-0.928198 0.74725,-1.675448 1.67545,-1.675448 z"
           style="fill:#373737;fill-opacity:1;stroke:none;stroke-width:0.16766435;stroke-linejoin:round;stroke-miterlimit:4;stroke-dasharray:none;stroke-dashoffset:0;stroke-opacity:1" />
      </g>
      <g
         style="stroke:none;stroke-opacity:1"
         transform="matrix(1.0752871,0,0,1.0982185,59.286734,47.309608)"
         id="g5199">
        <path
           inkscape:connector-curvature="0"
           id="rect5193"
           d="m 120.01084,17.758663 h 11.71048 c 0.9282,0 1.67545,0.74725 1.67545,1.675448 v 12.46644 c 0,0.928198 -0.74725,1.675448 -1.67545,1.675448 h -11.71048 c -0.9282,0 -1.67545,-0.74725 -1.67545,-1.675448 v -12.46644 c 0,-0.928198 0.74725,-1.675448 1.67545,-1.675448 z"
           style="fill:#111111;fill-opacity:1;stroke:none;stroke-width:0.16766435;stroke-linejoin:round;stroke-miterlimit:4;stroke-dasharray:none;stroke-dashoffset:0;stroke-opacity:1" />
        <path
           inkscape:connector-curvature="0"
           id="rect5195"
           d="m 120.01084,16.258558 h 11.71048 c 0.9282,0 1.67545,0.74725 1.67545,1.675448 v 12.46644 c 0,0.928199 -0.74725,1.675448 -1.67545,1.675448 h -11.71048 c -0.9282,0 -1.67545,-0.747249 -1.67545,-1.675448 v -12.46644 c 0,-0.928198 0.74725,-1.675448 1.67545,-1.675448 z"
           style="fill:#4e4e4e;fill-opacity:1;stroke:none;stroke-width:0.16766435;stroke-linejoin:round;stroke-miterlimit:4;stroke-dasharray:none;stroke-dashoffset:0;stroke-opacity:1" />
        <path
           inkscape:connector-curvature="0"
           id="rect5197"
           d="m 120.01084,17.058664 h 11.71048 c 0.9282,0 1.67545,0.74725 1.67545,1.675448 v 12.46644 c 0,0.928199 -0.74725,1.675448 -1.67545,1.675448 h -11.71048 c -0.9282,0 -1.67545,-0.747249 -1.67545,-1.675448 v -12.46644 c 0,-0.928198 0.74725,-1.675448 1.67545,-1.675448 z"
           style="fill:#373737;fill-opacity:1;stroke:none;stroke-width:0.16766435;stroke-linejoin:round;stroke-miterlimit:4;stroke-dasharray:none;stroke-dashoffset:0;stroke-opacity:1" />
      </g>
      <g
         style="stroke:none;stroke-opacity:1"
         transform="matrix(1.0752871,0,0,1.0982185,-88.879933,71.122108)"
         id="g5207">
        <path
           inkscape:connector-curvature="0"
           id="rect5201"
           d="m 120.01084,17.758663 h 11.71048 c 0.9282,0 1.67545,0.74725 1.67545,1.675448 v 12.46644 c 0,0.928198 -0.74725,1.675448 -1.67545,1.675448 h -11.71048 c -0.9282,0 -1.67545,-0.74725 -1.67545,-1.675448 v -12.46644 c 0,-0.928198 0.74725,-1.675448 1.67545,-1.675448 z"
           style="fill:#111111;fill-opacity:1;stroke:none;stroke-width:0.16766435;stroke-linejoin:round;stroke-miterlimit:4;stroke-dasharray:none;stroke-dashoffset:0;stroke-opacity:1" />
        <path
           inkscape:connector-curvature="0"
           id="rect5203"
           d="m 120.01084,16.258558 h 11.71048 c 0.9282,0 1.67545,0.74725 1.67545,1.675448 v 12.46644 c 0,0.928199 -0.74725,1.675448 -1.67545,1.675448 h -11.71048 c -0.9282,0 -1.67545,-0.747249 -1.67545,-1.675448 v -12.46644 c 0,-0.928198 0.74725,-1.675448 1.67545,-1.675448 z"
           style="fill:#4e4e4e;fill-opacity:1;stroke:none;stroke-width:0.16766435;stroke-linejoin:round;stroke-miterlimit:4;stroke-dasharray:none;stroke-dashoffset:0;stroke-opacity:1" />
        <path
           inkscape:connector-curvature="0"
           id="rect5205"
           d="m 120.01084,17.058664 h 11.71048 c 0.9282,0 1.67545,0.74725 1.67545,1.675448 v 12.46644 c 0,0.928199 -0.74725,1.675448 -1.67545,1.675448 h -11.71048 c -0.9282,0 -1.67545,-0.747249 -1.67545,-1.675448 v -12.46644 c 0,-0.928198 0.74725,-1.675448 1.67545,-1.675448 z"
           style="fill:#373737;fill-opacity:1;stroke:none;stroke-width:0.16766435;stroke-linejoin:round;stroke-miterlimit:4;stroke-dasharray:none;stroke-dashoffset:0;stroke-opacity:1" />
      </g>
      <g
         style="stroke:none;stroke-opacity:1"
         id="g5215"
         transform="matrix(1.0752871,0,0,1.0982185,-69.036183,71.122108)">
        <path
           inkscape:connector-curvature="0"
           id="rect5209"
           d="m 120.01084,17.758663 h 11.71048 c 0.9282,0 1.67545,0.74725 1.67545,1.675448 v 12.46644 c 0,0.928198 -0.74725,1.675448 -1.67545,1.675448 h -11.71048 c -0.9282,0 -1.67545,-0.74725 -1.67545,-1.675448 v -12.46644 c 0,-0.928198 0.74725,-1.675448 1.67545,-1.675448 z"
           style="fill:#111111;fill-opacity:1;stroke:none;stroke-width:0.16766435;stroke-linejoin:round;stroke-miterlimit:4;stroke-dasharray:none;stroke-dashoffset:0;stroke-opacity:1" />
        <path
           inkscape:connector-curvature="0"
           id="rect5211"
           d="m 120.01084,16.258558 h 11.71048 c 0.9282,0 1.67545,0.74725 1.67545,1.675448 v 12.46644 c 0,0.928199 -0.74725,1.675448 -1.67545,1.675448 h -11.71048 c -0.9282,0 -1.67545,-0.747249 -1.67545,-1.675448 v -12.46644 c 0,-0.928198 0.74725,-1.675448 1.67545,-1.675448 z"
           style="fill:#4e4e4e;fill-opacity:1;stroke:none;stroke-width:0.16766435;stroke-linejoin:round;stroke-miterlimit:4;stroke-dasharray:none;stroke-dashoffset:0;stroke-opacity:1" />
        <path
           inkscape:connector-curvature="0"
           id="rect5213"
           d="m 120.01084,17.058664 h 11.71048 c 0.9282,0 1.67545,0.74725 1.67545,1.675448 v 12.46644 c 0,0.928199 -0.74725,1.675448 -1.67545,1.675448 h -11.71048 c -0.9282,0 -1.67545,-0.747249 -1.67545,-1.675448 v -12.46644 c 0,-0.928198 0.74725,-1.675448 1.67545,-1.675448 z"
           style="fill:#373737;fill-opacity:1;stroke:none;stroke-width:0.16766435;stroke-linejoin:round;stroke-miterlimit:4;stroke-dasharray:none;stroke-dashoffset:0;stroke-opacity:1" />
      </g>
      <g
         style="stroke:none;stroke-opacity:1"
         transform="matrix(1.0752871,0,0,1.0982185,-49.192433,71.122108)"
         id="g5223">
        <path
           inkscape:connector-curvature="0"
           id="rect5217"
           d="m 120.01084,17.758663 h 11.71048 c 0.9282,0 1.67545,0.74725 1.67545,1.675448 v 12.46644 c 0,0.928198 -0.74725,1.675448 -1.67545,1.675448 h -11.71048 c -0.9282,0 -1.67545,-0.74725 -1.67545,-1.675448 v -12.46644 c 0,-0.928198 0.74725,-1.675448 1.67545,-1.675448 z"
           style="fill:#111111;fill-opacity:1;stroke:none;stroke-width:0.16766435;stroke-linejoin:round;stroke-miterlimit:4;stroke-dasharray:none;stroke-dashoffset:0;stroke-opacity:1" />
        <path
           inkscape:connector-curvature="0"
           id="rect5219"
           d="m 120.01084,16.258558 h 11.71048 c 0.9282,0 1.67545,0.74725 1.67545,1.675448 v 12.46644 c 0,0.928199 -0.74725,1.675448 -1.67545,1.675448 h -11.71048 c -0.9282,0 -1.67545,-0.747249 -1.67545,-1.675448 v -12.46644 c 0,-0.928198 0.74725,-1.675448 1.67545,-1.675448 z"
           style="fill:#4e4e4e;fill-opacity:1;stroke:none;stroke-width:0.16766435;stroke-linejoin:round;stroke-miterlimit:4;stroke-dasharray:none;stroke-dashoffset:0;stroke-opacity:1" />
        <path
           inkscape:connector-curvature="0"
           id="rect5221"
           d="m 120.01084,17.058664 h 11.71048 c 0.9282,0 1.67545,0.74725 1.67545,1.675448 v 12.46644 c 0,0.928199 -0.74725,1.675448 -1.67545,1.675448 h -11.71048 c -0.9282,0 -1.67545,-0.747249 -1.67545,-1.675448 v -12.46644 c 0,-0.928198 0.74725,-1.675448 1.67545,-1.675448 z"
           style="fill:#373737;fill-opacity:1;stroke:none;stroke-width:0.16766435;stroke-linejoin:round;stroke-miterlimit:4;stroke-dasharray:none;stroke-dashoffset:0;stroke-opacity:1" />
      </g>
      <g
         style="stroke:none;stroke-opacity:1"
         id="g5231"
         transform="matrix(1.0752871,0,0,1.0982185,-29.348684,71.122108)">
        <path
           inkscape:connector-curvature="0"
           id="rect5225"
           d="m 120.01084,17.758663 h 11.71048 c 0.9282,0 1.67545,0.74725 1.67545,1.675448 v 12.46644 c 0,0.928198 -0.74725,1.675448 -1.67545,1.675448 h -11.71048 c -0.9282,0 -1.67545,-0.74725 -1.67545,-1.675448 v -12.46644 c 0,-0.928198 0.74725,-1.675448 1.67545,-1.675448 z"
           style="fill:#111111;fill-opacity:1;stroke:none;stroke-width:0.16766435;stroke-linejoin:round;stroke-miterlimit:4;stroke-dasharray:none;stroke-dashoffset:0;stroke-opacity:1" />
        <path
           inkscape:connector-curvature="0"
           id="rect5227"
           d="m 120.01084,16.258558 h 11.71048 c 0.9282,0 1.67545,0.74725 1.67545,1.675448 v 12.46644 c 0,0.928199 -0.74725,1.675448 -1.67545,1.675448 h -11.71048 c -0.9282,0 -1.67545,-0.747249 -1.67545,-1.675448 v -12.46644 c 0,-0.928198 0.74725,-1.675448 1.67545,-1.675448 z"
           style="fill:#4e4e4e;fill-opacity:1;stroke:none;stroke-width:0.16766435;stroke-linejoin:round;stroke-miterlimit:4;stroke-dasharray:none;stroke-dashoffset:0;stroke-opacity:1" />
        <path
           inkscape:connector-curvature="0"
           id="rect5229"
           d="m 120.01084,17.058664 h 11.71048 c 0.9282,0 1.67545,0.74725 1.67545,1.675448 v 12.46644 c 0,0.928199 -0.74725,1.675448 -1.67545,1.675448 h -11.71048 c -0.9282,0 -1.67545,-0.747249 -1.67545,-1.675448 v -12.46644 c 0,-0.928198 0.74725,-1.675448 1.67545,-1.675448 z"
           style="fill:#373737;fill-opacity:1;stroke:none;stroke-width:0.16766435;stroke-linejoin:round;stroke-miterlimit:4;stroke-dasharray:none;stroke-dashoffset:0;stroke-opacity:1" />
      </g>
      <g
         style="stroke:none;stroke-opacity:1"
         transform="matrix(1.0752871,0,0,1.0982185,-9.5049337,71.122108)"
         id="g5239">
        <path
           inkscape:connector-curvature="0"
           id="rect5233"
           d="m 120.01084,17.758663 h 11.71048 c 0.9282,0 1.67545,0.74725 1.67545,1.675448 v 12.46644 c 0,0.928198 -0.74725,1.675448 -1.67545,1.675448 h -11.71048 c -0.9282,0 -1.67545,-0.74725 -1.67545,-1.675448 v -12.46644 c 0,-0.928198 0.74725,-1.675448 1.67545,-1.675448 z"
           style="fill:#111111;fill-opacity:1;stroke:none;stroke-width:0.16766435;stroke-linejoin:round;stroke-miterlimit:4;stroke-dasharray:none;stroke-dashoffset:0;stroke-opacity:1" />
        <path
           inkscape:connector-curvature="0"
           id="rect5235"
           d="m 120.01084,16.258558 h 11.71048 c 0.9282,0 1.67545,0.74725 1.67545,1.675448 v 12.46644 c 0,0.928199 -0.74725,1.675448 -1.67545,1.675448 h -11.71048 c -0.9282,0 -1.67545,-0.747249 -1.67545,-1.675448 v -12.46644 c 0,-0.928198 0.74725,-1.675448 1.67545,-1.675448 z"
           style="fill:#4e4e4e;fill-opacity:1;stroke:none;stroke-width:0.16766435;stroke-linejoin:round;stroke-miterlimit:4;stroke-dasharray:none;stroke-dashoffset:0;stroke-opacity:1" />
        <path
           inkscape:connector-curvature="0"
           id="rect5237"
           d="m 120.01084,17.058664 h 11.71048 c 0.9282,0 1.67545,0.74725 1.67545,1.675448 v 12.46644 c 0,0.928199 -0.74725,1.675448 -1.67545,1.675448 h -11.71048 c -0.9282,0 -1.67545,-0.747249 -1.67545,-1.675448 v -12.46644 c 0,-0.928198 0.74725,-1.675448 1.67545,-1.675448 z"
           style="fill:#373737;fill-opacity:1;stroke:none;stroke-width:0.16766435;stroke-linejoin:round;stroke-miterlimit:4;stroke-dasharray:none;stroke-dashoffset:0;stroke-opacity:1" />
      </g>
      <g
         style="stroke:none;stroke-opacity:1"
         transform="matrix(1.0752871,0,0,1.0982185,10.338817,71.122108)"
         id="g5247">
        <path
           inkscape:connector-curvature="0"
           id="rect5241"
           d="m 120.01084,17.758663 h 11.71048 c 0.9282,0 1.67545,0.74725 1.67545,1.675448 v 12.46644 c 0,0.928198 -0.74725,1.675448 -1.67545,1.675448 h -11.71048 c -0.9282,0 -1.67545,-0.74725 -1.67545,-1.675448 v -12.46644 c 0,-0.928198 0.74725,-1.675448 1.67545,-1.675448 z"
           style="fill:#111111;fill-opacity:1;stroke:none;stroke-width:0.16766435;stroke-linejoin:round;stroke-miterlimit:4;stroke-dasharray:none;stroke-dashoffset:0;stroke-opacity:1" />
        <path
           inkscape:connector-curvature="0"
           id="rect5243"
           d="m 120.01084,16.258558 h 11.71048 c 0.9282,0 1.67545,0.74725 1.67545,1.675448 v 12.46644 c 0,0.928199 -0.74725,1.675448 -1.67545,1.675448 h -11.71048 c -0.9282,0 -1.67545,-0.747249 -1.67545,-1.675448 v -12.46644 c 0,-0.928198 0.74725,-1.675448 1.67545,-1.675448 z"
           style="fill:#4e4e4e;fill-opacity:1;stroke:none;stroke-width:0.16766435;stroke-linejoin:round;stroke-miterlimit:4;stroke-dasharray:none;stroke-dashoffset:0;stroke-opacity:1" />
        <path
           inkscape:connector-curvature="0"
           id="rect5245"
           d="m 120.01084,17.058664 h 11.71048 c 0.9282,0 1.67545,0.74725 1.67545,1.675448 v 12.46644 c 0,0.928199 -0.74725,1.675448 -1.67545,1.675448 h -11.71048 c -0.9282,0 -1.67545,-0.747249 -1.67545,-1.675448 v -12.46644 c 0,-0.928198 0.74725,-1.675448 1.67545,-1.675448 z"
           style="fill:#373737;fill-opacity:1;stroke:none;stroke-width:0.16766435;stroke-linejoin:round;stroke-miterlimit:4;stroke-dasharray:none;stroke-dashoffset:0;stroke-opacity:1" />
      </g>
      <g
         style="stroke:none;stroke-opacity:1"
         id="g5255"
         transform="matrix(1.0752871,0,0,1.0982185,30.182567,71.122108)">
        <path
           inkscape:connector-curvature="0"
           id="rect5249"
           d="m 120.01084,17.758663 h 11.71048 c 0.9282,0 1.67545,0.74725 1.67545,1.675448 v 12.46644 c 0,0.928198 -0.74725,1.675448 -1.67545,1.675448 h -11.71048 c -0.9282,0 -1.67545,-0.74725 -1.67545,-1.675448 v -12.46644 c 0,-0.928198 0.74725,-1.675448 1.67545,-1.675448 z"
           style="fill:#111111;fill-opacity:1;stroke:none;stroke-width:0.16766435;stroke-linejoin:round;stroke-miterlimit:4;stroke-dasharray:none;stroke-dashoffset:0;stroke-opacity:1" />
        <path
           inkscape:connector-curvature="0"
           id="rect5251"
           d="m 120.01084,16.258558 h 11.71048 c 0.9282,0 1.67545,0.74725 1.67545,1.675448 v 12.46644 c 0,0.928199 -0.74725,1.675448 -1.67545,1.675448 h -11.71048 c -0.9282,0 -1.67545,-0.747249 -1.67545,-1.675448 v -12.46644 c 0,-0.928198 0.74725,-1.675448 1.67545,-1.675448 z"
           style="fill:#4e4e4e;fill-opacity:1;stroke:none;stroke-width:0.16766435;stroke-linejoin:round;stroke-miterlimit:4;stroke-dasharray:none;stroke-dashoffset:0;stroke-opacity:1" />
        <path
           inkscape:connector-curvature="0"
           id="rect5253"
           d="m 120.01084,17.058664 h 11.71048 c 0.9282,0 1.67545,0.74725 1.67545,1.675448 v 12.46644 c 0,0.928199 -0.74725,1.675448 -1.67545,1.675448 h -11.71048 c -0.9282,0 -1.67545,-0.747249 -1.67545,-1.675448 v -12.46644 c 0,-0.928198 0.74725,-1.675448 1.67545,-1.675448 z"
           style="fill:#373737;fill-opacity:1;stroke:none;stroke-width:0.16766435;stroke-linejoin:round;stroke-miterlimit:4;stroke-dasharray:none;stroke-dashoffset:0;stroke-opacity:1" />
      </g>
      <g
         style="stroke:none;stroke-opacity:1"
         transform="matrix(1.0752871,0,0,1.0982185,50.026317,71.122108)"
         id="g5263">
        <path
           inkscape:connector-curvature="0"
           id="rect5257"
           d="m 120.01084,17.758663 h 11.71048 c 0.9282,0 1.67545,0.74725 1.67545,1.675448 v 12.46644 c 0,0.928198 -0.74725,1.675448 -1.67545,1.675448 h -11.71048 c -0.9282,0 -1.67545,-0.74725 -1.67545,-1.675448 v -12.46644 c 0,-0.928198 0.74725,-1.675448 1.67545,-1.675448 z"
           style="fill:#111111;fill-opacity:1;stroke:none;stroke-width:0.16766435;stroke-linejoin:round;stroke-miterlimit:4;stroke-dasharray:none;stroke-dashoffset:0;stroke-opacity:1" />
        <path
           inkscape:connector-curvature="0"
           id="rect5259"
           d="m 120.01084,16.258558 h 11.71048 c 0.9282,0 1.67545,0.74725 1.67545,1.675448 v 12.46644 c 0,0.928199 -0.74725,1.675448 -1.67545,1.675448 h -11.71048 c -0.9282,0 -1.67545,-0.747249 -1.67545,-1.675448 v -12.46644 c 0,-0.928198 0.74725,-1.675448 1.67545,-1.675448 z"
           style="fill:#4e4e4e;fill-opacity:1;stroke:none;stroke-width:0.16766435;stroke-linejoin:round;stroke-miterlimit:4;stroke-dasharray:none;stroke-dashoffset:0;stroke-opacity:1" />
        <path
           inkscape:connector-curvature="0"
           id="rect5261"
           d="m 120.01084,17.058664 h 11.71048 c 0.9282,0 1.67545,0.74725 1.67545,1.675448 v 12.46644 c 0,0.928199 -0.74725,1.675448 -1.67545,1.675448 h -11.71048 c -0.9282,0 -1.67545,-0.747249 -1.67545,-1.675448 v -12.46644 c 0,-0.928198 0.74725,-1.675448 1.67545,-1.675448 z"
           style="fill:#373737;fill-opacity:1;stroke:none;stroke-width:0.16766435;stroke-linejoin:round;stroke-miterlimit:4;stroke-dasharray:none;stroke-dashoffset:0;stroke-opacity:1" />
      </g>
      <g
         style="stroke:none;stroke-opacity:1"
         transform="matrix(1.0752871,0,0,1.0982185,-69.036183,93.611691)"
         id="g5271">
        <path
           inkscape:connector-curvature="0"
           id="rect5265"
           d="m 120.01084,17.758663 h 11.71048 c 0.9282,0 1.67545,0.74725 1.67545,1.675448 v 12.46644 c 0,0.928198 -0.74725,1.675448 -1.67545,1.675448 h -11.71048 c -0.9282,0 -1.67545,-0.74725 -1.67545,-1.675448 v -12.46644 c 0,-0.928198 0.74725,-1.675448 1.67545,-1.675448 z"
           style="fill:#111111;fill-opacity:1;stroke:none;stroke-width:0.16766435;stroke-linejoin:round;stroke-miterlimit:4;stroke-dasharray:none;stroke-dashoffset:0;stroke-opacity:1" />
        <path
           inkscape:connector-curvature="0"
           id="rect5267"
           d="m 120.01084,16.258558 h 11.71048 c 0.9282,0 1.67545,0.74725 1.67545,1.675448 v 12.46644 c 0,0.928199 -0.74725,1.675448 -1.67545,1.675448 h -11.71048 c -0.9282,0 -1.67545,-0.747249 -1.67545,-1.675448 v -12.46644 c 0,-0.928198 0.74725,-1.675448 1.67545,-1.675448 z"
           style="fill:#4e4e4e;fill-opacity:1;stroke:none;stroke-width:0.16766435;stroke-linejoin:round;stroke-miterlimit:4;stroke-dasharray:none;stroke-dashoffset:0;stroke-opacity:1" />
        <path
           inkscape:connector-curvature="0"
           id="rect5269"
           d="m 120.01084,17.058664 h 11.71048 c 0.9282,0 1.67545,0.74725 1.67545,1.675448 v 12.46644 c 0,0.928199 -0.74725,1.675448 -1.67545,1.675448 h -11.71048 c -0.9282,0 -1.67545,-0.747249 -1.67545,-1.675448 v -12.46644 c 0,-0.928198 0.74725,-1.675448 1.67545,-1.675448 z"
           style="fill:#373737;fill-opacity:1;stroke:none;stroke-width:0.16766435;stroke-linejoin:round;stroke-miterlimit:4;stroke-dasharray:none;stroke-dashoffset:0;stroke-opacity:1" />
      </g>
      <g
         style="stroke:none;stroke-opacity:1"
         id="g5279"
         transform="matrix(1.0752871,0,0,1.0982185,-49.192433,93.611691)">
        <path
           inkscape:connector-curvature="0"
           id="rect5273"
           d="m 120.01084,17.758663 h 11.71048 c 0.9282,0 1.67545,0.74725 1.67545,1.675448 v 12.46644 c 0,0.928198 -0.74725,1.675448 -1.67545,1.675448 h -11.71048 c -0.9282,0 -1.67545,-0.74725 -1.67545,-1.675448 v -12.46644 c 0,-0.928198 0.74725,-1.675448 1.67545,-1.675448 z"
           style="fill:#111111;fill-opacity:1;stroke:none;stroke-width:0.16766435;stroke-linejoin:round;stroke-miterlimit:4;stroke-dasharray:none;stroke-dashoffset:0;stroke-opacity:1" />
        <path
           inkscape:connector-curvature="0"
           id="rect5275"
           d="m 120.01084,16.258558 h 11.71048 c 0.9282,0 1.67545,0.74725 1.67545,1.675448 v 12.46644 c 0,0.928199 -0.74725,1.675448 -1.67545,1.675448 h -11.71048 c -0.9282,0 -1.67545,-0.747249 -1.67545,-1.675448 v -12.46644 c 0,-0.928198 0.74725,-1.675448 1.67545,-1.675448 z"
           style="fill:#4e4e4e;fill-opacity:1;stroke:none;stroke-width:0.16766435;stroke-linejoin:round;stroke-miterlimit:4;stroke-dasharray:none;stroke-dashoffset:0;stroke-opacity:1" />
        <path
           inkscape:connector-curvature="0"
           id="rect5277"
           d="m 120.01084,17.058664 h 11.71048 c 0.9282,0 1.67545,0.74725 1.67545,1.675448 v 12.46644 c 0,0.928199 -0.74725,1.675448 -1.67545,1.675448 h -11.71048 c -0.9282,0 -1.67545,-0.747249 -1.67545,-1.675448 v -12.46644 c 0,-0.928198 0.74725,-1.675448 1.67545,-1.675448 z"
           style="fill:#373737;fill-opacity:1;stroke:none;stroke-width:0.16766435;stroke-linejoin:round;stroke-miterlimit:4;stroke-dasharray:none;stroke-dashoffset:0;stroke-opacity:1" />
      </g>
      <g
         style="stroke:none;stroke-opacity:1"
         transform="matrix(1.0752871,0,0,1.0982185,-29.348684,93.611691)"
         id="g5287">
        <path
           inkscape:connector-curvature="0"
           id="rect5281"
           d="m 120.01084,17.758663 h 11.71048 c 0.9282,0 1.67545,0.74725 1.67545,1.675448 v 12.46644 c 0,0.928198 -0.74725,1.675448 -1.67545,1.675448 h -11.71048 c -0.9282,0 -1.67545,-0.74725 -1.67545,-1.675448 v -12.46644 c 0,-0.928198 0.74725,-1.675448 1.67545,-1.675448 z"
           style="fill:#111111;fill-opacity:1;stroke:none;stroke-width:0.16766435;stroke-linejoin:round;stroke-miterlimit:4;stroke-dasharray:none;stroke-dashoffset:0;stroke-opacity:1" />
        <path
           inkscape:connector-curvature="0"
           id="rect5283"
           d="m 120.01084,16.258558 h 11.71048 c 0.9282,0 1.67545,0.74725 1.67545,1.675448 v 12.46644 c 0,0.928199 -0.74725,1.675448 -1.67545,1.675448 h -11.71048 c -0.9282,0 -1.67545,-0.747249 -1.67545,-1.675448 v -12.46644 c 0,-0.928198 0.74725,-1.675448 1.67545,-1.675448 z"
           style="fill:#4e4e4e;fill-opacity:1;stroke:none;stroke-width:0.16766435;stroke-linejoin:round;stroke-miterlimit:4;stroke-dasharray:none;stroke-dashoffset:0;stroke-opacity:1" />
        <path
           inkscape:connector-curvature="0"
           id="rect5285"
           d="m 120.01084,17.058664 h 11.71048 c 0.9282,0 1.67545,0.74725 1.67545,1.675448 v 12.46644 c 0,0.928199 -0.74725,1.675448 -1.67545,1.675448 h -11.71048 c -0.9282,0 -1.67545,-0.747249 -1.67545,-1.675448 v -12.46644 c 0,-0.928198 0.74725,-1.675448 1.67545,-1.675448 z"
           style="fill:#373737;fill-opacity:1;stroke:none;stroke-width:0.16766435;stroke-linejoin:round;stroke-miterlimit:4;stroke-dasharray:none;stroke-dashoffset:0;stroke-opacity:1" />
      </g>
      <g
         style="stroke:none;stroke-opacity:1"
         id="g5295"
         transform="matrix(1.0752871,0,0,1.0982185,-9.5049334,93.611691)">
        <path
           inkscape:connector-curvature="0"
           id="rect5289"
           d="m 120.01084,17.758663 h 11.71048 c 0.9282,0 1.67545,0.74725 1.67545,1.675448 v 12.46644 c 0,0.928198 -0.74725,1.675448 -1.67545,1.675448 h -11.71048 c -0.9282,0 -1.67545,-0.74725 -1.67545,-1.675448 v -12.46644 c 0,-0.928198 0.74725,-1.675448 1.67545,-1.675448 z"
           style="fill:#111111;fill-opacity:1;stroke:none;stroke-width:0.16766435;stroke-linejoin:round;stroke-miterlimit:4;stroke-dasharray:none;stroke-dashoffset:0;stroke-opacity:1" />
        <path
           inkscape:connector-curvature="0"
           id="rect5291"
           d="m 120.01084,16.258558 h 11.71048 c 0.9282,0 1.67545,0.74725 1.67545,1.675448 v 12.46644 c 0,0.928199 -0.74725,1.675448 -1.67545,1.675448 h -11.71048 c -0.9282,0 -1.67545,-0.747249 -1.67545,-1.675448 v -12.46644 c 0,-0.928198 0.74725,-1.675448 1.67545,-1.675448 z"
           style="fill:#4e4e4e;fill-opacity:1;stroke:none;stroke-width:0.16766435;stroke-linejoin:round;stroke-miterlimit:4;stroke-dasharray:none;stroke-dashoffset:0;stroke-opacity:1" />
        <path
           inkscape:connector-curvature="0"
           id="rect5293"
           d="m 120.01084,17.058664 h 11.71048 c 0.9282,0 1.67545,0.74725 1.67545,1.675448 v 12.46644 c 0,0.928199 -0.74725,1.675448 -1.67545,1.675448 h -11.71048 c -0.9282,0 -1.67545,-0.747249 -1.67545,-1.675448 v -12.46644 c 0,-0.928198 0.74725,-1.675448 1.67545,-1.675448 z"
           style="fill:#373737;fill-opacity:1;stroke:none;stroke-width:0.16766435;stroke-linejoin:round;stroke-miterlimit:4;stroke-dasharray:none;stroke-dashoffset:0;stroke-opacity:1" />
      </g>
      <g
         style="stroke:none;stroke-opacity:1"
         id="g5303"
         transform="matrix(1.0752871,0,0,1.0982185,10.338817,93.611691)">
        <path
           inkscape:connector-curvature="0"
           id="rect5297"
           d="m 120.01084,17.758663 h 11.71048 c 0.9282,0 1.67545,0.74725 1.67545,1.675448 v 12.46644 c 0,0.928198 -0.74725,1.675448 -1.67545,1.675448 h -11.71048 c -0.9282,0 -1.67545,-0.74725 -1.67545,-1.675448 v -12.46644 c 0,-0.928198 0.74725,-1.675448 1.67545,-1.675448 z"
           style="fill:#111111;fill-opacity:1;stroke:none;stroke-width:0.16766435;stroke-linejoin:round;stroke-miterlimit:4;stroke-dasharray:none;stroke-dashoffset:0;stroke-opacity:1" />
        <path
           inkscape:connector-curvature="0"
           id="rect5299"
           d="m 120.01084,16.258558 h 11.71048 c 0.9282,0 1.67545,0.74725 1.67545,1.675448 v 12.46644 c 0,0.928199 -0.74725,1.675448 -1.67545,1.675448 h -11.71048 c -0.9282,0 -1.67545,-0.747249 -1.67545,-1.675448 v -12.46644 c 0,-0.928198 0.74725,-1.675448 1.67545,-1.675448 z"
           style="fill:#4e4e4e;fill-opacity:1;stroke:none;stroke-width:0.16766435;stroke-linejoin:round;stroke-miterlimit:4;stroke-dasharray:none;stroke-dashoffset:0;stroke-opacity:1" />
        <path
           inkscape:connector-curvature="0"
           id="rect5301"
           d="m 120.01084,17.058664 h 11.71048 c 0.9282,0 1.67545,0.74725 1.67545,1.675448 v 12.46644 c 0,0.928199 -0.74725,1.675448 -1.67545,1.675448 h -11.71048 c -0.9282,0 -1.67545,-0.747249 -1.67545,-1.675448 v -12.46644 c 0,-0.928198 0.74725,-1.675448 1.67545,-1.675448 z"
           style="fill:#373737;fill-opacity:1;stroke:none;stroke-width:0.16766435;stroke-linejoin:round;stroke-miterlimit:4;stroke-dasharray:none;stroke-dashoffset:0;stroke-opacity:1" />
      </g>
      <g
         style="stroke:none;stroke-opacity:1"
         transform="matrix(1.0752871,0,0,1.0982185,30.182567,93.611691)"
         id="g5311">
        <path
           inkscape:connector-curvature="0"
           id="rect5305"
           d="m 120.01084,17.758663 h 11.71048 c 0.9282,0 1.67545,0.74725 1.67545,1.675448 v 12.46644 c 0,0.928198 -0.74725,1.675448 -1.67545,1.675448 h -11.71048 c -0.9282,0 -1.67545,-0.74725 -1.67545,-1.675448 v -12.46644 c 0,-0.928198 0.74725,-1.675448 1.67545,-1.675448 z"
           style="fill:#111111;fill-opacity:1;stroke:none;stroke-width:0.16766435;stroke-linejoin:round;stroke-miterlimit:4;stroke-dasharray:none;stroke-dashoffset:0;stroke-opacity:1" />
        <path
           inkscape:connector-curvature="0"
           id="rect5307"
           d="m 120.01084,16.258558 h 11.71048 c 0.9282,0 1.67545,0.74725 1.67545,1.675448 v 12.46644 c 0,0.928199 -0.74725,1.675448 -1.67545,1.675448 h -11.71048 c -0.9282,0 -1.67545,-0.747249 -1.67545,-1.675448 v -12.46644 c 0,-0.928198 0.74725,-1.675448 1.67545,-1.675448 z"
           style="fill:#4e4e4e;fill-opacity:1;stroke:none;stroke-width:0.16766435;stroke-linejoin:round;stroke-miterlimit:4;stroke-dasharray:none;stroke-dashoffset:0;stroke-opacity:1" />
        <path
           inkscape:connector-curvature="0"
           id="rect5309"
           d="m 120.01084,17.058664 h 11.71048 c 0.9282,0 1.67545,0.74725 1.67545,1.675448 v 12.46644 c 0,0.928199 -0.74725,1.675448 -1.67545,1.675448 h -11.71048 c -0.9282,0 -1.67545,-0.747249 -1.67545,-1.675448 v -12.46644 c 0,-0.928198 0.74725,-1.675448 1.67545,-1.675448 z"
           style="fill:#373737;fill-opacity:1;stroke:none;stroke-width:0.16766435;stroke-linejoin:round;stroke-miterlimit:4;stroke-dasharray:none;stroke-dashoffset:0;stroke-opacity:1" />
      </g>
    </g>
    <g
       aria-label="qwertyuiop
asdfghjkl
zxcvbnm"
       style="font-style:normal;font-weight:normal;font-size:10.58333302px;line-height:1.25;font-family:sans-serif;text-align:start;letter-spacing:0px;word-spacing:0px;text-anchor:start;fill:#ffffff;fill-opacity:1;stroke:none;stroke-width:0.26458332;stroke-opacity:1"
       id="text5592">
      <path
         d="m 13.49997,219.88294 v 9.18394 h -1.221631 v -3.7145 q -0.892968,1.42007 -2.207617,1.42007 -1.1410153,0 -1.8045406,-0.88677 -0.6573243,-0.88677 -0.6573243,-2.41226 0,-1.67431 0.7813477,-2.70371 0.7813476,-1.03559 2.0463862,-1.03559 1.085206,0 1.841748,0.91777 h 0.03721 l 0.192236,-0.76895 z m -1.221631,1.68672 q -0.855761,-0.91777 -1.674316,-0.91777 -0.8061522,0 -1.2526366,0.70693 -0.4402832,0.70694 -0.4402832,1.99058 0,2.37505 1.4200688,2.37505 1.035595,0 1.947167,-1.28985 z"
         style="font-style:normal;font-variant:normal;font-weight:normal;font-stretch:normal;font-size:12.69999981px;line-height:1.79999995;font-family:'Lucida Console';-inkscape-font-specification:'Lucida Console';text-align:center;letter-spacing:12.17083359px;text-anchor:middle;fill:#ffffff;fill-opacity:1;stroke:none;stroke-width:0.26458332;stroke-opacity:1"
         id="path4615" />
      <path
         d="m 28.058255,226.61742 -1.227832,-6.73448 h 1.128613 l 0.892969,5.271 h 0.0124 l 1.196826,-4.65708 h 1.184424 l 1.134815,4.83691 h 0.0186 l 0.992188,-5.45083 h 0.936376 l -1.345654,6.73448 h -1.203027 l -1.184424,-5.03536 h -0.0124 l -1.308448,5.03536 z"
         style="font-style:normal;font-variant:normal;font-weight:normal;font-stretch:normal;font-size:12.69999981px;line-height:1.79999995;font-family:'Lucida Console';-inkscape-font-specification:'Lucida Console';text-align:center;letter-spacing:12.17083359px;text-anchor:middle;fill:#ffffff;fill-opacity:1;stroke:none;stroke-width:0.26458332;stroke-opacity:1"
         id="path4617" />
      <path
         d="m 53.400377,226.35077 q -1.27124,0.42168 -2.331641,0.42168 -1.736328,0 -2.672705,-0.89297 -0.930175,-0.89297 -0.930175,-2.55489 0,-1.56889 0.892968,-2.57968 0.89917,-1.01079 2.282032,-1.01079 1.395263,0 2.052587,0.83715 0.663526,0.83716 0.663526,2.6045 v 0.39067 h -4.588867 q 0.136425,2.28823 2.468066,2.28823 0.985986,0 2.164209,-0.47129 z m -4.595068,-3.7021 h 3.249414 v -0.17364 q 0,-1.82314 -1.519287,-1.82314 -0.731739,0 -1.190625,0.5271 -0.452686,0.5271 -0.539502,1.46968 z"
         style="font-style:normal;font-variant:normal;font-weight:normal;font-stretch:normal;font-size:12.69999981px;line-height:1.79999995;font-family:'Lucida Console';-inkscape-font-specification:'Lucida Console';text-align:center;letter-spacing:12.17083359px;text-anchor:middle;fill:#ffffff;fill-opacity:1;stroke:none;stroke-width:0.26458332;stroke-opacity:1"
         id="path4619" />
      <path
         d="m 68.336935,226.61742 v -6.73448 h 1.221631 v 1.26504 q 0.930175,-1.41386 2.499072,-1.41386 0.551904,0 1.252637,0.15502 v 1.90997 h -0.917774 v -0.93638 q -0.272851,-0.062 -0.496094,-0.062 -0.700732,0 -1.234033,0.32866 -0.527099,0.32246 -1.103808,1.10381 v 4.38423 z"
         style="font-style:normal;font-variant:normal;font-weight:normal;font-stretch:normal;font-size:12.69999981px;line-height:1.79999995;font-family:'Lucida Console';-inkscape-font-specification:'Lucida Console';text-align:center;letter-spacing:12.17083359px;text-anchor:middle;fill:#ffffff;fill-opacity:1;stroke:none;stroke-width:0.26458332;stroke-opacity:1"
         id="path4621" />
      <path
         d="m 93.096145,226.61122 q -0.917773,0.16123 -1.773535,0.16123 -1.494483,0 -2.033985,-0.53331 -0.539501,-0.5395 -0.539501,-2.03398 v -3.24941 h -1.680518 v -0.91778 h 1.680518 v -1.45107 h 1.227832 v 1.45107 h 2.982763 v 0.91778 h -2.982763 v 3.44785 q 0,0.57671 0.06821,0.79375 0.07442,0.21704 0.310059,0.37827 0.42168,0.27905 1.227832,0.27905 0.762744,0 1.513086,-0.17363 z"
         style="font-style:normal;font-variant:normal;font-weight:normal;font-stretch:normal;font-size:12.69999981px;line-height:1.79999995;font-family:'Lucida Console';-inkscape-font-specification:'Lucida Console';text-align:center;letter-spacing:12.17083359px;text-anchor:middle;fill:#ffffff;fill-opacity:1;stroke:none;stroke-width:0.26458332;stroke-opacity:1"
         id="path4623" />
      <path
         d="m 106.97851,229.06688 v -0.91777 h 0.49609 q 0.69453,0 1.01079,-0.22325 0.31626,-0.22324 0.66353,-0.96118 l 0.30385,-0.64492 -2.82773,-6.43682 h 1.26504 l 2.20142,5.04156 2.22002,-5.04156 h 1.0976 l -3.39204,7.59644 q -0.39687,0.88677 -0.94878,1.23403 -0.5519,0.35347 -1.56889,0.35347 z"
         style="font-style:normal;font-variant:normal;font-weight:normal;font-stretch:normal;font-size:12.69999981px;line-height:1.79999995;font-family:'Lucida Console';-inkscape-font-specification:'Lucida Console';text-align:center;letter-spacing:12.17083359px;text-anchor:middle;fill:#ffffff;fill-opacity:1;stroke:none;stroke-width:0.26458332;stroke-opacity:1"
         id="path4625" />
      <path
         d="m 132.45705,219.88294 v 6.73448 h -1.22163 v -1.26504 q -0.84336,1.42007 -2.30063,1.42007 -1.90996,0 -1.90996,-2.28204 v -4.60747 h 1.22163 v 4.27261 q 0,0.79375 0.24184,1.12861 0.24185,0.32867 0.82476,0.32867 0.91777,0 1.92236,-1.32705 v -4.40284 z"
         style="font-style:normal;font-variant:normal;font-weight:normal;font-stretch:normal;font-size:12.69999981px;line-height:1.79999995;font-family:'Lucida Console';-inkscape-font-specification:'Lucida Console';text-align:center;letter-spacing:12.17083359px;text-anchor:middle;fill:#ffffff;fill-opacity:1;stroke:none;stroke-width:0.26458332;stroke-opacity:1"
         id="path4627" />
      <path
         d="m 149.29117,226.61742 v -5.8167 h -2.44947 v -0.91778 h 3.6711 v 6.73448 z m -0.15503,-8.25996 v -1.53169 h 1.53169 v 1.53169 z"
         style="font-style:normal;font-variant:normal;font-weight:normal;font-stretch:normal;font-size:12.69999981px;line-height:1.79999995;font-family:'Lucida Console';-inkscape-font-specification:'Lucida Console';text-align:center;letter-spacing:12.17083359px;text-anchor:middle;fill:#ffffff;fill-opacity:1;stroke:none;stroke-width:0.26458332;stroke-opacity:1"
         id="path4629" />
      <path
         d="m 169.4305,226.77245 q -1.48208,0 -2.33164,-0.93638 -0.84336,-0.94258 -0.84336,-2.58589 0,-1.63711 0.84956,-2.57349 0.84956,-0.94257 2.32544,-0.94257 1.48208,0 2.32544,0.94257 0.84956,0.93638 0.84956,2.57349 0,1.64331 -0.84956,2.58589 -0.84336,0.93638 -2.32544,0.93638 z m 0,-0.91778 q 0.88057,0 1.37666,-0.68833 0.4961,-0.68833 0.4961,-1.91616 0,-1.22163 -0.4961,-1.90996 -0.49609,-0.68833 -1.37666,-0.68833 -0.88056,0 -1.37666,0.68833 -0.49609,0.68833 -0.49609,1.90996 0,1.22783 0.49609,1.91616 0.4961,0.68833 1.37666,0.68833 z"
         style="font-style:normal;font-variant:normal;font-weight:normal;font-stretch:normal;font-size:12.69999981px;line-height:1.79999995;font-family:'Lucida Console';-inkscape-font-specification:'Lucida Console';text-align:center;letter-spacing:12.17083359px;text-anchor:middle;fill:#ffffff;fill-opacity:1;stroke:none;stroke-width:0.26458332;stroke-opacity:1"
         id="path4631" />
      <path
         d="m 186.54987,229.06688 v -9.18394 h 1.22163 v 1.26504 q 0.88677,-1.41386 2.20142,-1.41386 1.14721,0 1.80454,0.88676 0.66352,0.88057 0.66352,2.40606 0,1.67431 -0.78134,2.70991 -0.78135,1.0356 -2.04639,1.0356 -1.08521,0 -1.84175,-0.91778 v 3.21221 z m 1.22163,-4.12998 q 0.84956,0.91777 1.67432,0.91777 0.80615,0 1.24643,-0.70693 0.44649,-0.71314 0.44649,-1.99058 0,-2.38125 -1.42007,-2.38125 -1.0356,0 -1.94717,1.28985 z"
         style="font-style:normal;font-variant:normal;font-weight:normal;font-stretch:normal;font-size:12.69999981px;line-height:1.79999995;font-family:'Lucida Console';-inkscape-font-specification:'Lucida Console';text-align:center;letter-spacing:12.17083359px;text-anchor:middle;fill:#ffffff;fill-opacity:1;stroke:none;stroke-width:0.26458332;stroke-opacity:1"
         id="path4633" />
      <path
         d="m 22.016246,248.66506 q -1.110009,0.93018 -2.213818,0.93018 -0.923974,0 -1.525488,-0.5271 -0.595313,-0.5271 -0.595313,-1.33325 0,-1.048 0.930176,-1.68672 0.930176,-0.63872 2.455664,-0.63872 h 0.756543 v -0.57671 q 0,-0.71314 -0.31626,-1.01699 -0.316259,-0.30386 -1.047998,-0.30386 -1.0604,0 -2.195214,0.59531 v -1.048 q 1.302246,-0.46509 2.443261,-0.46509 1.283643,0 1.810742,0.5085 0.533301,0.5085 0.533301,1.75493 v 2.82154 q 0,0.60771 0.130225,0.83095 0.130224,0.21704 0.489892,0.21704 0.117823,0 0.384473,-0.062 l 0.111621,0.73174 q -0.613916,0.19844 -0.930176,0.19844 -0.905371,0 -1.221631,-0.93018 z m -0.192236,-0.79375 v -1.69912 h -0.365869 q -2.511475,0 -2.511475,1.35806 0,0.48989 0.322461,0.78755 0.322461,0.29765 0.855762,0.29765 0.799951,0 1.699121,-0.74414 z"
         style="font-style:normal;font-variant:normal;font-weight:normal;font-stretch:normal;font-size:12.69999981px;line-height:1.79999995;font-family:'Lucida Console';-inkscape-font-specification:'Lucida Console';text-align:center;letter-spacing:12.17083359px;text-anchor:middle;fill:#ffffff;fill-opacity:1;stroke:none;stroke-width:0.26458332;stroke-opacity:1"
         id="path4635" />
      <path
         d="m 37.833369,249.20456 v -1.1038 q 1.420068,0.61391 2.455664,0.61391 0.74414,0 1.227832,-0.29765 0.489892,-0.30386 0.489892,-0.76275 0,-0.58911 -1.159619,-0.96118 l -1.308447,-0.42788 q -1.531689,-0.4961 -1.531689,-1.74873 0,-0.91778 0.68833,-1.42007 0.694531,-0.5023 1.95957,-0.5023 0.948779,0 2.201416,0.29146 v 0.99219 q -1.209229,-0.36587 -2.207617,-0.36587 -0.669727,0 -1.072803,0.24184 -0.396875,0.24185 -0.396875,0.65113 0,0.50229 0.911572,0.81855 l 1.544092,0.5395 q 0.843359,0.29766 1.209229,0.71314 0.37207,0.40928 0.37207,1.0666 0,0.95498 -0.787549,1.52549 -0.787549,0.5643 -2.114599,0.5643 -1.15962,0 -2.480469,-0.42788 z"
         style="font-style:normal;font-variant:normal;font-weight:normal;font-stretch:normal;font-size:12.69999981px;line-height:1.79999995;font-family:'Lucida Console';-inkscape-font-specification:'Lucida Console';text-align:center;letter-spacing:12.17083359px;text-anchor:middle;fill:#ffffff;fill-opacity:1;stroke:none;stroke-width:0.26458332;stroke-opacity:1"
         id="path4637" />
      <path
         d="m 61.966262,249.47742 v -1.26504 q -0.892968,1.42006 -2.207617,1.42006 -1.141015,0 -1.804541,-0.88676 -0.657324,-0.88677 -0.657324,-2.41226 0,-1.67432 0.781348,-2.70371 0.781347,-1.0356 2.046386,-1.0356 1.085206,0 1.841748,0.91778 v -3.82612 h 1.221631 v 9.79165 z m 0,-5.04776 q -0.855761,-0.91777 -1.674316,-0.91777 -0.806152,0 -1.252637,0.70693 -0.440283,0.70694 -0.440283,1.99058 0,2.37505 1.420069,2.37505 1.035595,0 1.947167,-1.28985 z"
         style="font-style:normal;font-variant:normal;font-weight:normal;font-stretch:normal;font-size:12.69999981px;line-height:1.79999995;font-family:'Lucida Console';-inkscape-font-specification:'Lucida Console';text-align:center;letter-spacing:12.17083359px;text-anchor:middle;fill:#ffffff;fill-opacity:1;stroke:none;stroke-width:0.26458332;stroke-opacity:1"
         id="path4639" />
      <path
         d="m 79.098035,249.47742 v -5.66167 h -1.835547 v -0.91778 h 1.835547 v -0.71313 q 0,-1.41387 0.657324,-2.03399 0.657325,-0.62011 2.158008,-0.62011 0.992188,0 1.878955,0.26665 v 0.96738 q -0.905371,-0.31626 -1.785937,-0.31626 -0.936377,0 -1.314649,0.35967 -0.37207,0.35346 -0.37207,1.24643 v 0.84336 h 3.218408 v 0.91778 h -3.218408 v 5.66167 z"
         style="font-style:normal;font-variant:normal;font-weight:normal;font-stretch:normal;font-size:12.69999981px;line-height:1.79999995;font-family:'Lucida Console';-inkscape-font-specification:'Lucida Console';text-align:center;letter-spacing:12.17083359px;text-anchor:middle;fill:#ffffff;fill-opacity:1;stroke:none;stroke-width:0.26458332;stroke-opacity:1"
         id="path4641" />
      <path
         d="m 97.494843,251.72844 0.130225,-1.02939 q 1.097607,0.46508 2.040185,0.46508 1.959567,0 1.959567,-1.86655 l 0.0558,-1.21543 q -0.76894,1.39527 -2.226217,1.39527 -1.153418,0 -1.835547,-0.87437 -0.675927,-0.88057 -0.675927,-2.36885 0,-1.6185 0.787549,-2.62929 0.787548,-1.017 2.046386,-1.017 0.985986,0 1.940966,0.92398 v -0.76895 h 1.14722 v 5.38882 q 0,1.30845 -0.17364,1.96577 -0.17363,0.66353 -0.65112,1.17202 -0.76274,0.81236 -2.387449,0.81236 -0.954981,0 -2.158008,-0.35347 z m 4.148587,-4.63848 v -2.6479 q -0.82476,-0.93017 -1.705325,-0.93017 -0.799951,0 -1.246436,0.69453 -0.446484,0.69453 -0.446484,1.94717 0,1.0604 0.390674,1.66191 0.390673,0.59531 1.091406,0.59531 1.085205,0 1.916165,-1.32085 z"
         style="font-style:normal;font-variant:normal;font-weight:normal;font-stretch:normal;font-size:12.69999981px;line-height:1.79999995;font-family:'Lucida Console';-inkscape-font-specification:'Lucida Console';text-align:center;letter-spacing:12.17083359px;text-anchor:middle;fill:#ffffff;fill-opacity:1;stroke:none;stroke-width:0.26458332;stroke-opacity:1"
         id="path4643" />
      <path
         d="m 117.1443,249.47742 v -9.79165 h 1.22163 v 3.05717 1.26504 q 0.84336,-1.41387 2.29443,-1.41387 1.91616,0 1.91616,2.27583 v 4.60748 h -1.22163 v -4.27261 q 0,-0.78755 -0.24805,-1.11621 -0.24184,-0.33487 -0.81855,-0.33487 -0.91777,0 -1.92236,1.32085 v 4.40284 z"
         style="font-style:normal;font-variant:normal;font-weight:normal;font-stretch:normal;font-size:12.69999981px;line-height:1.79999995;font-family:'Lucida Console';-inkscape-font-specification:'Lucida Console';text-align:center;letter-spacing:12.17083359px;text-anchor:middle;fill:#ffffff;fill-opacity:1;stroke:none;stroke-width:0.26458332;stroke-opacity:1"
         id="path4645" />
      <path
         d="m 136.76894,251.75325 v -1.0232 q 0.95498,0.43408 1.89135,0.43408 0.78135,0 1.0666,-0.39687 0.29146,-0.39067 0.29146,-1.45728 v -5.64926 h -2.75332 v -0.91778 h 3.97495 v 6.319 q 0,1.56889 -0.62012,2.28823 -0.61391,0.72554 -1.95957,0.72554 -0.88056,0 -1.89135,-0.32246 z m 3.09438,-10.5358 v -1.53168 h 1.53169 v 1.53168 z"
         style="font-style:normal;font-variant:normal;font-weight:normal;font-stretch:normal;font-size:12.69999981px;line-height:1.79999995;font-family:'Lucida Console';-inkscape-font-specification:'Lucida Console';text-align:center;letter-spacing:12.17083359px;text-anchor:middle;fill:#ffffff;fill-opacity:1;stroke:none;stroke-width:0.26458332;stroke-opacity:1"
         id="path4647" />
      <path
         d="m 157.00749,249.47742 v -9.79165 h 1.22163 v 6.26938 l 2.82774,-3.21221 h 1.32085 l -2.66031,3.03238 3.33623,3.7021 h -1.64951 l -3.175,-3.52227 v 3.52227 z"
         style="font-style:normal;font-variant:normal;font-weight:normal;font-stretch:normal;font-size:12.69999981px;line-height:1.79999995;font-family:'Lucida Console';-inkscape-font-specification:'Lucida Console';text-align:center;letter-spacing:12.17083359px;text-anchor:middle;fill:#ffffff;fill-opacity:1;stroke:none;stroke-width:0.26458332;stroke-opacity:1"
         id="path4649" />
      <path
         d="m 179.19321,249.47742 v -8.87388 h -2.59829 v -0.91777 h 3.82613 v 9.79165 z"
         style="font-style:normal;font-variant:normal;font-weight:normal;font-stretch:normal;font-size:12.69999981px;line-height:1.79999995;font-family:'Lucida Console';-inkscape-font-specification:'Lucida Console';text-align:center;letter-spacing:12.17083359px;text-anchor:middle;fill:#ffffff;fill-opacity:1;stroke:none;stroke-width:0.26458332;stroke-opacity:1"
         id="path4651" />
      <path
         d="m 37.517109,272.33741 v -0.91777 l 4.409033,-4.89892 h -4.254003 v -0.91778 h 5.698876 v 0.91778 l -4.415234,4.89892 h 4.526856 v 0.91777 z"
         style="font-style:normal;font-variant:normal;font-weight:normal;font-stretch:normal;font-size:12.69999981px;line-height:1.79999995;font-family:'Lucida Console';-inkscape-font-specification:'Lucida Console';text-align:center;letter-spacing:12.17083359px;text-anchor:middle;fill:#ffffff;fill-opacity:1;stroke:none;stroke-width:0.26458332;stroke-opacity:1"
         id="path4653" />
      <path
         d="m 57.085941,272.33741 2.505273,-3.40444 -2.492871,-3.33003 h 1.531689 l 1.860352,2.48667 1.705322,-2.48667 h 1.209229 l -2.288233,3.32383 2.548682,3.41064 h -1.525488 l -1.928565,-2.57348 -1.891357,2.57348 z"
         style="font-style:normal;font-variant:normal;font-weight:normal;font-stretch:normal;font-size:12.69999981px;line-height:1.79999995;font-family:'Lucida Console';-inkscape-font-specification:'Lucida Console';text-align:center;letter-spacing:12.17083359px;text-anchor:middle;fill:#ffffff;fill-opacity:1;stroke:none;stroke-width:0.26458332;stroke-opacity:1"
         id="path4655" />
      <path
         d="m 83.184606,272.12037 q -1.085205,0.37207 -2.164209,0.37207 -1.761133,0 -2.716113,-0.91777 -0.94878,-0.91777 -0.94878,-2.60449 0,-1.65571 0.936377,-2.58589 0.942578,-0.93018 2.616895,-0.93018 1.066601,0 2.151806,0.32246 v 1.0232 q -1.196826,-0.42788 -2.040185,-0.42788 -1.103809,0 -1.736328,0.69453 -0.626319,0.69453 -0.626319,1.90376 0,1.22163 0.669727,1.91616 0.675928,0.68833 1.860351,0.68833 0.886768,0 1.996778,-0.41548 z"
         style="font-style:normal;font-variant:normal;font-weight:normal;font-stretch:normal;font-size:12.69999981px;line-height:1.79999995;font-family:'Lucida Console';-inkscape-font-specification:'Lucida Console';text-align:center;letter-spacing:12.17083359px;text-anchor:middle;fill:#ffffff;fill-opacity:1;stroke:none;stroke-width:0.26458332;stroke-opacity:1"
         id="path4657" />
      <path
         d="m 99.355197,272.33741 -2.790528,-6.73447 h 1.252637 l 2.238624,5.39502 2.30684,-5.39502 h 1.0852 l -2.86494,6.73447 z"
         style="font-style:normal;font-variant:normal;font-weight:normal;font-stretch:normal;font-size:12.69999981px;line-height:1.79999995;font-family:'Lucida Console';-inkscape-font-specification:'Lucida Console';text-align:center;letter-spacing:12.17083359px;text-anchor:middle;fill:#ffffff;fill-opacity:1;stroke:none;stroke-width:0.26458332;stroke-opacity:1"
         id="path4659" />
      <path
         d="m 117.08848,272.41183 v -9.86607 h 1.22163 v 4.32222 q 0.88677,-1.41387 2.20142,-1.41387 1.14721,0 1.80454,0.88677 0.66352,0.88057 0.66352,2.40606 0,1.67431 -0.78135,2.70991 -0.78134,1.03559 -2.04638,1.03559 -1.08521,0 -1.84175,-0.91777 l -0.30386,0.83716 z m 1.22163,-1.75493 q 0.84956,0.91777 1.67432,0.91777 0.80615,0 1.24643,-0.70693 0.44649,-0.71314 0.44649,-1.99058 0,-2.38125 -1.42007,-2.38125 -1.0356,0 -1.94717,1.28984 z"
         style="font-style:normal;font-variant:normal;font-weight:normal;font-stretch:normal;font-size:12.69999981px;line-height:1.79999995;font-family:'Lucida Console';-inkscape-font-specification:'Lucida Console';text-align:center;letter-spacing:12.17083359px;text-anchor:middle;fill:#ffffff;fill-opacity:1;stroke:none;stroke-width:0.26458332;stroke-opacity:1"
         id="path4661" />
      <path
         d="m 136.97978,272.33741 v -6.73447 h 1.22163 v 1.26504 q 0.84336,-1.41387 2.29443,-1.41387 1.91616,0 1.91616,2.27583 v 4.60747 h -1.22163 v -4.2726 q 0,-0.78755 -0.24804,-1.11621 -0.24185,-0.33487 -0.81856,-0.33487 -0.91777,0 -1.92236,1.32085 v 4.40283 z"
         style="font-style:normal;font-variant:normal;font-weight:normal;font-stretch:normal;font-size:12.69999981px;line-height:1.79999995;font-family:'Lucida Console';-inkscape-font-specification:'Lucida Console';text-align:center;letter-spacing:12.17083359px;text-anchor:middle;fill:#ffffff;fill-opacity:1;stroke:none;stroke-width:0.26458332;stroke-opacity:1"
         id="path4663" />
      <path
         d="m 156.26335,272.33741 v -6.73447 h 1.07281 v 1.26504 q 0.78754,-1.41387 1.50068,-1.41387 0.91157,0 1.17202,1.41387 h 0.0434 q 0.64492,-1.41387 1.51308,-1.41387 0.63252,0 0.91778,0.46509 0.28525,0.45889 0.28525,1.48828 v 4.92993 h -1.0728 v -4.88032 q 0,-0.5519 -0.0806,-0.75034 -0.0806,-0.19844 -0.30385,-0.19844 -0.58291,0 -1.25884,1.48208 v 4.34702 h -1.0728 v -4.65708 q 0,-0.69453 -0.0806,-0.92397 -0.0806,-0.23564 -0.32246,-0.23564 -0.26045,0 -0.62012,0.42788 -0.35346,0.42168 -0.62011,1.0542 v 4.33461 z"
         style="font-style:normal;font-variant:normal;font-weight:normal;font-stretch:normal;font-size:12.69999981px;line-height:1.79999995;font-family:'Lucida Console';-inkscape-font-specification:'Lucida Console';text-align:center;letter-spacing:12.17083359px;text-anchor:middle;fill:#ffffff;fill-opacity:1;stroke:none;stroke-width:0.26458332;stroke-opacity:1"
         id="path4665" />
    </g>
  </g>
</svg>
