<?xml version="1.0" encoding="UTF-8" standalone="no"?>
<!-- Created with Inkscape (http://www.inkscape.org/) -->

<svg
   xmlns:osb="http://www.openswatchbook.org/uri/2009/osb"
   xmlns:dc="http://purl.org/dc/elements/1.1/"
   xmlns:cc="http://creativecommons.org/ns#"
   xmlns:rdf="http://www.w3.org/1999/02/22-rdf-syntax-ns#"
   xmlns:svg="http://www.w3.org/2000/svg"
   xmlns="http://www.w3.org/2000/svg"
   xmlns:sodipodi="http://sodipodi.sourceforge.net/DTD/sodipodi-0.dtd"
   xmlns:inkscape="http://www.inkscape.org/namespaces/inkscape"
   width="200mm"
   height="150mm"
   viewBox="0 0 200 150"
   version="1.1"
   id="svg8"
   inkscape:export-filename="D:\Documents\Dropbox\Shinshu-Univ\2017\1h\HCI\SwiftKey\images\keboard-lowercases.png"
   inkscape:export-xdpi="546.81824"
   inkscape:export-ydpi="546.81824"
   inkscape:version="0.92.1 r15371"
   sodipodi:docname="plain.svg">
  <defs
     id="defs2">
    <linearGradient
       id="linearGradient5089"
       osb:paint="solid">
      <stop
         style="stop-color:#7e7e7e;stop-opacity:1;"
         offset="0"
         id="stop5087" />
    </linearGradient>
  </defs>
  <sodipodi:namedview
     id="base"
     pagecolor="#ffffff"
     bordercolor="#666666"
     borderopacity="1.0"
     inkscape:pageopacity="0.0"
     inkscape:pageshadow="2"
     inkscape:zoom="1.5857183"
     inkscape:cx="420.84141"
     inkscape:cy="246.31533"
     inkscape:document-units="mm"
     inkscape:current-layer="layer1"
     showgrid="false"
     showguides="false"
     inkscape:window-width="1920"
     inkscape:window-height="1057"
     inkscape:window-x="-8"
     inkscape:window-y="-8"
     inkscape:window-maximized="1"
     fit-margin-top="0"
     fit-margin-left="0"
     fit-margin-right="0"
     fit-margin-bottom="0">
    <sodipodi:guide
       position="-0.0030509777,-8.3923344e-005"
       orientation="0,793.70079"
       id="guide5036"
       inkscape:locked="false" />
    <sodipodi:guide
       position="209.99696,-8.3923344e-005"
       orientation="-1122.5197,0"
       id="guide5038"
       inkscape:locked="false" />
    <sodipodi:guide
       position="209.99696,296.99993"
       orientation="0,-793.70079"
       id="guide5040"
       inkscape:locked="false" />
    <sodipodi:guide
       position="-0.0030509777,296.99993"
       orientation="1122.5197,0"
       id="guide5042"
       inkscape:locked="false" />
    <inkscape:grid
       type="xygrid"
       id="grid5104"
       originx="-0.0030509777"
       originy="-8.3923345e-005" />
  </sodipodi:namedview>
  <metadata
     id="metadata5">
    <rdf:RDF>
      <cc:Work
         rdf:about="">
        <dc:format>image/svg+xml</dc:format>
        <dc:type
           rdf:resource="http://purl.org/dc/dcmitype/StillImage" />
        <dc:title />
      </cc:Work>
    </rdf:RDF>
  </metadata>
  <g
     inkscape:label="レイヤー 1"
     inkscape:groupmode="layer"
     id="layer1"
     transform="translate(-0.00305098,-146.99991)">
    <g
       style="stroke:none;stroke-opacity:1"
       id="g5428"
       transform="translate(-5.2916631,147.10828)">
      <g
         style="stroke:none;stroke-opacity:1"
         transform="matrix(1.0752871,0,0,1.0982185,-119.30702,47.309608)"
         id="g5102">
        <path
           inkscape:connector-curvature="0"
           id="rect5085"
           d="m 120.01084,17.758663 h 11.71048 c 0.9282,0 1.67545,0.74725 1.67545,1.675448 v 12.46644 c 0,0.928198 -0.74725,1.675448 -1.67545,1.675448 h -11.71048 c -0.9282,0 -1.67545,-0.74725 -1.67545,-1.675448 v -12.46644 c 0,-0.928198 0.74725,-1.675448 1.67545,-1.675448 z"
           style="fill:#111111;fill-opacity:1;stroke:none;stroke-width:0.16766435;stroke-linejoin:round;stroke-miterlimit:4;stroke-dasharray:none;stroke-dashoffset:0;stroke-opacity:1" />
        <path
           inkscape:connector-curvature="0"
           id="rect5097"
           d="m 120.01084,16.258558 h 11.71048 c 0.9282,0 1.67545,0.74725 1.67545,1.675448 v 12.46644 c 0,0.928199 -0.74725,1.675448 -1.67545,1.675448 h -11.71048 c -0.9282,0 -1.67545,-0.747249 -1.67545,-1.675448 v -12.46644 c 0,-0.928198 0.74725,-1.675448 1.67545,-1.675448 z"
           style="fill:#4e4e4e;fill-opacity:1;stroke:none;stroke-width:0.16766435;stroke-linejoin:round;stroke-miterlimit:4;stroke-dasharray:none;stroke-dashoffset:0;stroke-opacity:1" />
        <path
           inkscape:connector-curvature="0"
           id="rect5093"
           d="m 120.01084,17.058664 h 11.71048 c 0.9282,0 1.67545,0.74725 1.67545,1.675448 v 12.46644 c 0,0.928199 -0.74725,1.675448 -1.67545,1.675448 h -11.71048 c -0.9282,0 -1.67545,-0.747249 -1.67545,-1.675448 v -12.46644 c 0,-0.928198 0.74725,-1.675448 1.67545,-1.675448 z"
           style="fill:#373737;fill-opacity:1;stroke:none;stroke-width:0.16766435;stroke-linejoin:round;stroke-miterlimit:4;stroke-dasharray:none;stroke-dashoffset:0;stroke-opacity:1" />
      </g>
      <g
         style="stroke:none;stroke-opacity:1"
         id="g5112"
         transform="matrix(1.0752871,0,0,1.0982185,-99.463266,47.309608)">
        <path
           inkscape:connector-curvature="0"
           id="rect5106"
           d="m 120.01084,17.758663 h 11.71048 c 0.9282,0 1.67545,0.74725 1.67545,1.675448 v 12.46644 c 0,0.928198 -0.74725,1.675448 -1.67545,1.675448 h -11.71048 c -0.9282,0 -1.67545,-0.74725 -1.67545,-1.675448 v -12.46644 c 0,-0.928198 0.74725,-1.675448 1.67545,-1.675448 z"
           style="fill:#111111;fill-opacity:1;stroke:none;stroke-width:0.16766435;stroke-linejoin:round;stroke-miterlimit:4;stroke-dasharray:none;stroke-dashoffset:0;stroke-opacity:1" />
        <path
           inkscape:connector-curvature="0"
           id="rect5108"
           d="m 120.01084,16.258558 h 11.71048 c 0.9282,0 1.67545,0.74725 1.67545,1.675448 v 12.46644 c 0,0.928199 -0.74725,1.675448 -1.67545,1.675448 h -11.71048 c -0.9282,0 -1.67545,-0.747249 -1.67545,-1.675448 v -12.46644 c 0,-0.928198 0.74725,-1.675448 1.67545,-1.675448 z"
           style="fill:#4e4e4e;fill-opacity:1;stroke:none;stroke-width:0.16766435;stroke-linejoin:round;stroke-miterlimit:4;stroke-dasharray:none;stroke-dashoffset:0;stroke-opacity:1" />
        <path
           inkscape:connector-curvature="0"
           id="rect5110"
           d="m 120.01084,17.058664 h 11.71048 c 0.9282,0 1.67545,0.74725 1.67545,1.675448 v 12.46644 c 0,0.928199 -0.74725,1.675448 -1.67545,1.675448 h -11.71048 c -0.9282,0 -1.67545,-0.747249 -1.67545,-1.675448 v -12.46644 c 0,-0.928198 0.74725,-1.675448 1.67545,-1.675448 z"
           style="fill:#373737;fill-opacity:1;stroke:none;stroke-width:0.16766435;stroke-linejoin:round;stroke-miterlimit:4;stroke-dasharray:none;stroke-dashoffset:0;stroke-opacity:1" />
      </g>
      <g
         style="stroke:none;stroke-opacity:1"
         transform="matrix(1.0752871,0,0,1.0982185,-79.619516,47.309608)"
         id="g5120">
        <path
           inkscape:connector-curvature="0"
           id="rect5114"
           d="m 120.01084,17.758663 h 11.71048 c 0.9282,0 1.67545,0.74725 1.67545,1.675448 v 12.46644 c 0,0.928198 -0.74725,1.675448 -1.67545,1.675448 h -11.71048 c -0.9282,0 -1.67545,-0.74725 -1.67545,-1.675448 v -12.46644 c 0,-0.928198 0.74725,-1.675448 1.67545,-1.675448 z"
           style="fill:#111111;fill-opacity:1;stroke:none;stroke-width:0.16766435;stroke-linejoin:round;stroke-miterlimit:4;stroke-dasharray:none;stroke-dashoffset:0;stroke-opacity:1" />
        <path
           inkscape:connector-curvature="0"
           id="rect5116"
           d="m 120.01084,16.258558 h 11.71048 c 0.9282,0 1.67545,0.74725 1.67545,1.675448 v 12.46644 c 0,0.928199 -0.74725,1.675448 -1.67545,1.675448 h -11.71048 c -0.9282,0 -1.67545,-0.747249 -1.67545,-1.675448 v -12.46644 c 0,-0.928198 0.74725,-1.675448 1.67545,-1.675448 z"
           style="fill:#4e4e4e;fill-opacity:1;stroke:none;stroke-width:0.16766435;stroke-linejoin:round;stroke-miterlimit:4;stroke-dasharray:none;stroke-dashoffset:0;stroke-opacity:1" />
        <path
           inkscape:connector-curvature="0"
           id="rect5118"
           d="m 120.01084,17.058664 h 11.71048 c 0.9282,0 1.67545,0.74725 1.67545,1.675448 v 12.46644 c 0,0.928199 -0.74725,1.675448 -1.67545,1.675448 h -11.71048 c -0.9282,0 -1.67545,-0.747249 -1.67545,-1.675448 v -12.46644 c 0,-0.928198 0.74725,-1.675448 1.67545,-1.675448 z"
           style="fill:#373737;fill-opacity:1;stroke:none;stroke-width:0.16766435;stroke-linejoin:round;stroke-miterlimit:4;stroke-dasharray:none;stroke-dashoffset:0;stroke-opacity:1" />
      </g>
      <g
         style="stroke:none;stroke-opacity:1"
         id="g5128"
         transform="matrix(1.0752871,0,0,1.0982185,-59.775766,47.309608)">
        <path
           inkscape:connector-curvature="0"
           id="rect5122"
           d="m 120.01084,17.758663 h 11.71048 c 0.9282,0 1.67545,0.74725 1.67545,1.675448 v 12.46644 c 0,0.928198 -0.74725,1.675448 -1.67545,1.675448 h -11.71048 c -0.9282,0 -1.67545,-0.74725 -1.67545,-1.675448 v -12.46644 c 0,-0.928198 0.74725,-1.675448 1.67545,-1.675448 z"
           style="fill:#111111;fill-opacity:1;stroke:none;stroke-width:0.16766435;stroke-linejoin:round;stroke-miterlimit:4;stroke-dasharray:none;stroke-dashoffset:0;stroke-opacity:1" />
        <path
           inkscape:connector-curvature="0"
           id="rect5124"
           d="m 120.01084,16.258558 h 11.71048 c 0.9282,0 1.67545,0.74725 1.67545,1.675448 v 12.46644 c 0,0.928199 -0.74725,1.675448 -1.67545,1.675448 h -11.71048 c -0.9282,0 -1.67545,-0.747249 -1.67545,-1.675448 v -12.46644 c 0,-0.928198 0.74725,-1.675448 1.67545,-1.675448 z"
           style="fill:#4e4e4e;fill-opacity:1;stroke:none;stroke-width:0.16766435;stroke-linejoin:round;stroke-miterlimit:4;stroke-dasharray:none;stroke-dashoffset:0;stroke-opacity:1" />
        <path
           inkscape:connector-curvature="0"
           id="rect5126"
           d="m 120.01084,17.058664 h 11.71048 c 0.9282,0 1.67545,0.74725 1.67545,1.675448 v 12.46644 c 0,0.928199 -0.74725,1.675448 -1.67545,1.675448 h -11.71048 c -0.9282,0 -1.67545,-0.747249 -1.67545,-1.675448 v -12.46644 c 0,-0.928198 0.74725,-1.675448 1.67545,-1.675448 z"
           style="fill:#373737;fill-opacity:1;stroke:none;stroke-width:0.16766435;stroke-linejoin:round;stroke-miterlimit:4;stroke-dasharray:none;stroke-dashoffset:0;stroke-opacity:1" />
      </g>
      <g
         style="stroke:none;stroke-opacity:1"
         transform="matrix(1.0752871,0,0,1.0982185,-39.932016,47.309608)"
         id="g5136">
        <path
           inkscape:connector-curvature="0"
           id="rect5130"
           d="m 120.01084,17.758663 h 11.71048 c 0.9282,0 1.67545,0.74725 1.67545,1.675448 v 12.46644 c 0,0.928198 -0.74725,1.675448 -1.67545,1.675448 h -11.71048 c -0.9282,0 -1.67545,-0.74725 -1.67545,-1.675448 v -12.46644 c 0,-0.928198 0.74725,-1.675448 1.67545,-1.675448 z"
           style="fill:#111111;fill-opacity:1;stroke:none;stroke-width:0.16766435;stroke-linejoin:round;stroke-miterlimit:4;stroke-dasharray:none;stroke-dashoffset:0;stroke-opacity:1" />
        <path
           inkscape:connector-curvature="0"
           id="rect5132"
           d="m 120.01084,16.258558 h 11.71048 c 0.9282,0 1.67545,0.74725 1.67545,1.675448 v 12.46644 c 0,0.928199 -0.74725,1.675448 -1.67545,1.675448 h -11.71048 c -0.9282,0 -1.67545,-0.747249 -1.67545,-1.675448 v -12.46644 c 0,-0.928198 0.74725,-1.675448 1.67545,-1.675448 z"
           style="fill:#4e4e4e;fill-opacity:1;stroke:none;stroke-width:0.16766435;stroke-linejoin:round;stroke-miterlimit:4;stroke-dasharray:none;stroke-dashoffset:0;stroke-opacity:1" />
        <path
           inkscape:connector-curvature="0"
           id="rect5134"
           d="m 120.01084,17.058664 h 11.71048 c 0.9282,0 1.67545,0.74725 1.67545,1.675448 v 12.46644 c 0,0.928199 -0.74725,1.675448 -1.67545,1.675448 h -11.71048 c -0.9282,0 -1.67545,-0.747249 -1.67545,-1.675448 v -12.46644 c 0,-0.928198 0.74725,-1.675448 1.67545,-1.675448 z"
           style="fill:#373737;fill-opacity:1;stroke:none;stroke-width:0.16766435;stroke-linejoin:round;stroke-miterlimit:4;stroke-dasharray:none;stroke-dashoffset:0;stroke-opacity:1" />
      </g>
      <g
         style="stroke:none;stroke-opacity:1"
         id="g5144"
         transform="matrix(1.0752871,0,0,1.0982185,-20.088266,47.309608)">
        <path
           inkscape:connector-curvature="0"
           id="rect5138"
           d="m 120.01084,17.758663 h 11.71048 c 0.9282,0 1.67545,0.74725 1.67545,1.675448 v 12.46644 c 0,0.928198 -0.74725,1.675448 -1.67545,1.675448 h -11.71048 c -0.9282,0 -1.67545,-0.74725 -1.67545,-1.675448 v -12.46644 c 0,-0.928198 0.74725,-1.675448 1.67545,-1.675448 z"
           style="fill:#111111;fill-opacity:1;stroke:none;stroke-width:0.16766435;stroke-linejoin:round;stroke-miterlimit:4;stroke-dasharray:none;stroke-dashoffset:0;stroke-opacity:1" />
        <path
           inkscape:connector-curvature="0"
           id="rect5140"
           d="m 120.01084,16.258558 h 11.71048 c 0.9282,0 1.67545,0.74725 1.67545,1.675448 v 12.46644 c 0,0.928199 -0.74725,1.675448 -1.67545,1.675448 h -11.71048 c -0.9282,0 -1.67545,-0.747249 -1.67545,-1.675448 v -12.46644 c 0,-0.928198 0.74725,-1.675448 1.67545,-1.675448 z"
           style="fill:#4e4e4e;fill-opacity:1;stroke:none;stroke-width:0.16766435;stroke-linejoin:round;stroke-miterlimit:4;stroke-dasharray:none;stroke-dashoffset:0;stroke-opacity:1" />
        <path
           inkscape:connector-curvature="0"
           id="rect5142"
           d="m 120.01084,17.058664 h 11.71048 c 0.9282,0 1.67545,0.74725 1.67545,1.675448 v 12.46644 c 0,0.928199 -0.74725,1.675448 -1.67545,1.675448 h -11.71048 c -0.9282,0 -1.67545,-0.747249 -1.67545,-1.675448 v -12.46644 c 0,-0.928198 0.74725,-1.675448 1.67545,-1.675448 z"
           style="fill:#373737;fill-opacity:1;stroke:none;stroke-width:0.16766435;stroke-linejoin:round;stroke-miterlimit:4;stroke-dasharray:none;stroke-dashoffset:0;stroke-opacity:1" />
      </g>
      <g
         style="stroke:none;stroke-opacity:1"
         transform="matrix(1.0752871,0,0,1.0982185,-0.24451639,47.309608)"
         id="g5152">
        <path
           inkscape:connector-curvature="0"
           id="rect5146"
           d="m 120.01084,17.758663 h 11.71048 c 0.9282,0 1.67545,0.74725 1.67545,1.675448 v 12.46644 c 0,0.928198 -0.74725,1.675448 -1.67545,1.675448 h -11.71048 c -0.9282,0 -1.67545,-0.74725 -1.67545,-1.675448 v -12.46644 c 0,-0.928198 0.74725,-1.675448 1.67545,-1.675448 z"
           style="fill:#111111;fill-opacity:1;stroke:none;stroke-width:0.16766435;stroke-linejoin:round;stroke-miterlimit:4;stroke-dasharray:none;stroke-dashoffset:0;stroke-opacity:1" />
        <path
           inkscape:connector-curvature="0"
           id="rect5148"
           d="m 120.01084,16.258558 h 11.71048 c 0.9282,0 1.67545,0.74725 1.67545,1.675448 v 12.46644 c 0,0.928199 -0.74725,1.675448 -1.67545,1.675448 h -11.71048 c -0.9282,0 -1.67545,-0.747249 -1.67545,-1.675448 v -12.46644 c 0,-0.928198 0.74725,-1.675448 1.67545,-1.675448 z"
           style="fill:#4e4e4e;fill-opacity:1;stroke:none;stroke-width:0.16766435;stroke-linejoin:round;stroke-miterlimit:4;stroke-dasharray:none;stroke-dashoffset:0;stroke-opacity:1" />
        <path
           inkscape:connector-curvature="0"
           id="rect5150"
           d="m 120.01084,17.058664 h 11.71048 c 0.9282,0 1.67545,0.74725 1.67545,1.675448 v 12.46644 c 0,0.928199 -0.74725,1.675448 -1.67545,1.675448 h -11.71048 c -0.9282,0 -1.67545,-0.747249 -1.67545,-1.675448 v -12.46644 c 0,-0.928198 0.74725,-1.675448 1.67545,-1.675448 z"
           style="fill:#373737;fill-opacity:1;stroke:none;stroke-width:0.16766435;stroke-linejoin:round;stroke-miterlimit:4;stroke-dasharray:none;stroke-dashoffset:0;stroke-opacity:1" />
      </g>
      <g
         style="stroke:none;stroke-opacity:1"
         id="g5160"
         transform="matrix(1.0752871,0,0,1.0982185,19.599234,47.309608)">
        <path
           inkscape:connector-curvature="0"
           id="rect5154"
           d="m 120.01084,17.758663 h 11.71048 c 0.9282,0 1.67545,0.74725 1.67545,1.675448 v 12.46644 c 0,0.928198 -0.74725,1.675448 -1.67545,1.675448 h -11.71048 c -0.9282,0 -1.67545,-0.74725 -1.67545,-1.675448 v -12.46644 c 0,-0.928198 0.74725,-1.675448 1.67545,-1.675448 z"
           style="fill:#111111;fill-opacity:1;stroke:none;stroke-width:0.16766435;stroke-linejoin:round;stroke-miterlimit:4;stroke-dasharray:none;stroke-dashoffset:0;stroke-opacity:1" />
        <path
           inkscape:connector-curvature="0"
           id="rect5156"
           d="m 120.01084,16.258558 h 11.71048 c 0.9282,0 1.67545,0.74725 1.67545,1.675448 v 12.46644 c 0,0.928199 -0.74725,1.675448 -1.67545,1.675448 h -11.71048 c -0.9282,0 -1.67545,-0.747249 -1.67545,-1.675448 v -12.46644 c 0,-0.928198 0.74725,-1.675448 1.67545,-1.675448 z"
           style="fill:#4e4e4e;fill-opacity:1;stroke:none;stroke-width:0.16766435;stroke-linejoin:round;stroke-miterlimit:4;stroke-dasharray:none;stroke-dashoffset:0;stroke-opacity:1" />
        <path
           inkscape:connector-curvature="0"
           id="rect5158"
           d="m 120.01084,17.058664 h 11.71048 c 0.9282,0 1.67545,0.74725 1.67545,1.675448 v 12.46644 c 0,0.928199 -0.74725,1.675448 -1.67545,1.675448 h -11.71048 c -0.9282,0 -1.67545,-0.747249 -1.67545,-1.675448 v -12.46644 c 0,-0.928198 0.74725,-1.675448 1.67545,-1.675448 z"
           style="fill:#373737;fill-opacity:1;stroke:none;stroke-width:0.16766435;stroke-linejoin:round;stroke-miterlimit:4;stroke-dasharray:none;stroke-dashoffset:0;stroke-opacity:1" />
      </g>
      <g
         style="stroke:none;stroke-opacity:1"
         id="g5168"
         transform="matrix(1.0752871,0,0,1.0982185,-108.72368,71.122108)">
        <path
           inkscape:connector-curvature="0"
           id="rect5162"
           d="m 120.01084,17.758663 h 11.71048 c 0.9282,0 1.67545,0.74725 1.67545,1.675448 v 12.46644 c 0,0.928198 -0.74725,1.675448 -1.67545,1.675448 h -11.71048 c -0.9282,0 -1.67545,-0.74725 -1.67545,-1.675448 v -12.46644 c 0,-0.928198 0.74725,-1.675448 1.67545,-1.675448 z"
           style="fill:#111111;fill-opacity:1;stroke:none;stroke-width:0.16766435;stroke-linejoin:round;stroke-miterlimit:4;stroke-dasharray:none;stroke-dashoffset:0;stroke-opacity:1" />
        <path
           inkscape:connector-curvature="0"
           id="rect5164"
           d="m 120.01084,16.258558 h 11.71048 c 0.9282,0 1.67545,0.74725 1.67545,1.675448 v 12.46644 c 0,0.928199 -0.74725,1.675448 -1.67545,1.675448 h -11.71048 c -0.9282,0 -1.67545,-0.747249 -1.67545,-1.675448 v -12.46644 c 0,-0.928198 0.74725,-1.675448 1.67545,-1.675448 z"
           style="fill:#4e4e4e;fill-opacity:1;stroke:none;stroke-width:0.16766435;stroke-linejoin:round;stroke-miterlimit:4;stroke-dasharray:none;stroke-dashoffset:0;stroke-opacity:1" />
        <path
           inkscape:connector-curvature="0"
           id="rect5166"
           d="m 120.01084,17.058664 h 11.71048 c 0.9282,0 1.67545,0.74725 1.67545,1.675448 v 12.46644 c 0,0.928199 -0.74725,1.675448 -1.67545,1.675448 h -11.71048 c -0.9282,0 -1.67545,-0.747249 -1.67545,-1.675448 v -12.46644 c 0,-0.928198 0.74725,-1.675448 1.67545,-1.675448 z"
           style="fill:#373737;fill-opacity:1;stroke:none;stroke-width:0.16766435;stroke-linejoin:round;stroke-miterlimit:4;stroke-dasharray:none;stroke-dashoffset:0;stroke-opacity:1" />
      </g>
      <g
         style="stroke:none;stroke-opacity:1"
         transform="matrix(1.0752871,0,0,1.0982185,-88.879933,93.611691)"
         id="g5176">
        <path
           inkscape:connector-curvature="0"
           id="rect5170"
           d="m 120.01084,17.758663 h 11.71048 c 0.9282,0 1.67545,0.74725 1.67545,1.675448 v 12.46644 c 0,0.928198 -0.74725,1.675448 -1.67545,1.675448 h -11.71048 c -0.9282,0 -1.67545,-0.74725 -1.67545,-1.675448 v -12.46644 c 0,-0.928198 0.74725,-1.675448 1.67545,-1.675448 z"
           style="fill:#111111;fill-opacity:1;stroke:none;stroke-width:0.16766435;stroke-linejoin:round;stroke-miterlimit:4;stroke-dasharray:none;stroke-dashoffset:0;stroke-opacity:1" />
        <path
           inkscape:connector-curvature="0"
           id="rect5172"
           d="m 120.01084,16.258558 h 11.71048 c 0.9282,0 1.67545,0.74725 1.67545,1.675448 v 12.46644 c 0,0.928199 -0.74725,1.675448 -1.67545,1.675448 h -11.71048 c -0.9282,0 -1.67545,-0.747249 -1.67545,-1.675448 v -12.46644 c 0,-0.928198 0.74725,-1.675448 1.67545,-1.675448 z"
           style="fill:#4e4e4e;fill-opacity:1;stroke:none;stroke-width:0.16766435;stroke-linejoin:round;stroke-miterlimit:4;stroke-dasharray:none;stroke-dashoffset:0;stroke-opacity:1" />
        <path
           inkscape:connector-curvature="0"
           id="rect5174"
           d="m 120.01084,17.058664 h 11.71048 c 0.9282,0 1.67545,0.74725 1.67545,1.675448 v 12.46644 c 0,0.928199 -0.74725,1.675448 -1.67545,1.675448 h -11.71048 c -0.9282,0 -1.67545,-0.747249 -1.67545,-1.675448 v -12.46644 c 0,-0.928198 0.74725,-1.675448 1.67545,-1.675448 z"
           style="fill:#373737;fill-opacity:1;stroke:none;stroke-width:0.16766435;stroke-linejoin:round;stroke-miterlimit:4;stroke-dasharray:none;stroke-dashoffset:0;stroke-opacity:1" />
      </g>
      <g
         style="stroke:none;stroke-opacity:1"
         id="g5191"
         transform="matrix(1.0752871,0,0,1.0982185,39.442984,47.309608)">
        <path
           inkscape:connector-curvature="0"
           id="rect5185"
           d="m 120.01084,17.758663 h 11.71048 c 0.9282,0 1.67545,0.74725 1.67545,1.675448 v 12.46644 c 0,0.928198 -0.74725,1.675448 -1.67545,1.675448 h -11.71048 c -0.9282,0 -1.67545,-0.74725 -1.67545,-1.675448 v -12.46644 c 0,-0.928198 0.74725,-1.675448 1.67545,-1.675448 z"
           style="fill:#111111;fill-opacity:1;stroke:none;stroke-width:0.16766435;stroke-linejoin:round;stroke-miterlimit:4;stroke-dasharray:none;stroke-dashoffset:0;stroke-opacity:1" />
        <path
           inkscape:connector-curvature="0"
           id="rect5187"
           d="m 120.01084,16.258558 h 11.71048 c 0.9282,0 1.67545,0.74725 1.67545,1.675448 v 12.46644 c 0,0.928199 -0.74725,1.675448 -1.67545,1.675448 h -11.71048 c -0.9282,0 -1.67545,-0.747249 -1.67545,-1.675448 v -12.46644 c 0,-0.928198 0.74725,-1.675448 1.67545,-1.675448 z"
           style="fill:#4e4e4e;fill-opacity:1;stroke:none;stroke-width:0.16766435;stroke-linejoin:round;stroke-miterlimit:4;stroke-dasharray:none;stroke-dashoffset:0;stroke-opacity:1" />
        <path
           inkscape:connector-curvature="0"
           id="rect5189"
           d="m 120.01084,17.058664 h 11.71048 c 0.9282,0 1.67545,0.74725 1.67545,1.675448 v 12.46644 c 0,0.928199 -0.74725,1.675448 -1.67545,1.675448 h -11.71048 c -0.9282,0 -1.67545,-0.747249 -1.67545,-1.675448 v -12.46644 c 0,-0.928198 0.74725,-1.675448 1.67545,-1.675448 z"
           style="fill:#373737;fill-opacity:1;stroke:none;stroke-width:0.16766435;stroke-linejoin:round;stroke-miterlimit:4;stroke-dasharray:none;stroke-dashoffset:0;stroke-opacity:1" />
      </g>
      <g
         style="stroke:none;stroke-opacity:1"
         transform="matrix(1.0752871,0,0,1.0982185,59.286734,47.309608)"
         id="g5199">
        <path
           inkscape:connector-curvature="0"
           id="rect5193"
           d="m 120.01084,17.758663 h 11.71048 c 0.9282,0 1.67545,0.74725 1.67545,1.675448 v 12.46644 c 0,0.928198 -0.74725,1.675448 -1.67545,1.675448 h -11.71048 c -0.9282,0 -1.67545,-0.74725 -1.67545,-1.675448 v -12.46644 c 0,-0.928198 0.74725,-1.675448 1.67545,-1.675448 z"
           style="fill:#111111;fill-opacity:1;stroke:none;stroke-width:0.16766435;stroke-linejoin:round;stroke-miterlimit:4;stroke-dasharray:none;stroke-dashoffset:0;stroke-opacity:1" />
        <path
           inkscape:connector-curvature="0"
           id="rect5195"
           d="m 120.01084,16.258558 h 11.71048 c 0.9282,0 1.67545,0.74725 1.67545,1.675448 v 12.46644 c 0,0.928199 -0.74725,1.675448 -1.67545,1.675448 h -11.71048 c -0.9282,0 -1.67545,-0.747249 -1.67545,-1.675448 v -12.46644 c 0,-0.928198 0.74725,-1.675448 1.67545,-1.675448 z"
           style="fill:#4e4e4e;fill-opacity:1;stroke:none;stroke-width:0.16766435;stroke-linejoin:round;stroke-miterlimit:4;stroke-dasharray:none;stroke-dashoffset:0;stroke-opacity:1" />
        <path
           inkscape:connector-curvature="0"
           id="rect5197"
           d="m 120.01084,17.058664 h 11.71048 c 0.9282,0 1.67545,0.74725 1.67545,1.675448 v 12.46644 c 0,0.928199 -0.74725,1.675448 -1.67545,1.675448 h -11.71048 c -0.9282,0 -1.67545,-0.747249 -1.67545,-1.675448 v -12.46644 c 0,-0.928198 0.74725,-1.675448 1.67545,-1.675448 z"
           style="fill:#373737;fill-opacity:1;stroke:none;stroke-width:0.16766435;stroke-linejoin:round;stroke-miterlimit:4;stroke-dasharray:none;stroke-dashoffset:0;stroke-opacity:1" />
      </g>
      <g
         style="stroke:none;stroke-opacity:1"
         transform="matrix(1.0752871,0,0,1.0982185,-88.879933,71.122108)"
         id="g5207">
        <path
           inkscape:connector-curvature="0"
           id="rect5201"
           d="m 120.01084,17.758663 h 11.71048 c 0.9282,0 1.67545,0.74725 1.67545,1.675448 v 12.46644 c 0,0.928198 -0.74725,1.675448 -1.67545,1.675448 h -11.71048 c -0.9282,0 -1.67545,-0.74725 -1.67545,-1.675448 v -12.46644 c 0,-0.928198 0.74725,-1.675448 1.67545,-1.675448 z"
           style="fill:#111111;fill-opacity:1;stroke:none;stroke-width:0.16766435;stroke-linejoin:round;stroke-miterlimit:4;stroke-dasharray:none;stroke-dashoffset:0;stroke-opacity:1" />
        <path
           inkscape:connector-curvature="0"
           id="rect5203"
           d="m 120.01084,16.258558 h 11.71048 c 0.9282,0 1.67545,0.74725 1.67545,1.675448 v 12.46644 c 0,0.928199 -0.74725,1.675448 -1.67545,1.675448 h -11.71048 c -0.9282,0 -1.67545,-0.747249 -1.67545,-1.675448 v -12.46644 c 0,-0.928198 0.74725,-1.675448 1.67545,-1.675448 z"
           style="fill:#4e4e4e;fill-opacity:1;stroke:none;stroke-width:0.16766435;stroke-linejoin:round;stroke-miterlimit:4;stroke-dasharray:none;stroke-dashoffset:0;stroke-opacity:1" />
        <path
           inkscape:connector-curvature="0"
           id="rect5205"
           d="m 120.01084,17.058664 h 11.71048 c 0.9282,0 1.67545,0.74725 1.67545,1.675448 v 12.46644 c 0,0.928199 -0.74725,1.675448 -1.67545,1.675448 h -11.71048 c -0.9282,0 -1.67545,-0.747249 -1.67545,-1.675448 v -12.46644 c 0,-0.928198 0.74725,-1.675448 1.67545,-1.675448 z"
           style="fill:#373737;fill-opacity:1;stroke:none;stroke-width:0.16766435;stroke-linejoin:round;stroke-miterlimit:4;stroke-dasharray:none;stroke-dashoffset:0;stroke-opacity:1" />
      </g>
      <g
         style="stroke:none;stroke-opacity:1"
         id="g5215"
         transform="matrix(1.0752871,0,0,1.0982185,-69.036183,71.122108)">
        <path
           inkscape:connector-curvature="0"
           id="rect5209"
           d="m 120.01084,17.758663 h 11.71048 c 0.9282,0 1.67545,0.74725 1.67545,1.675448 v 12.46644 c 0,0.928198 -0.74725,1.675448 -1.67545,1.675448 h -11.71048 c -0.9282,0 -1.67545,-0.74725 -1.67545,-1.675448 v -12.46644 c 0,-0.928198 0.74725,-1.675448 1.67545,-1.675448 z"
           style="fill:#111111;fill-opacity:1;stroke:none;stroke-width:0.16766435;stroke-linejoin:round;stroke-miterlimit:4;stroke-dasharray:none;stroke-dashoffset:0;stroke-opacity:1" />
        <path
           inkscape:connector-curvature="0"
           id="rect5211"
           d="m 120.01084,16.258558 h 11.71048 c 0.9282,0 1.67545,0.74725 1.67545,1.675448 v 12.46644 c 0,0.928199 -0.74725,1.675448 -1.67545,1.675448 h -11.71048 c -0.9282,0 -1.67545,-0.747249 -1.67545,-1.675448 v -12.46644 c 0,-0.928198 0.74725,-1.675448 1.67545,-1.675448 z"
           style="fill:#4e4e4e;fill-opacity:1;stroke:none;stroke-width:0.16766435;stroke-linejoin:round;stroke-miterlimit:4;stroke-dasharray:none;stroke-dashoffset:0;stroke-opacity:1" />
        <path
           inkscape:connector-curvature="0"
           id="rect5213"
           d="m 120.01084,17.058664 h 11.71048 c 0.9282,0 1.67545,0.74725 1.67545,1.675448 v 12.46644 c 0,0.928199 -0.74725,1.675448 -1.67545,1.675448 h -11.71048 c -0.9282,0 -1.67545,-0.747249 -1.67545,-1.675448 v -12.46644 c 0,-0.928198 0.74725,-1.675448 1.67545,-1.675448 z"
           style="fill:#373737;fill-opacity:1;stroke:none;stroke-width:0.16766435;stroke-linejoin:round;stroke-miterlimit:4;stroke-dasharray:none;stroke-dashoffset:0;stroke-opacity:1" />
      </g>
      <g
         style="stroke:none;stroke-opacity:1"
         transform="matrix(1.0752871,0,0,1.0982185,-49.192433,71.122108)"
         id="g5223">
        <path
           inkscape:connector-curvature="0"
           id="rect5217"
           d="m 120.01084,17.758663 h 11.71048 c 0.9282,0 1.67545,0.74725 1.67545,1.675448 v 12.46644 c 0,0.928198 -0.74725,1.675448 -1.67545,1.675448 h -11.71048 c -0.9282,0 -1.67545,-0.74725 -1.67545,-1.675448 v -12.46644 c 0,-0.928198 0.74725,-1.675448 1.67545,-1.675448 z"
           style="fill:#111111;fill-opacity:1;stroke:none;stroke-width:0.16766435;stroke-linejoin:round;stroke-miterlimit:4;stroke-dasharray:none;stroke-dashoffset:0;stroke-opacity:1" />
        <path
           inkscape:connector-curvature="0"
           id="rect5219"
           d="m 120.01084,16.258558 h 11.71048 c 0.9282,0 1.67545,0.74725 1.67545,1.675448 v 12.46644 c 0,0.928199 -0.74725,1.675448 -1.67545,1.675448 h -11.71048 c -0.9282,0 -1.67545,-0.747249 -1.67545,-1.675448 v -12.46644 c 0,-0.928198 0.74725,-1.675448 1.67545,-1.675448 z"
           style="fill:#4e4e4e;fill-opacity:1;stroke:none;stroke-width:0.16766435;stroke-linejoin:round;stroke-miterlimit:4;stroke-dasharray:none;stroke-dashoffset:0;stroke-opacity:1" />
        <path
           inkscape:connector-curvature="0"
           id="rect5221"
           d="m 120.01084,17.058664 h 11.71048 c 0.9282,0 1.67545,0.74725 1.67545,1.675448 v 12.46644 c 0,0.928199 -0.74725,1.675448 -1.67545,1.675448 h -11.71048 c -0.9282,0 -1.67545,-0.747249 -1.67545,-1.675448 v -12.46644 c 0,-0.928198 0.74725,-1.675448 1.67545,-1.675448 z"
           style="fill:#373737;fill-opacity:1;stroke:none;stroke-width:0.16766435;stroke-linejoin:round;stroke-miterlimit:4;stroke-dasharray:none;stroke-dashoffset:0;stroke-opacity:1" />
      </g>
      <g
         style="stroke:none;stroke-opacity:1"
         id="g5231"
         transform="matrix(1.0752871,0,0,1.0982185,-29.348684,71.122108)">
        <path
           inkscape:connector-curvature="0"
           id="rect5225"
           d="m 120.01084,17.758663 h 11.71048 c 0.9282,0 1.67545,0.74725 1.67545,1.675448 v 12.46644 c 0,0.928198 -0.74725,1.675448 -1.67545,1.675448 h -11.71048 c -0.9282,0 -1.67545,-0.74725 -1.67545,-1.675448 v -12.46644 c 0,-0.928198 0.74725,-1.675448 1.67545,-1.675448 z"
           style="fill:#111111;fill-opacity:1;stroke:none;stroke-width:0.16766435;stroke-linejoin:round;stroke-miterlimit:4;stroke-dasharray:none;stroke-dashoffset:0;stroke-opacity:1" />
        <path
           inkscape:connector-curvature="0"
           id="rect5227"
           d="m 120.01084,16.258558 h 11.71048 c 0.9282,0 1.67545,0.74725 1.67545,1.675448 v 12.46644 c 0,0.928199 -0.74725,1.675448 -1.67545,1.675448 h -11.71048 c -0.9282,0 -1.67545,-0.747249 -1.67545,-1.675448 v -12.46644 c 0,-0.928198 0.74725,-1.675448 1.67545,-1.675448 z"
           style="fill:#4e4e4e;fill-opacity:1;stroke:none;stroke-width:0.16766435;stroke-linejoin:round;stroke-miterlimit:4;stroke-dasharray:none;stroke-dashoffset:0;stroke-opacity:1" />
        <path
           inkscape:connector-curvature="0"
           id="rect5229"
           d="m 120.01084,17.058664 h 11.71048 c 0.9282,0 1.67545,0.74725 1.67545,1.675448 v 12.46644 c 0,0.928199 -0.74725,1.675448 -1.67545,1.675448 h -11.71048 c -0.9282,0 -1.67545,-0.747249 -1.67545,-1.675448 v -12.46644 c 0,-0.928198 0.74725,-1.675448 1.67545,-1.675448 z"
           style="fill:#373737;fill-opacity:1;stroke:none;stroke-width:0.16766435;stroke-linejoin:round;stroke-miterlimit:4;stroke-dasharray:none;stroke-dashoffset:0;stroke-opacity:1" />
      </g>
      <g
         style="stroke:none;stroke-opacity:1"
         transform="matrix(1.0752871,0,0,1.0982185,-9.5049337,71.122108)"
         id="g5239">
        <path
           inkscape:connector-curvature="0"
           id="rect5233"
           d="m 120.01084,17.758663 h 11.71048 c 0.9282,0 1.67545,0.74725 1.67545,1.675448 v 12.46644 c 0,0.928198 -0.74725,1.675448 -1.67545,1.675448 h -11.71048 c -0.9282,0 -1.67545,-0.74725 -1.67545,-1.675448 v -12.46644 c 0,-0.928198 0.74725,-1.675448 1.67545,-1.675448 z"
           style="fill:#111111;fill-opacity:1;stroke:none;stroke-width:0.16766435;stroke-linejoin:round;stroke-miterlimit:4;stroke-dasharray:none;stroke-dashoffset:0;stroke-opacity:1" />
        <path
           inkscape:connector-curvature="0"
           id="rect5235"
           d="m 120.01084,16.258558 h 11.71048 c 0.9282,0 1.67545,0.74725 1.67545,1.675448 v 12.46644 c 0,0.928199 -0.74725,1.675448 -1.67545,1.675448 h -11.71048 c -0.9282,0 -1.67545,-0.747249 -1.67545,-1.675448 v -12.46644 c 0,-0.928198 0.74725,-1.675448 1.67545,-1.675448 z"
           style="fill:#4e4e4e;fill-opacity:1;stroke:none;stroke-width:0.16766435;stroke-linejoin:round;stroke-miterlimit:4;stroke-dasharray:none;stroke-dashoffset:0;stroke-opacity:1" />
        <path
           inkscape:connector-curvature="0"
           id="rect5237"
           d="m 120.01084,17.058664 h 11.71048 c 0.9282,0 1.67545,0.74725 1.67545,1.675448 v 12.46644 c 0,0.928199 -0.74725,1.675448 -1.67545,1.675448 h -11.71048 c -0.9282,0 -1.67545,-0.747249 -1.67545,-1.675448 v -12.46644 c 0,-0.928198 0.74725,-1.675448 1.67545,-1.675448 z"
           style="fill:#373737;fill-opacity:1;stroke:none;stroke-width:0.16766435;stroke-linejoin:round;stroke-miterlimit:4;stroke-dasharray:none;stroke-dashoffset:0;stroke-opacity:1" />
      </g>
      <g
         style="stroke:none;stroke-opacity:1"
         transform="matrix(1.0752871,0,0,1.0982185,10.338817,71.122108)"
         id="g5247">
        <path
           inkscape:connector-curvature="0"
           id="rect5241"
           d="m 120.01084,17.758663 h 11.71048 c 0.9282,0 1.67545,0.74725 1.67545,1.675448 v 12.46644 c 0,0.928198 -0.74725,1.675448 -1.67545,1.675448 h -11.71048 c -0.9282,0 -1.67545,-0.74725 -1.67545,-1.675448 v -12.46644 c 0,-0.928198 0.74725,-1.675448 1.67545,-1.675448 z"
           style="fill:#111111;fill-opacity:1;stroke:none;stroke-width:0.16766435;stroke-linejoin:round;stroke-miterlimit:4;stroke-dasharray:none;stroke-dashoffset:0;stroke-opacity:1" />
        <path
           inkscape:connector-curvature="0"
           id="rect5243"
           d="m 120.01084,16.258558 h 11.71048 c 0.9282,0 1.67545,0.74725 1.67545,1.675448 v 12.46644 c 0,0.928199 -0.74725,1.675448 -1.67545,1.675448 h -11.71048 c -0.9282,0 -1.67545,-0.747249 -1.67545,-1.675448 v -12.46644 c 0,-0.928198 0.74725,-1.675448 1.67545,-1.675448 z"
           style="fill:#4e4e4e;fill-opacity:1;stroke:none;stroke-width:0.16766435;stroke-linejoin:round;stroke-miterlimit:4;stroke-dasharray:none;stroke-dashoffset:0;stroke-opacity:1" />
        <path
           inkscape:connector-curvature="0"
           id="rect5245"
           d="m 120.01084,17.058664 h 11.71048 c 0.9282,0 1.67545,0.74725 1.67545,1.675448 v 12.46644 c 0,0.928199 -0.74725,1.675448 -1.67545,1.675448 h -11.71048 c -0.9282,0 -1.67545,-0.747249 -1.67545,-1.675448 v -12.46644 c 0,-0.928198 0.74725,-1.675448 1.67545,-1.675448 z"
           style="fill:#373737;fill-opacity:1;stroke:none;stroke-width:0.16766435;stroke-linejoin:round;stroke-miterlimit:4;stroke-dasharray:none;stroke-dashoffset:0;stroke-opacity:1" />
      </g>
      <g
         style="stroke:none;stroke-opacity:1"
         id="g5255"
         transform="matrix(1.0752871,0,0,1.0982185,30.182567,71.122108)">
        <path
           inkscape:connector-curvature="0"
           id="rect5249"
           d="m 120.01084,17.758663 h 11.71048 c 0.9282,0 1.67545,0.74725 1.67545,1.675448 v 12.46644 c 0,0.928198 -0.74725,1.675448 -1.67545,1.675448 h -11.71048 c -0.9282,0 -1.67545,-0.74725 -1.67545,-1.675448 v -12.46644 c 0,-0.928198 0.74725,-1.675448 1.67545,-1.675448 z"
           style="fill:#111111;fill-opacity:1;stroke:none;stroke-width:0.16766435;stroke-linejoin:round;stroke-miterlimit:4;stroke-dasharray:none;stroke-dashoffset:0;stroke-opacity:1" />
        <path
           inkscape:connector-curvature="0"
           id="rect5251"
           d="m 120.01084,16.258558 h 11.71048 c 0.9282,0 1.67545,0.74725 1.67545,1.675448 v 12.46644 c 0,0.928199 -0.74725,1.675448 -1.67545,1.675448 h -11.71048 c -0.9282,0 -1.67545,-0.747249 -1.67545,-1.675448 v -12.46644 c 0,-0.928198 0.74725,-1.675448 1.67545,-1.675448 z"
           style="fill:#4e4e4e;fill-opacity:1;stroke:none;stroke-width:0.16766435;stroke-linejoin:round;stroke-miterlimit:4;stroke-dasharray:none;stroke-dashoffset:0;stroke-opacity:1" />
        <path
           inkscape:connector-curvature="0"
           id="rect5253"
           d="m 120.01084,17.058664 h 11.71048 c 0.9282,0 1.67545,0.74725 1.67545,1.675448 v 12.46644 c 0,0.928199 -0.74725,1.675448 -1.67545,1.675448 h -11.71048 c -0.9282,0 -1.67545,-0.747249 -1.67545,-1.675448 v -12.46644 c 0,-0.928198 0.74725,-1.675448 1.67545,-1.675448 z"
           style="fill:#373737;fill-opacity:1;stroke:none;stroke-width:0.16766435;stroke-linejoin:round;stroke-miterlimit:4;stroke-dasharray:none;stroke-dashoffset:0;stroke-opacity:1" />
      </g>
      <g
         style="stroke:none;stroke-opacity:1"
         transform="matrix(1.0752871,0,0,1.0982185,50.026317,71.122108)"
         id="g5263">
        <path
           inkscape:connector-curvature="0"
           id="rect5257"
           d="m 120.01084,17.758663 h 11.71048 c 0.9282,0 1.67545,0.74725 1.67545,1.675448 v 12.46644 c 0,0.928198 -0.74725,1.675448 -1.67545,1.675448 h -11.71048 c -0.9282,0 -1.67545,-0.74725 -1.67545,-1.675448 v -12.46644 c 0,-0.928198 0.74725,-1.675448 1.67545,-1.675448 z"
           style="fill:#111111;fill-opacity:1;stroke:none;stroke-width:0.16766435;stroke-linejoin:round;stroke-miterlimit:4;stroke-dasharray:none;stroke-dashoffset:0;stroke-opacity:1" />
        <path
           inkscape:connector-curvature="0"
           id="rect5259"
           d="m 120.01084,16.258558 h 11.71048 c 0.9282,0 1.67545,0.74725 1.67545,1.675448 v 12.46644 c 0,0.928199 -0.74725,1.675448 -1.67545,1.675448 h -11.71048 c -0.9282,0 -1.67545,-0.747249 -1.67545,-1.675448 v -12.46644 c 0,-0.928198 0.74725,-1.675448 1.67545,-1.675448 z"
           style="fill:#4e4e4e;fill-opacity:1;stroke:none;stroke-width:0.16766435;stroke-linejoin:round;stroke-miterlimit:4;stroke-dasharray:none;stroke-dashoffset:0;stroke-opacity:1" />
        <path
           inkscape:connector-curvature="0"
           id="rect5261"
           d="m 120.01084,17.058664 h 11.71048 c 0.9282,0 1.67545,0.74725 1.67545,1.675448 v 12.46644 c 0,0.928199 -0.74725,1.675448 -1.67545,1.675448 h -11.71048 c -0.9282,0 -1.67545,-0.747249 -1.67545,-1.675448 v -12.46644 c 0,-0.928198 0.74725,-1.675448 1.67545,-1.675448 z"
           style="fill:#373737;fill-opacity:1;stroke:none;stroke-width:0.16766435;stroke-linejoin:round;stroke-miterlimit:4;stroke-dasharray:none;stroke-dashoffset:0;stroke-opacity:1" />
      </g>
      <g
         style="stroke:none;stroke-opacity:1"
         transform="matrix(1.0752871,0,0,1.0982185,-69.036183,93.611691)"
         id="g5271">
        <path
           inkscape:connector-curvature="0"
           id="rect5265"
           d="m 120.01084,17.758663 h 11.71048 c 0.9282,0 1.67545,0.74725 1.67545,1.675448 v 12.46644 c 0,0.928198 -0.74725,1.675448 -1.67545,1.675448 h -11.71048 c -0.9282,0 -1.67545,-0.74725 -1.67545,-1.675448 v -12.46644 c 0,-0.928198 0.74725,-1.675448 1.67545,-1.675448 z"
           style="fill:#111111;fill-opacity:1;stroke:none;stroke-width:0.16766435;stroke-linejoin:round;stroke-miterlimit:4;stroke-dasharray:none;stroke-dashoffset:0;stroke-opacity:1" />
        <path
           inkscape:connector-curvature="0"
           id="rect5267"
           d="m 120.01084,16.258558 h 11.71048 c 0.9282,0 1.67545,0.74725 1.67545,1.675448 v 12.46644 c 0,0.928199 -0.74725,1.675448 -1.67545,1.675448 h -11.71048 c -0.9282,0 -1.67545,-0.747249 -1.67545,-1.675448 v -12.46644 c 0,-0.928198 0.74725,-1.675448 1.67545,-1.675448 z"
           style="fill:#4e4e4e;fill-opacity:1;stroke:none;stroke-width:0.16766435;stroke-linejoin:round;stroke-miterlimit:4;stroke-dasharray:none;stroke-dashoffset:0;stroke-opacity:1" />
        <path
           inkscape:connector-curvature="0"
           id="rect5269"
           d="m 120.01084,17.058664 h 11.71048 c 0.9282,0 1.67545,0.74725 1.67545,1.675448 v 12.46644 c 0,0.928199 -0.74725,1.675448 -1.67545,1.675448 h -11.71048 c -0.9282,0 -1.67545,-0.747249 -1.67545,-1.675448 v -12.46644 c 0,-0.928198 0.74725,-1.675448 1.67545,-1.675448 z"
           style="fill:#373737;fill-opacity:1;stroke:none;stroke-width:0.16766435;stroke-linejoin:round;stroke-miterlimit:4;stroke-dasharray:none;stroke-dashoffset:0;stroke-opacity:1" />
      </g>
      <g
         style="stroke:none;stroke-opacity:1"
         id="g5279"
         transform="matrix(1.0752871,0,0,1.0982185,-49.192433,93.611691)">
        <path
           inkscape:connector-curvature="0"
           id="rect5273"
           d="m 120.01084,17.758663 h 11.71048 c 0.9282,0 1.67545,0.74725 1.67545,1.675448 v 12.46644 c 0,0.928198 -0.74725,1.675448 -1.67545,1.675448 h -11.71048 c -0.9282,0 -1.67545,-0.74725 -1.67545,-1.675448 v -12.46644 c 0,-0.928198 0.74725,-1.675448 1.67545,-1.675448 z"
           style="fill:#111111;fill-opacity:1;stroke:none;stroke-width:0.16766435;stroke-linejoin:round;stroke-miterlimit:4;stroke-dasharray:none;stroke-dashoffset:0;stroke-opacity:1" />
        <path
           inkscape:connector-curvature="0"
           id="rect5275"
           d="m 120.01084,16.258558 h 11.71048 c 0.9282,0 1.67545,0.74725 1.67545,1.675448 v 12.46644 c 0,0.928199 -0.74725,1.675448 -1.67545,1.675448 h -11.71048 c -0.9282,0 -1.67545,-0.747249 -1.67545,-1.675448 v -12.46644 c 0,-0.928198 0.74725,-1.675448 1.67545,-1.675448 z"
           style="fill:#4e4e4e;fill-opacity:1;stroke:none;stroke-width:0.16766435;stroke-linejoin:round;stroke-miterlimit:4;stroke-dasharray:none;stroke-dashoffset:0;stroke-opacity:1" />
        <path
           inkscape:connector-curvature="0"
           id="rect5277"
           d="m 120.01084,17.058664 h 11.71048 c 0.9282,0 1.67545,0.74725 1.67545,1.675448 v 12.46644 c 0,0.928199 -0.74725,1.675448 -1.67545,1.675448 h -11.71048 c -0.9282,0 -1.67545,-0.747249 -1.67545,-1.675448 v -12.46644 c 0,-0.928198 0.74725,-1.675448 1.67545,-1.675448 z"
           style="fill:#373737;fill-opacity:1;stroke:none;stroke-width:0.16766435;stroke-linejoin:round;stroke-miterlimit:4;stroke-dasharray:none;stroke-dashoffset:0;stroke-opacity:1" />
      </g>
      <g
         style="stroke:none;stroke-opacity:1"
         transform="matrix(1.0752871,0,0,1.0982185,-29.348684,93.611691)"
         id="g5287">
        <path
           inkscape:connector-curvature="0"
           id="rect5281"
           d="m 120.01084,17.758663 h 11.71048 c 0.9282,0 1.67545,0.74725 1.67545,1.675448 v 12.46644 c 0,0.928198 -0.74725,1.675448 -1.67545,1.675448 h -11.71048 c -0.9282,0 -1.67545,-0.74725 -1.67545,-1.675448 v -12.46644 c 0,-0.928198 0.74725,-1.675448 1.67545,-1.675448 z"
           style="fill:#111111;fill-opacity:1;stroke:none;stroke-width:0.16766435;stroke-linejoin:round;stroke-miterlimit:4;stroke-dasharray:none;stroke-dashoffset:0;stroke-opacity:1" />
        <path
           inkscape:connector-curvature="0"
           id="rect5283"
           d="m 120.01084,16.258558 h 11.71048 c 0.9282,0 1.67545,0.74725 1.67545,1.675448 v 12.46644 c 0,0.928199 -0.74725,1.675448 -1.67545,1.675448 h -11.71048 c -0.9282,0 -1.67545,-0.747249 -1.67545,-1.675448 v -12.46644 c 0,-0.928198 0.74725,-1.675448 1.67545,-1.675448 z"
           style="fill:#4e4e4e;fill-opacity:1;stroke:none;stroke-width:0.16766435;stroke-linejoin:round;stroke-miterlimit:4;stroke-dasharray:none;stroke-dashoffset:0;stroke-opacity:1" />
        <path
           inkscape:connector-curvature="0"
           id="rect5285"
           d="m 120.01084,17.058664 h 11.71048 c 0.9282,0 1.67545,0.74725 1.67545,1.675448 v 12.46644 c 0,0.928199 -0.74725,1.675448 -1.67545,1.675448 h -11.71048 c -0.9282,0 -1.67545,-0.747249 -1.67545,-1.675448 v -12.46644 c 0,-0.928198 0.74725,-1.675448 1.67545,-1.675448 z"
           style="fill:#373737;fill-opacity:1;stroke:none;stroke-width:0.16766435;stroke-linejoin:round;stroke-miterlimit:4;stroke-dasharray:none;stroke-dashoffset:0;stroke-opacity:1" />
      </g>
      <g
         style="stroke:none;stroke-opacity:1"
         id="g5295"
         transform="matrix(1.0752871,0,0,1.0982185,-9.5049334,93.611691)">
        <path
           inkscape:connector-curvature="0"
           id="rect5289"
           d="m 120.01084,17.758663 h 11.71048 c 0.9282,0 1.67545,0.74725 1.67545,1.675448 v 12.46644 c 0,0.928198 -0.74725,1.675448 -1.67545,1.675448 h -11.71048 c -0.9282,0 -1.67545,-0.74725 -1.67545,-1.675448 v -12.46644 c 0,-0.928198 0.74725,-1.675448 1.67545,-1.675448 z"
           style="fill:#111111;fill-opacity:1;stroke:none;stroke-width:0.16766435;stroke-linejoin:round;stroke-miterlimit:4;stroke-dasharray:none;stroke-dashoffset:0;stroke-opacity:1" />
        <path
           inkscape:connector-curvature="0"
           id="rect5291"
           d="m 120.01084,16.258558 h 11.71048 c 0.9282,0 1.67545,0.74725 1.67545,1.675448 v 12.46644 c 0,0.928199 -0.74725,1.675448 -1.67545,1.675448 h -11.71048 c -0.9282,0 -1.67545,-0.747249 -1.67545,-1.675448 v -12.46644 c 0,-0.928198 0.74725,-1.675448 1.67545,-1.675448 z"
           style="fill:#4e4e4e;fill-opacity:1;stroke:none;stroke-width:0.16766435;stroke-linejoin:round;stroke-miterlimit:4;stroke-dasharray:none;stroke-dashoffset:0;stroke-opacity:1" />
        <path
           inkscape:connector-curvature="0"
           id="rect5293"
           d="m 120.01084,17.058664 h 11.71048 c 0.9282,0 1.67545,0.74725 1.67545,1.675448 v 12.46644 c 0,0.928199 -0.74725,1.675448 -1.67545,1.675448 h -11.71048 c -0.9282,0 -1.67545,-0.747249 -1.67545,-1.675448 v -12.46644 c 0,-0.928198 0.74725,-1.675448 1.67545,-1.675448 z"
           style="fill:#373737;fill-opacity:1;stroke:none;stroke-width:0.16766435;stroke-linejoin:round;stroke-miterlimit:4;stroke-dasharray:none;stroke-dashoffset:0;stroke-opacity:1" />
      </g>
      <g
         style="stroke:none;stroke-opacity:1"
         id="g5303"
         transform="matrix(1.0752871,0,0,1.0982185,10.338817,93.611691)">
        <path
           inkscape:connector-curvature="0"
           id="rect5297"
           d="m 120.01084,17.758663 h 11.71048 c 0.9282,0 1.67545,0.74725 1.67545,1.675448 v 12.46644 c 0,0.928198 -0.74725,1.675448 -1.67545,1.675448 h -11.71048 c -0.9282,0 -1.67545,-0.74725 -1.67545,-1.675448 v -12.46644 c 0,-0.928198 0.74725,-1.675448 1.67545,-1.675448 z"
           style="fill:#111111;fill-opacity:1;stroke:none;stroke-width:0.16766435;stroke-linejoin:round;stroke-miterlimit:4;stroke-dasharray:none;stroke-dashoffset:0;stroke-opacity:1" />
        <path
           inkscape:connector-curvature="0"
           id="rect5299"
           d="m 120.01084,16.258558 h 11.71048 c 0.9282,0 1.67545,0.74725 1.67545,1.675448 v 12.46644 c 0,0.928199 -0.74725,1.675448 -1.67545,1.675448 h -11.71048 c -0.9282,0 -1.67545,-0.747249 -1.67545,-1.675448 v -12.46644 c 0,-0.928198 0.74725,-1.675448 1.67545,-1.675448 z"
           style="fill:#4e4e4e;fill-opacity:1;stroke:none;stroke-width:0.16766435;stroke-linejoin:round;stroke-miterlimit:4;stroke-dasharray:none;stroke-dashoffset:0;stroke-opacity:1" />
        <path
           inkscape:connector-curvature="0"
           id="rect5301"
           d="m 120.01084,17.058664 h 11.71048 c 0.9282,0 1.67545,0.74725 1.67545,1.675448 v 12.46644 c 0,0.928199 -0.74725,1.675448 -1.67545,1.675448 h -11.71048 c -0.9282,0 -1.67545,-0.747249 -1.67545,-1.675448 v -12.46644 c 0,-0.928198 0.74725,-1.675448 1.67545,-1.675448 z"
           style="fill:#373737;fill-opacity:1;stroke:none;stroke-width:0.16766435;stroke-linejoin:round;stroke-miterlimit:4;stroke-dasharray:none;stroke-dashoffset:0;stroke-opacity:1" />
      </g>
      <g
         style="stroke:none;stroke-opacity:1"
         transform="matrix(1.0752871,0,0,1.0982185,30.182567,93.611691)"
         id="g5311">
        <path
           inkscape:connector-curvature="0"
           id="rect5305"
           d="m 120.01084,17.758663 h 11.71048 c 0.9282,0 1.67545,0.74725 1.67545,1.675448 v 12.46644 c 0,0.928198 -0.74725,1.675448 -1.67545,1.675448 h -11.71048 c -0.9282,0 -1.67545,-0.74725 -1.67545,-1.675448 v -12.46644 c 0,-0.928198 0.74725,-1.675448 1.67545,-1.675448 z"
           style="fill:#111111;fill-opacity:1;stroke:none;stroke-width:0.16766435;stroke-linejoin:round;stroke-miterlimit:4;stroke-dasharray:none;stroke-dashoffset:0;stroke-opacity:1" />
        <path
           inkscape:connector-curvature="0"
           id="rect5307"
           d="m 120.01084,16.258558 h 11.71048 c 0.9282,0 1.67545,0.74725 1.67545,1.675448 v 12.46644 c 0,0.928199 -0.74725,1.675448 -1.67545,1.675448 h -11.71048 c -0.9282,0 -1.67545,-0.747249 -1.67545,-1.675448 v -12.46644 c 0,-0.928198 0.74725,-1.675448 1.67545,-1.675448 z"
           style="fill:#4e4e4e;fill-opacity:1;stroke:none;stroke-width:0.16766435;stroke-linejoin:round;stroke-miterlimit:4;stroke-dasharray:none;stroke-dashoffset:0;stroke-opacity:1" />
        <path
           inkscape:connector-curvature="0"
           id="rect5309"
           d="m 120.01084,17.058664 h 11.71048 c 0.9282,0 1.67545,0.74725 1.67545,1.675448 v 12.46644 c 0,0.928199 -0.74725,1.675448 -1.67545,1.675448 h -11.71048 c -0.9282,0 -1.67545,-0.747249 -1.67545,-1.675448 v -12.46644 c 0,-0.928198 0.74725,-1.675448 1.67545,-1.675448 z"
           style="fill:#373737;fill-opacity:1;stroke:none;stroke-width:0.16766435;stroke-linejoin:round;stroke-miterlimit:4;stroke-dasharray:none;stroke-dashoffset:0;stroke-opacity:1" />
      </g>
    </g>
  </g>
</svg>
