<?xml version="1.0" encoding="UTF-8" standalone="no"?>
<!-- Created with Inkscape (http://www.inkscape.org/) -->

<svg
   xmlns:dc="http://purl.org/dc/elements/1.1/"
   xmlns:cc="http://creativecommons.org/ns#"
   xmlns:rdf="http://www.w3.org/1999/02/22-rdf-syntax-ns#"
   xmlns:svg="http://www.w3.org/2000/svg"
   xmlns="http://www.w3.org/2000/svg"
   xmlns:sodipodi="http://sodipodi.sourceforge.net/DTD/sodipodi-0.dtd"
   xmlns:inkscape="http://www.inkscape.org/namespaces/inkscape"
   width="42.640514mm"
   height="32.224789mm"
   viewBox="0 0 42.640514 32.224789"
   version="1.1"
   id="svg8"
   inkscape:version="0.92.1 r15371"
   sodipodi:docname="shift_hold.svg">
  <defs
     id="defs2" />
  <sodipodi:namedview
     id="base"
     pagecolor="#ffffff"
     bordercolor="#666666"
     borderopacity="1.0"
     inkscape:pageopacity="0.0"
     inkscape:pageshadow="2"
     inkscape:zoom="3.959798"
     inkscape:cx="65.842787"
     inkscape:cy="61.315383"
     inkscape:document-units="mm"
     inkscape:current-layer="layer1"
     showgrid="true"
     fit-margin-top="0"
     fit-margin-left="0"
     fit-margin-right="0"
     fit-margin-bottom="0"
     inkscape:window-width="1920"
     inkscape:window-height="1057"
     inkscape:window-x="-8"
     inkscape:window-y="-8"
     inkscape:window-maximized="1"
     inkscape:measure-start="0,0"
     inkscape:measure-end="0,0">
    <inkscape:grid
       type="xygrid"
       id="grid4511"
       originx="-30.934955"
       originy="-15.400205" />
  </sodipodi:namedview>
  <metadata
     id="metadata5">
    <rdf:RDF>
      <cc:Work
         rdf:about="">
        <dc:format>image/svg+xml</dc:format>
        <dc:type
           rdf:resource="http://purl.org/dc/dcmitype/StillImage" />
        <dc:title />
      </cc:Work>
    </rdf:RDF>
  </metadata>
  <g
     inkscape:label="レイヤー 1"
     inkscape:groupmode="layer"
     id="layer1"
     transform="translate(-30.934953,-249.37501)">
    <g
       id="g4506">
      <path
         style="fill:#434343;fill-opacity:1;stroke:none;stroke-width:0.54091156;stroke-linejoin:round;stroke-miterlimit:4;stroke-dasharray:none;stroke-dashoffset:0;stroke-opacity:1"
         d="m 33.782751,249.37501 h 36.944918 c 1.57768,0 2.847798,1.27012 2.847798,2.8478 v 24.91826 c 0,1.57768 -1.270118,2.8478 -2.847798,2.8478 H 33.782751 c -1.57768,0 -2.847798,-1.27012 -2.847798,-2.8478 v -24.91826 c 0,-1.57768 1.270118,-2.8478 2.847798,-2.8478 z"
         id="rect4500"
         inkscape:connector-curvature="0" />
      <path
         style="fill:#111111;fill-opacity:1;stroke:none;stroke-width:0.54091156;stroke-linejoin:round;stroke-miterlimit:4;stroke-dasharray:none;stroke-dashoffset:0;stroke-opacity:1"
         d="m 33.782751,250.98594 h 36.944918 c 1.57768,0 2.847798,1.27012 2.847798,2.8478 V 278.752 c 0,1.57768 -1.270118,2.8478 -2.847798,2.8478 H 33.782751 c -1.57768,0 -2.847798,-1.27012 -2.847798,-2.8478 v -24.91826 c 0,-1.57768 1.270118,-2.8478 2.847798,-2.8478 z"
         id="rect4502"
         inkscape:connector-curvature="0" />
      <path
         style="fill:#1e1e1e;fill-opacity:1;stroke:none;stroke-width:0.53874815;stroke-linejoin:round;stroke-miterlimit:4;stroke-dasharray:none;stroke-dashoffset:0;stroke-opacity:1"
         d="m 33.760017,250.1805 h 36.990386 c 1.565085,0 2.825064,1.25997 2.825064,2.82505 v 24.71933 c 0,1.56509 -1.259979,2.82507 -2.825064,2.82507 H 33.760017 c -1.565085,0 -2.825064,-1.25998 -2.825064,-2.82507 v -24.71933 c 0,-1.56508 1.259979,-2.82505 2.825064,-2.82505 z"
         id="rect4496"
         inkscape:connector-curvature="0" />
      <path
         sodipodi:nodetypes="cccccccccc"
         inkscape:connector-curvature="0"
         id="path4509"
         d="m 52.69337,256.53521 -7.220119,6.8763 -1.756831,1.67317 h 2.104429 2.597784 v 8.12201 h 8.549476 v -8.12201 h 4.702213 z"
         style="fill:#26adc1;fill-opacity:1;stroke:#26adc1;stroke-width:0.91284198;stroke-linecap:butt;stroke-linejoin:miter;stroke-miterlimit:4;stroke-dasharray:none;stroke-opacity:1" />
      <path
         inkscape:connector-curvature="0"
         id="path4496"
         d="m 47.914638,275.17054 h 9.525"
         style="fill:none;stroke:#26adc1;stroke-width:0.96799999;stroke-linecap:butt;stroke-linejoin:miter;stroke-miterlimit:4;stroke-dasharray:none;stroke-opacity:1" />
    </g>
  </g>
</svg>
