<?xml version="1.0" encoding="UTF-8" standalone="no"?>
<!-- Created with Inkscape (http://www.inkscape.org/) -->

<svg
   xmlns:dc="http://purl.org/dc/elements/1.1/"
   xmlns:cc="http://creativecommons.org/ns#"
   xmlns:rdf="http://www.w3.org/1999/02/22-rdf-syntax-ns#"
   xmlns:svg="http://www.w3.org/2000/svg"
   xmlns="http://www.w3.org/2000/svg"
   xmlns:sodipodi="http://sodipodi.sourceforge.net/DTD/sodipodi-0.dtd"
   xmlns:inkscape="http://www.inkscape.org/namespaces/inkscape"
   width="96.200638mm"
   height="15.072862mm"
   viewBox="0 0 96.200638 15.072862"
   version="1.1"
   id="svg8"
   inkscape:version="0.92.1 r15371"
   sodipodi:docname="space.svg">
  <defs
     id="defs2" />
  <sodipodi:namedview
     id="base"
     pagecolor="#ffffff"
     bordercolor="#666666"
     borderopacity="1.0"
     inkscape:pageopacity="0.0"
     inkscape:pageshadow="2"
     inkscape:zoom="2.8284271"
     inkscape:cx="173.41664"
     inkscape:cy="45.893542"
     inkscape:document-units="mm"
     inkscape:current-layer="layer1"
     showgrid="false"
     fit-margin-top="0"
     fit-margin-left="0"
     fit-margin-right="0"
     fit-margin-bottom="0"
     inkscape:window-width="1920"
     inkscape:window-height="1057"
     inkscape:window-x="-8"
     inkscape:window-y="-8"
     inkscape:window-maximized="1" />
  <metadata
     id="metadata5">
    <rdf:RDF>
      <cc:Work
         rdf:about="">
        <dc:format>image/svg+xml</dc:format>
        <dc:type
           rdf:resource="http://purl.org/dc/dcmitype/StillImage" />
        <dc:title></dc:title>
      </cc:Work>
    </rdf:RDF>
  </metadata>
  <g
     inkscape:label="レイヤー 1"
     inkscape:groupmode="layer"
     id="layer1"
     transform="translate(-56.112085,-78.787281)">
    <g
       id="g4518"
       transform="matrix(0.93058528,0,0,0.83865148,-2.6986872,-127.91062)">
      <path
         style="fill:#5a5a5a;fill-opacity:1;stroke:none;stroke-width:0.30169174;stroke-linecap:round;stroke-linejoin:round;stroke-miterlimit:4;stroke-dasharray:none;stroke-dashoffset:0;stroke-opacity:1"
         d="M 64.361664,246.4646 H 165.41006 c 0.64488,0 1.16404,0.51916 1.16404,1.16405 v 14.19858 c 0,0.64488 -0.51916,1.16405 -1.16404,1.16405 H 64.361664 c -0.644882,0 -1.164047,-0.51917 -1.164047,-1.16405 v -14.19858 c 0,-0.64489 0.519165,-1.16405 1.164047,-1.16405 z"
         id="rect4511" />
      <path
         style="fill:#111111;fill-opacity:1;stroke:none;stroke-width:0.30169174;stroke-linecap:round;stroke-linejoin:round;stroke-miterlimit:4;stroke-dasharray:none;stroke-dashoffset:0;stroke-opacity:1"
         d="M 64.361664,247.91066 H 165.41006 c 0.64488,0 1.16404,0.51916 1.16404,1.16405 v 14.19858 c 0,0.64488 -0.51916,1.16405 -1.16404,1.16405 H 64.361664 c -0.644882,0 -1.164047,-0.51917 -1.164047,-1.16405 v -14.19858 c 0,-0.64489 0.519165,-1.16405 1.164047,-1.16405 z"
         id="rect4513" />
      <path
         style="fill:#373737;fill-opacity:1;stroke:none;stroke-width:0.30169174;stroke-linecap:round;stroke-linejoin:round;stroke-miterlimit:4;stroke-dasharray:none;stroke-dashoffset:0;stroke-opacity:1"
         d="M 64.361664,247.18764 H 165.41006 c 0.64488,0 1.16404,0.51916 1.16404,1.16404 v 14.19859 c 0,0.64488 -0.51916,1.16404 -1.16404,1.16404 H 64.361664 c -0.644882,0 -1.164047,-0.51916 -1.164047,-1.16404 v -14.19859 c 0,-0.64488 0.519165,-1.16404 1.164047,-1.16404 z"
         id="rect4507" />
    </g>
  </g>
</svg>
