<?xml version="1.0" encoding="UTF-8" standalone="no"?>
<!-- Created with Inkscape (http://www.inkscape.org/) -->

<svg
   xmlns:dc="http://purl.org/dc/elements/1.1/"
   xmlns:cc="http://creativecommons.org/ns#"
   xmlns:rdf="http://www.w3.org/1999/02/22-rdf-syntax-ns#"
   xmlns:svg="http://www.w3.org/2000/svg"
   xmlns="http://www.w3.org/2000/svg"
   xmlns:sodipodi="http://sodipodi.sourceforge.net/DTD/sodipodi-0.dtd"
   xmlns:inkscape="http://www.inkscape.org/namespaces/inkscape"
   width="16.699356mm"
   height="18.796225mm"
   viewBox="0 0 16.699356 18.796224"
   version="1.1"
   id="svg8"
   inkscape:version="0.92.1 r15371"
   sodipodi:docname="symbol0.svg">
  <defs
     id="defs2" />
  <sodipodi:namedview
     id="base"
     pagecolor="#ffffff"
     bordercolor="#666666"
     borderopacity="1.0"
     inkscape:pageopacity="0.0"
     inkscape:pageshadow="2"
     inkscape:zoom="1.4"
     inkscape:cx="14.525521"
     inkscape:cy="-37.278415"
     inkscape:document-units="mm"
     inkscape:current-layer="layer1"
     showgrid="false"
     fit-margin-top="0"
     fit-margin-left="0"
     fit-margin-right="0"
     fit-margin-bottom="0"
     inkscape:window-width="1920"
     inkscape:window-height="1057"
     inkscape:window-x="-8"
     inkscape:window-y="-8"
     inkscape:window-maximized="1">
    <inkscape:grid
       type="xygrid"
       id="grid4519"
       originx="-155.7701"
       originy="-165.12939" />
  </sodipodi:namedview>
  <metadata
     id="metadata5">
    <rdf:RDF>
      <cc:Work
         rdf:about="">
        <dc:format>image/svg+xml</dc:format>
        <dc:type
           rdf:resource="http://purl.org/dc/dcmitype/StillImage" />
        <dc:title></dc:title>
      </cc:Work>
    </rdf:RDF>
  </metadata>
  <g
     inkscape:label="レイヤー 1"
     inkscape:groupmode="layer"
     id="layer1"
     transform="translate(-155.77011,-113.07438)">
    <g
       id="g4607"
       transform="translate(-26.647322,-106.96726)">
      <g
         transform="matrix(0.39163116,0,0,0.58328465,134.58614,145.58682)"
         id="g4589">
        <path
           id="rect4500"
           d="m 124.98132,127.64749 h 36.94492 c 1.57768,0 2.8478,1.27012 2.8478,2.8478 v 24.91826 c 0,1.57768 -1.27012,2.8478 -2.8478,2.8478 h -36.94492 c -1.57768,0 -2.8478,-1.27012 -2.8478,-2.8478 v -24.91826 c 0,-1.57768 1.27012,-2.8478 2.8478,-2.8478 z"
           style="fill:#434343;fill-opacity:1;stroke:none;stroke-width:0.54091156;stroke-linejoin:round;stroke-miterlimit:4;stroke-dasharray:none;stroke-dashoffset:0;stroke-opacity:1"
           inkscape:connector-curvature="0" />
        <path
           id="rect4502"
           d="m 124.98132,129.25842 h 36.94492 c 1.57768,0 2.8478,1.27012 2.8478,2.8478 v 24.91826 c 0,1.57768 -1.27012,2.8478 -2.8478,2.8478 h -36.94492 c -1.57768,0 -2.8478,-1.27012 -2.8478,-2.8478 v -24.91826 c 0,-1.57768 1.27012,-2.8478 2.8478,-2.8478 z"
           style="fill:#111111;fill-opacity:1;stroke:none;stroke-width:0.54091156;stroke-linejoin:round;stroke-miterlimit:4;stroke-dasharray:none;stroke-dashoffset:0;stroke-opacity:1"
           inkscape:connector-curvature="0" />
        <path
           id="rect4496-8"
           d="m 124.95859,128.45298 h 36.99038 c 1.56509,0 2.82507,1.25997 2.82507,2.82505 v 24.71933 c 0,1.56509 -1.25998,2.82507 -2.82507,2.82507 h -36.99038 c -1.56509,0 -2.82507,-1.25998 -2.82507,-2.82507 v -24.71933 c 0,-1.56508 1.25998,-2.82505 2.82507,-2.82505 z"
           style="fill:#1e1e1e;fill-opacity:1;stroke:none;stroke-width:0.53874815;stroke-linejoin:round;stroke-miterlimit:4;stroke-dasharray:none;stroke-dashoffset:0;stroke-opacity:1"
           inkscape:connector-curvature="0" />
      </g>
      <g
         aria-label="?!,"
         style="font-style:normal;font-variant:normal;font-weight:normal;font-stretch:semi-condensed;font-size:10.58333302px;line-height:1.25;font-family:'Lucida Console';-inkscape-font-specification:'Lucida Console, Semi-Condensed';font-variant-ligatures:normal;font-variant-caps:normal;font-variant-numeric:normal;font-feature-settings:normal;text-align:start;letter-spacing:0px;word-spacing:0px;writing-mode:lr-tb;text-anchor:start;fill:#8f8f8f;fill-opacity:1;stroke:none;stroke-width:0.26458332"
         id="text4593">
        <path
           d="m 188.03649,226.87961 v -0.49713 h 0.55087 v 0.49713 z m 0.0538,-0.93827 v -0.0627 q 0,-0.29335 0.1142,-0.50833 0.11421,-0.21721 0.38292,-0.44114 l 0.15676,-0.12988 q 0.32246,-0.26648 0.32246,-0.524 0,-0.46354 -0.75465,-0.46354 -0.2508,0 -0.51504,0.0672 v 0.38068 h -0.33142 v -0.64716 q 0.45458,-0.12988 0.92259,-0.12988 0.55311,0 0.84646,0.1881 0.29559,0.18811 0.29559,0.54192 0,0.38068 -0.42994,0.73001 l -0.2217,0.17915 q -0.19258,0.15675 -0.26871,0.30231 -0.0761,0.14555 -0.0761,0.35829 v 0.15899 z"
           style="font-size:4.58611107px;fill:#8f8f8f;fill-opacity:1;stroke-width:0.26458332"
           id="path4609" />
        <path
           d="m 191.07972,225.94134 -0.0538,-1.71308 v -0.66283 h 0.44115 v 0.66283 l -0.056,1.71308 z m -0.10973,0.93827 v -0.49713 h 0.55311 v 0.49713 z"
           style="font-size:4.58611107px;fill:#8f8f8f;fill-opacity:1;stroke-width:0.26458332"
           id="path4611" />
        <path
           d="m 193.68404,227.59843 v -0.22169 q 0.22841,-0.0314 0.26648,-0.39636 l 0.009,-0.10077 h -0.27543 v -0.66284 h 0.66283 v 0.40084 q 0,0.94499 -0.66283,0.98082 z"
           style="font-size:4.58611107px;fill:#8f8f8f;fill-opacity:1;stroke-width:0.26458332"
           id="path4613" />
      </g>
      <g
         aria-label="."
         style="font-style:normal;font-variant:normal;font-weight:normal;font-stretch:semi-condensed;font-size:10.58333302px;line-height:1.25;font-family:'Lucida Console';-inkscape-font-specification:'Lucida Console, Semi-Condensed';font-variant-ligatures:normal;font-variant-caps:normal;font-variant-numeric:normal;font-feature-settings:normal;text-align:start;letter-spacing:0px;word-spacing:0px;writing-mode:lr-tb;text-anchor:start;fill:#26b3c9;fill-opacity:1;stroke:none;stroke-width:0.26458332"
         id="text4597">
        <path
           d="m 190.38743,234.81709 v -1.12172 h 1.12173 v 1.12172 z"
           style="font-size:7.76111126px;fill:#26b3c9;fill-opacity:1;stroke-width:0.26458332"
           id="path4616" />
      </g>
    </g>
  </g>
</svg>
