<?xml version="1.0" encoding="UTF-8" standalone="no"?>
<!-- Created with Inkscape (http://www.inkscape.org/) -->

<svg
   xmlns:dc="http://purl.org/dc/elements/1.1/"
   xmlns:cc="http://creativecommons.org/ns#"
   xmlns:rdf="http://www.w3.org/1999/02/22-rdf-syntax-ns#"
   xmlns:svg="http://www.w3.org/2000/svg"
   xmlns="http://www.w3.org/2000/svg"
   xmlns:sodipodi="http://sodipodi.sourceforge.net/DTD/sodipodi-0.dtd"
   xmlns:inkscape="http://www.inkscape.org/namespaces/inkscape"
   width="89.794525mm"
   height="54.044788mm"
   viewBox="0 0 89.794525 54.044788"
   version="1.1"
   id="svg8"
   inkscape:version="0.92.1 r15371"
   sodipodi:docname="symbol2.svg">
  <defs
     id="defs2" />
  <sodipodi:namedview
     id="base"
     pagecolor="#ffffff"
     bordercolor="#666666"
     borderopacity="1.0"
     inkscape:pageopacity="0.0"
     inkscape:pageshadow="2"
     inkscape:zoom="1.979899"
     inkscape:cx="176.85836"
     inkscape:cy="53.554212"
     inkscape:document-units="mm"
     inkscape:current-layer="layer1"
     showgrid="true"
     fit-margin-top="0"
     fit-margin-left="0"
     fit-margin-right="0"
     fit-margin-bottom="0"
     inkscape:window-width="1920"
     inkscape:window-height="1057"
     inkscape:window-x="-8"
     inkscape:window-y="-8"
     inkscape:window-maximized="1">
    <inkscape:grid
       type="xygrid"
       id="grid4519"
       originx="-104.5104"
       originy="-151.0073" />
  </sodipodi:namedview>
  <metadata
     id="metadata5">
    <rdf:RDF>
      <cc:Work
         rdf:about="">
        <dc:format>image/svg+xml</dc:format>
        <dc:type
           rdf:resource="http://purl.org/dc/dcmitype/StillImage" />
        <dc:title></dc:title>
      </cc:Work>
    </rdf:RDF>
  </metadata>
  <g
     inkscape:label="レイヤー 1"
     inkscape:groupmode="layer"
     id="layer1"
     transform="translate(-104.51041,-91.947914)">
    <path
       style="fill:#5f5f5f;fill-opacity:1;stroke:none;stroke-width:0.75804865;stroke-linecap:round;stroke-linejoin:round;stroke-miterlimit:4;stroke-dasharray:none;stroke-dashoffset:0;stroke-opacity:1"
       d="m 105.69846,91.947914 h 87.41842 c 0.65818,0 1.18805,0.529872 1.18805,1.188053 v 51.668683 c 0,0.65818 -0.52987,1.18805 -1.18805,1.18805 h -87.41842 c -0.65818,0 -1.18805,-0.52987 -1.18805,-1.18805 V 93.135967 c 0,-0.658181 0.52987,-1.188053 1.18805,-1.188053 z"
       id="rect4496" />
    <path
       style="fill:#27b7cd;fill-opacity:1;stroke:none;stroke-width:0.51709396;stroke-linecap:round;stroke-linejoin:round;stroke-miterlimit:4;stroke-dasharray:none;stroke-dashoffset:0;stroke-opacity:1"
       d="m 178.77162,94.593777 11.55168,-1.2e-5 c 0.83111,-1e-6 1.50021,0.66909 1.50021,1.500204 v 45.947501 c 0,0.83112 -0.6691,1.50021 -1.50021,1.50021 l -11.55168,10e-6 c -0.83111,0 -1.50021,-0.66908 -1.50021,-1.5002 V 96.093984 c 0,-0.831114 0.6691,-1.500207 1.50021,-1.500207 z"
       id="rect4521"
       inkscape:connector-curvature="0" />
    <g
       aria-label="!@#,.?"
       style="font-style:normal;font-variant:normal;font-weight:normal;font-stretch:semi-condensed;font-size:10.58333302px;line-height:1.25;font-family:'Lucida Console';-inkscape-font-specification:'Lucida Console, Semi-Condensed';font-variant-ligatures:normal;font-variant-caps:normal;font-variant-numeric:normal;font-feature-settings:normal;text-align:start;letter-spacing:0px;word-spacing:0px;writing-mode:lr-tb;text-anchor:start;fill:#f2fbfd;fill-opacity:1;stroke:none;stroke-width:0.26458332"
       id="text4517">
      <path
         d="m 110.53611,110.78754 -0.14883,-4.74389 v -1.83555 h 1.22163 v 1.83555 l -0.15503,4.74389 z m -0.30386,2.59829 v -1.37666 h 1.53169 v 1.37666 z"
         style="font-size:12.69999981px;letter-spacing:7.14375019px;fill:#f2fbfd;fill-opacity:1;stroke-width:0.26458332"
         id="path4525" />
      <path
         d="m 127.9552,113.1812 q -1.13482,0.43408 -1.97197,0.43408 -1.5689,0 -2.55489,-1.25884 -0.98598,-1.26504 -0.98598,-3.26802 0,-2.24482 1.11001,-3.67729 1.11621,-1.43868 2.85874,-1.43868 2.46186,0 2.46186,2.74712 v 4.06797 h 0.76275 v 0.76275 h -1.68052 v -2.05879 q -0.71314,2.1332 -1.77974,2.1332 -0.60151,0 -0.97978,-0.64492 -0.37827,-0.64492 -0.37827,-1.66191 0,-1.40147 0.67592,-2.37505 0.68213,-0.97359 1.66812,-0.97359 0.34106,0 0.79375,0.19844 -0.23565,-1.42627 -1.6061,-1.42627 -1.25884,0 -2.12701,1.26504 -0.86196,1.25884 -0.86196,3.09438 0,1.64331 0.76895,2.69751 0.76894,1.0542 1.96577,1.0542 0.80615,0 1.86035,-0.51469 z m 0,-5.22759 v -1.07281 q -0.39067,-0.25424 -0.72554,-0.25424 -0.68833,0 -1.0914,0.68833 -0.40308,0.68833 -0.40308,1.86655 0,1.5689 0.56431,1.53789 0.35346,-0.0186 0.82475,-0.80615 0.47129,-0.78755 0.83096,-1.95957 z"
         style="font-size:12.69999981px;letter-spacing:7.14375019px;fill:#f2fbfd;fill-opacity:1;stroke-width:0.26458332"
         id="path4527" />
      <path
         d="m 137.84607,113.38583 0.69453,-2.79052 h -1.42627 l 0.17984,-0.91778 h 1.47587 l 0.44649,-1.81694 h -1.5565 l 0.17984,-0.91777 h 1.6061 l 0.68213,-2.73472 h 0.94258 l -0.67593,2.73472 h 1.43867 l 0.67593,-2.73472 h 0.94878 l -0.68213,2.73472 h 1.41387 l -0.17984,0.91777 h -1.47587 l -0.44649,1.81694 h 1.55649 l -0.17983,0.91778 h -1.6061 l -0.67593,2.79052 h -0.94878 l 0.67593,-2.79052 h -1.43867 l -0.67593,2.79052 z m 1.86655,-3.7083 h 1.42627 l 0.45269,-1.81694 h -1.42627 z"
         style="font-size:12.69999981px;letter-spacing:7.14375019px;fill:#f2fbfd;fill-opacity:1;stroke-width:0.26458332"
         id="path4529" />
      <path
         d="m 154.50862,115.37641 v -0.61392 q 0.63252,-0.0868 0.73794,-1.0976 l 0.0248,-0.27906 h -0.76274 v -1.83554 h 1.83555 v 1.11001 q 0,2.61689 -1.83555,2.71611 z"
         style="font-size:12.69999981px;letter-spacing:7.14375019px;fill:#f2fbfd;fill-opacity:1;stroke-width:0.26458332"
         id="path4531" />
      <path
         d="m 169.31702,113.38583 v -1.83554 h 1.83554 v 1.83554 z"
         style="font-size:12.69999981px;letter-spacing:7.14375019px;fill:#f2fbfd;fill-opacity:1;stroke-width:0.26458332"
         id="path4533" />
      <path
         d="m 183.81535,113.38583 v -1.37666 h 1.52549 v 1.37666 z m 0.14883,-2.59829 v -0.17363 q 0,-0.81235 0.31626,-1.40767 0.31626,-0.60151 1.0604,-1.22163 l 0.43409,-0.35966 q 0.89296,-0.73794 0.89296,-1.45108 0,-1.28364 -2.08979,-1.28364 -0.69453,0 -1.42627,0.18603 v 1.0542 h -0.91777 v -1.79214 q 1.25883,-0.35966 2.55488,-0.35966 1.53169,0 2.34404,0.52089 0.81856,0.5209 0.81856,1.50069 0,1.0542 -1.19063,2.02158 l -0.61391,0.49609 q -0.53331,0.43409 -0.74415,0.83716 -0.21083,0.40308 -0.21083,0.99219 v 0.44028 z"
         style="font-size:12.69999981px;letter-spacing:7.14375019px;fill:#f2fbfd;fill-opacity:1;stroke-width:0.26458332"
         id="path4535" />
    </g>
  </g>
</svg>
