<?xml version="1.0" encoding="UTF-8" standalone="no"?>
<!-- Created with Inkscape (http://www.inkscape.org/) -->

<svg
   xmlns:osb="http://www.openswatchbook.org/uri/2009/osb"
   xmlns:dc="http://purl.org/dc/elements/1.1/"
   xmlns:cc="http://creativecommons.org/ns#"
   xmlns:rdf="http://www.w3.org/1999/02/22-rdf-syntax-ns#"
   xmlns:svg="http://www.w3.org/2000/svg"
   xmlns="http://www.w3.org/2000/svg"
   xmlns:sodipodi="http://sodipodi.sourceforge.net/DTD/sodipodi-0.dtd"
   xmlns:inkscape="http://www.inkscape.org/namespaces/inkscape"
   width="200mm"
   height="150mm"
   viewBox="0 0 200 150"
   version="1.1"
   id="svg8"
   inkscape:export-filename="D:\Documents\Dropbox\Shinshu-Univ\2017\1h\HCI\SwiftKey\images\keboard-lowercases.png"
   inkscape:export-xdpi="546.81824"
   inkscape:export-ydpi="546.81824"
   inkscape:version="0.92.1 r15371"
   sodipodi:docname="uppercases.svg">
  <defs
     id="defs2">
    <linearGradient
       id="linearGradient5089"
       osb:paint="solid">
      <stop
         style="stop-color:#7e7e7e;stop-opacity:1;"
         offset="0"
         id="stop5087" />
    </linearGradient>
  </defs>
  <sodipodi:namedview
     id="base"
     pagecolor="#ffffff"
     bordercolor="#666666"
     borderopacity="1.0"
     inkscape:pageopacity="0.0"
     inkscape:pageshadow="2"
     inkscape:zoom="1.1212722"
     inkscape:cx="237.86606"
     inkscape:cy="170.72002"
     inkscape:document-units="mm"
     inkscape:current-layer="layer1"
     showgrid="false"
     showguides="false"
     inkscape:window-width="1920"
     inkscape:window-height="1057"
     inkscape:window-x="-8"
     inkscape:window-y="-8"
     inkscape:window-maximized="1"
     fit-margin-top="0"
     fit-margin-left="0"
     fit-margin-right="0"
     fit-margin-bottom="0">
    <sodipodi:guide
       position="-0.0030509777,-8.3923344e-005"
       orientation="0,793.70079"
       id="guide5036"
       inkscape:locked="false" />
    <sodipodi:guide
       position="209.99696,-8.3923344e-005"
       orientation="-1122.5197,0"
       id="guide5038"
       inkscape:locked="false" />
    <sodipodi:guide
       position="209.99696,296.99993"
       orientation="0,-793.70079"
       id="guide5040"
       inkscape:locked="false" />
    <sodipodi:guide
       position="-0.0030509777,296.99993"
       orientation="1122.5197,0"
       id="guide5042"
       inkscape:locked="false" />
    <inkscape:grid
       type="xygrid"
       id="grid5104"
       originx="-0.0030509777"
       originy="-8.3923345e-005" />
  </sodipodi:namedview>
  <metadata
     id="metadata5">
    <rdf:RDF>
      <cc:Work
         rdf:about="">
        <dc:format>image/svg+xml</dc:format>
        <dc:type
           rdf:resource="http://purl.org/dc/dcmitype/StillImage" />
        <dc:title />
      </cc:Work>
    </rdf:RDF>
  </metadata>
  <g
     inkscape:label="レイヤー 1"
     inkscape:groupmode="layer"
     id="layer1"
     transform="translate(-0.00305098,-146.99991)">
    <g
       style="stroke:none;stroke-opacity:1"
       id="g5428"
       transform="translate(-5.2916631,147.10828)">
      <g
         style="stroke:none;stroke-opacity:1"
         transform="matrix(1.0752871,0,0,1.0982185,-119.30702,47.309608)"
         id="g5102">
        <path
           inkscape:connector-curvature="0"
           id="rect5085"
           d="m 120.01084,17.758663 h 11.71048 c 0.9282,0 1.67545,0.74725 1.67545,1.675448 v 12.46644 c 0,0.928198 -0.74725,1.675448 -1.67545,1.675448 h -11.71048 c -0.9282,0 -1.67545,-0.74725 -1.67545,-1.675448 v -12.46644 c 0,-0.928198 0.74725,-1.675448 1.67545,-1.675448 z"
           style="fill:#111111;fill-opacity:1;stroke:none;stroke-width:0.16766435;stroke-linejoin:round;stroke-miterlimit:4;stroke-dasharray:none;stroke-dashoffset:0;stroke-opacity:1" />
        <path
           inkscape:connector-curvature="0"
           id="rect5097"
           d="m 120.01084,16.258558 h 11.71048 c 0.9282,0 1.67545,0.74725 1.67545,1.675448 v 12.46644 c 0,0.928199 -0.74725,1.675448 -1.67545,1.675448 h -11.71048 c -0.9282,0 -1.67545,-0.747249 -1.67545,-1.675448 v -12.46644 c 0,-0.928198 0.74725,-1.675448 1.67545,-1.675448 z"
           style="fill:#4e4e4e;fill-opacity:1;stroke:none;stroke-width:0.16766435;stroke-linejoin:round;stroke-miterlimit:4;stroke-dasharray:none;stroke-dashoffset:0;stroke-opacity:1" />
        <path
           inkscape:connector-curvature="0"
           id="rect5093"
           d="m 120.01084,17.058664 h 11.71048 c 0.9282,0 1.67545,0.74725 1.67545,1.675448 v 12.46644 c 0,0.928199 -0.74725,1.675448 -1.67545,1.675448 h -11.71048 c -0.9282,0 -1.67545,-0.747249 -1.67545,-1.675448 v -12.46644 c 0,-0.928198 0.74725,-1.675448 1.67545,-1.675448 z"
           style="fill:#373737;fill-opacity:1;stroke:none;stroke-width:0.16766435;stroke-linejoin:round;stroke-miterlimit:4;stroke-dasharray:none;stroke-dashoffset:0;stroke-opacity:1" />
      </g>
      <g
         style="stroke:none;stroke-opacity:1"
         id="g5112"
         transform="matrix(1.0752871,0,0,1.0982185,-99.463266,47.309608)">
        <path
           inkscape:connector-curvature="0"
           id="rect5106"
           d="m 120.01084,17.758663 h 11.71048 c 0.9282,0 1.67545,0.74725 1.67545,1.675448 v 12.46644 c 0,0.928198 -0.74725,1.675448 -1.67545,1.675448 h -11.71048 c -0.9282,0 -1.67545,-0.74725 -1.67545,-1.675448 v -12.46644 c 0,-0.928198 0.74725,-1.675448 1.67545,-1.675448 z"
           style="fill:#111111;fill-opacity:1;stroke:none;stroke-width:0.16766435;stroke-linejoin:round;stroke-miterlimit:4;stroke-dasharray:none;stroke-dashoffset:0;stroke-opacity:1" />
        <path
           inkscape:connector-curvature="0"
           id="rect5108"
           d="m 120.01084,16.258558 h 11.71048 c 0.9282,0 1.67545,0.74725 1.67545,1.675448 v 12.46644 c 0,0.928199 -0.74725,1.675448 -1.67545,1.675448 h -11.71048 c -0.9282,0 -1.67545,-0.747249 -1.67545,-1.675448 v -12.46644 c 0,-0.928198 0.74725,-1.675448 1.67545,-1.675448 z"
           style="fill:#4e4e4e;fill-opacity:1;stroke:none;stroke-width:0.16766435;stroke-linejoin:round;stroke-miterlimit:4;stroke-dasharray:none;stroke-dashoffset:0;stroke-opacity:1" />
        <path
           inkscape:connector-curvature="0"
           id="rect5110"
           d="m 120.01084,17.058664 h 11.71048 c 0.9282,0 1.67545,0.74725 1.67545,1.675448 v 12.46644 c 0,0.928199 -0.74725,1.675448 -1.67545,1.675448 h -11.71048 c -0.9282,0 -1.67545,-0.747249 -1.67545,-1.675448 v -12.46644 c 0,-0.928198 0.74725,-1.675448 1.67545,-1.675448 z"
           style="fill:#373737;fill-opacity:1;stroke:none;stroke-width:0.16766435;stroke-linejoin:round;stroke-miterlimit:4;stroke-dasharray:none;stroke-dashoffset:0;stroke-opacity:1" />
      </g>
      <g
         style="stroke:none;stroke-opacity:1"
         transform="matrix(1.0752871,0,0,1.0982185,-79.619516,47.309608)"
         id="g5120">
        <path
           inkscape:connector-curvature="0"
           id="rect5114"
           d="m 120.01084,17.758663 h 11.71048 c 0.9282,0 1.67545,0.74725 1.67545,1.675448 v 12.46644 c 0,0.928198 -0.74725,1.675448 -1.67545,1.675448 h -11.71048 c -0.9282,0 -1.67545,-0.74725 -1.67545,-1.675448 v -12.46644 c 0,-0.928198 0.74725,-1.675448 1.67545,-1.675448 z"
           style="fill:#111111;fill-opacity:1;stroke:none;stroke-width:0.16766435;stroke-linejoin:round;stroke-miterlimit:4;stroke-dasharray:none;stroke-dashoffset:0;stroke-opacity:1" />
        <path
           inkscape:connector-curvature="0"
           id="rect5116"
           d="m 120.01084,16.258558 h 11.71048 c 0.9282,0 1.67545,0.74725 1.67545,1.675448 v 12.46644 c 0,0.928199 -0.74725,1.675448 -1.67545,1.675448 h -11.71048 c -0.9282,0 -1.67545,-0.747249 -1.67545,-1.675448 v -12.46644 c 0,-0.928198 0.74725,-1.675448 1.67545,-1.675448 z"
           style="fill:#4e4e4e;fill-opacity:1;stroke:none;stroke-width:0.16766435;stroke-linejoin:round;stroke-miterlimit:4;stroke-dasharray:none;stroke-dashoffset:0;stroke-opacity:1" />
        <path
           inkscape:connector-curvature="0"
           id="rect5118"
           d="m 120.01084,17.058664 h 11.71048 c 0.9282,0 1.67545,0.74725 1.67545,1.675448 v 12.46644 c 0,0.928199 -0.74725,1.675448 -1.67545,1.675448 h -11.71048 c -0.9282,0 -1.67545,-0.747249 -1.67545,-1.675448 v -12.46644 c 0,-0.928198 0.74725,-1.675448 1.67545,-1.675448 z"
           style="fill:#373737;fill-opacity:1;stroke:none;stroke-width:0.16766435;stroke-linejoin:round;stroke-miterlimit:4;stroke-dasharray:none;stroke-dashoffset:0;stroke-opacity:1" />
      </g>
      <g
         style="stroke:none;stroke-opacity:1"
         id="g5128"
         transform="matrix(1.0752871,0,0,1.0982185,-59.775766,47.309608)">
        <path
           inkscape:connector-curvature="0"
           id="rect5122"
           d="m 120.01084,17.758663 h 11.71048 c 0.9282,0 1.67545,0.74725 1.67545,1.675448 v 12.46644 c 0,0.928198 -0.74725,1.675448 -1.67545,1.675448 h -11.71048 c -0.9282,0 -1.67545,-0.74725 -1.67545,-1.675448 v -12.46644 c 0,-0.928198 0.74725,-1.675448 1.67545,-1.675448 z"
           style="fill:#111111;fill-opacity:1;stroke:none;stroke-width:0.16766435;stroke-linejoin:round;stroke-miterlimit:4;stroke-dasharray:none;stroke-dashoffset:0;stroke-opacity:1" />
        <path
           inkscape:connector-curvature="0"
           id="rect5124"
           d="m 120.01084,16.258558 h 11.71048 c 0.9282,0 1.67545,0.74725 1.67545,1.675448 v 12.46644 c 0,0.928199 -0.74725,1.675448 -1.67545,1.675448 h -11.71048 c -0.9282,0 -1.67545,-0.747249 -1.67545,-1.675448 v -12.46644 c 0,-0.928198 0.74725,-1.675448 1.67545,-1.675448 z"
           style="fill:#4e4e4e;fill-opacity:1;stroke:none;stroke-width:0.16766435;stroke-linejoin:round;stroke-miterlimit:4;stroke-dasharray:none;stroke-dashoffset:0;stroke-opacity:1" />
        <path
           inkscape:connector-curvature="0"
           id="rect5126"
           d="m 120.01084,17.058664 h 11.71048 c 0.9282,0 1.67545,0.74725 1.67545,1.675448 v 12.46644 c 0,0.928199 -0.74725,1.675448 -1.67545,1.675448 h -11.71048 c -0.9282,0 -1.67545,-0.747249 -1.67545,-1.675448 v -12.46644 c 0,-0.928198 0.74725,-1.675448 1.67545,-1.675448 z"
           style="fill:#373737;fill-opacity:1;stroke:none;stroke-width:0.16766435;stroke-linejoin:round;stroke-miterlimit:4;stroke-dasharray:none;stroke-dashoffset:0;stroke-opacity:1" />
      </g>
      <g
         style="stroke:none;stroke-opacity:1"
         transform="matrix(1.0752871,0,0,1.0982185,-39.932016,47.309608)"
         id="g5136">
        <path
           inkscape:connector-curvature="0"
           id="rect5130"
           d="m 120.01084,17.758663 h 11.71048 c 0.9282,0 1.67545,0.74725 1.67545,1.675448 v 12.46644 c 0,0.928198 -0.74725,1.675448 -1.67545,1.675448 h -11.71048 c -0.9282,0 -1.67545,-0.74725 -1.67545,-1.675448 v -12.46644 c 0,-0.928198 0.74725,-1.675448 1.67545,-1.675448 z"
           style="fill:#111111;fill-opacity:1;stroke:none;stroke-width:0.16766435;stroke-linejoin:round;stroke-miterlimit:4;stroke-dasharray:none;stroke-dashoffset:0;stroke-opacity:1" />
        <path
           inkscape:connector-curvature="0"
           id="rect5132"
           d="m 120.01084,16.258558 h 11.71048 c 0.9282,0 1.67545,0.74725 1.67545,1.675448 v 12.46644 c 0,0.928199 -0.74725,1.675448 -1.67545,1.675448 h -11.71048 c -0.9282,0 -1.67545,-0.747249 -1.67545,-1.675448 v -12.46644 c 0,-0.928198 0.74725,-1.675448 1.67545,-1.675448 z"
           style="fill:#4e4e4e;fill-opacity:1;stroke:none;stroke-width:0.16766435;stroke-linejoin:round;stroke-miterlimit:4;stroke-dasharray:none;stroke-dashoffset:0;stroke-opacity:1" />
        <path
           inkscape:connector-curvature="0"
           id="rect5134"
           d="m 120.01084,17.058664 h 11.71048 c 0.9282,0 1.67545,0.74725 1.67545,1.675448 v 12.46644 c 0,0.928199 -0.74725,1.675448 -1.67545,1.675448 h -11.71048 c -0.9282,0 -1.67545,-0.747249 -1.67545,-1.675448 v -12.46644 c 0,-0.928198 0.74725,-1.675448 1.67545,-1.675448 z"
           style="fill:#373737;fill-opacity:1;stroke:none;stroke-width:0.16766435;stroke-linejoin:round;stroke-miterlimit:4;stroke-dasharray:none;stroke-dashoffset:0;stroke-opacity:1" />
      </g>
      <g
         style="stroke:none;stroke-opacity:1"
         id="g5144"
         transform="matrix(1.0752871,0,0,1.0982185,-20.088266,47.309608)">
        <path
           inkscape:connector-curvature="0"
           id="rect5138"
           d="m 120.01084,17.758663 h 11.71048 c 0.9282,0 1.67545,0.74725 1.67545,1.675448 v 12.46644 c 0,0.928198 -0.74725,1.675448 -1.67545,1.675448 h -11.71048 c -0.9282,0 -1.67545,-0.74725 -1.67545,-1.675448 v -12.46644 c 0,-0.928198 0.74725,-1.675448 1.67545,-1.675448 z"
           style="fill:#111111;fill-opacity:1;stroke:none;stroke-width:0.16766435;stroke-linejoin:round;stroke-miterlimit:4;stroke-dasharray:none;stroke-dashoffset:0;stroke-opacity:1" />
        <path
           inkscape:connector-curvature="0"
           id="rect5140"
           d="m 120.01084,16.258558 h 11.71048 c 0.9282,0 1.67545,0.74725 1.67545,1.675448 v 12.46644 c 0,0.928199 -0.74725,1.675448 -1.67545,1.675448 h -11.71048 c -0.9282,0 -1.67545,-0.747249 -1.67545,-1.675448 v -12.46644 c 0,-0.928198 0.74725,-1.675448 1.67545,-1.675448 z"
           style="fill:#4e4e4e;fill-opacity:1;stroke:none;stroke-width:0.16766435;stroke-linejoin:round;stroke-miterlimit:4;stroke-dasharray:none;stroke-dashoffset:0;stroke-opacity:1" />
        <path
           inkscape:connector-curvature="0"
           id="rect5142"
           d="m 120.01084,17.058664 h 11.71048 c 0.9282,0 1.67545,0.74725 1.67545,1.675448 v 12.46644 c 0,0.928199 -0.74725,1.675448 -1.67545,1.675448 h -11.71048 c -0.9282,0 -1.67545,-0.747249 -1.67545,-1.675448 v -12.46644 c 0,-0.928198 0.74725,-1.675448 1.67545,-1.675448 z"
           style="fill:#373737;fill-opacity:1;stroke:none;stroke-width:0.16766435;stroke-linejoin:round;stroke-miterlimit:4;stroke-dasharray:none;stroke-dashoffset:0;stroke-opacity:1" />
      </g>
      <g
         style="stroke:none;stroke-opacity:1"
         transform="matrix(1.0752871,0,0,1.0982185,-0.24451639,47.309608)"
         id="g5152">
        <path
           inkscape:connector-curvature="0"
           id="rect5146"
           d="m 120.01084,17.758663 h 11.71048 c 0.9282,0 1.67545,0.74725 1.67545,1.675448 v 12.46644 c 0,0.928198 -0.74725,1.675448 -1.67545,1.675448 h -11.71048 c -0.9282,0 -1.67545,-0.74725 -1.67545,-1.675448 v -12.46644 c 0,-0.928198 0.74725,-1.675448 1.67545,-1.675448 z"
           style="fill:#111111;fill-opacity:1;stroke:none;stroke-width:0.16766435;stroke-linejoin:round;stroke-miterlimit:4;stroke-dasharray:none;stroke-dashoffset:0;stroke-opacity:1" />
        <path
           inkscape:connector-curvature="0"
           id="rect5148"
           d="m 120.01084,16.258558 h 11.71048 c 0.9282,0 1.67545,0.74725 1.67545,1.675448 v 12.46644 c 0,0.928199 -0.74725,1.675448 -1.67545,1.675448 h -11.71048 c -0.9282,0 -1.67545,-0.747249 -1.67545,-1.675448 v -12.46644 c 0,-0.928198 0.74725,-1.675448 1.67545,-1.675448 z"
           style="fill:#4e4e4e;fill-opacity:1;stroke:none;stroke-width:0.16766435;stroke-linejoin:round;stroke-miterlimit:4;stroke-dasharray:none;stroke-dashoffset:0;stroke-opacity:1" />
        <path
           inkscape:connector-curvature="0"
           id="rect5150"
           d="m 120.01084,17.058664 h 11.71048 c 0.9282,0 1.67545,0.74725 1.67545,1.675448 v 12.46644 c 0,0.928199 -0.74725,1.675448 -1.67545,1.675448 h -11.71048 c -0.9282,0 -1.67545,-0.747249 -1.67545,-1.675448 v -12.46644 c 0,-0.928198 0.74725,-1.675448 1.67545,-1.675448 z"
           style="fill:#373737;fill-opacity:1;stroke:none;stroke-width:0.16766435;stroke-linejoin:round;stroke-miterlimit:4;stroke-dasharray:none;stroke-dashoffset:0;stroke-opacity:1" />
      </g>
      <g
         style="stroke:none;stroke-opacity:1"
         id="g5160"
         transform="matrix(1.0752871,0,0,1.0982185,19.599234,47.309608)">
        <path
           inkscape:connector-curvature="0"
           id="rect5154"
           d="m 120.01084,17.758663 h 11.71048 c 0.9282,0 1.67545,0.74725 1.67545,1.675448 v 12.46644 c 0,0.928198 -0.74725,1.675448 -1.67545,1.675448 h -11.71048 c -0.9282,0 -1.67545,-0.74725 -1.67545,-1.675448 v -12.46644 c 0,-0.928198 0.74725,-1.675448 1.67545,-1.675448 z"
           style="fill:#111111;fill-opacity:1;stroke:none;stroke-width:0.16766435;stroke-linejoin:round;stroke-miterlimit:4;stroke-dasharray:none;stroke-dashoffset:0;stroke-opacity:1" />
        <path
           inkscape:connector-curvature="0"
           id="rect5156"
           d="m 120.01084,16.258558 h 11.71048 c 0.9282,0 1.67545,0.74725 1.67545,1.675448 v 12.46644 c 0,0.928199 -0.74725,1.675448 -1.67545,1.675448 h -11.71048 c -0.9282,0 -1.67545,-0.747249 -1.67545,-1.675448 v -12.46644 c 0,-0.928198 0.74725,-1.675448 1.67545,-1.675448 z"
           style="fill:#4e4e4e;fill-opacity:1;stroke:none;stroke-width:0.16766435;stroke-linejoin:round;stroke-miterlimit:4;stroke-dasharray:none;stroke-dashoffset:0;stroke-opacity:1" />
        <path
           inkscape:connector-curvature="0"
           id="rect5158"
           d="m 120.01084,17.058664 h 11.71048 c 0.9282,0 1.67545,0.74725 1.67545,1.675448 v 12.46644 c 0,0.928199 -0.74725,1.675448 -1.67545,1.675448 h -11.71048 c -0.9282,0 -1.67545,-0.747249 -1.67545,-1.675448 v -12.46644 c 0,-0.928198 0.74725,-1.675448 1.67545,-1.675448 z"
           style="fill:#373737;fill-opacity:1;stroke:none;stroke-width:0.16766435;stroke-linejoin:round;stroke-miterlimit:4;stroke-dasharray:none;stroke-dashoffset:0;stroke-opacity:1" />
      </g>
      <g
         style="stroke:none;stroke-opacity:1"
         id="g5168"
         transform="matrix(1.0752871,0,0,1.0982185,-108.72368,71.122108)">
        <path
           inkscape:connector-curvature="0"
           id="rect5162"
           d="m 120.01084,17.758663 h 11.71048 c 0.9282,0 1.67545,0.74725 1.67545,1.675448 v 12.46644 c 0,0.928198 -0.74725,1.675448 -1.67545,1.675448 h -11.71048 c -0.9282,0 -1.67545,-0.74725 -1.67545,-1.675448 v -12.46644 c 0,-0.928198 0.74725,-1.675448 1.67545,-1.675448 z"
           style="fill:#111111;fill-opacity:1;stroke:none;stroke-width:0.16766435;stroke-linejoin:round;stroke-miterlimit:4;stroke-dasharray:none;stroke-dashoffset:0;stroke-opacity:1" />
        <path
           inkscape:connector-curvature="0"
           id="rect5164"
           d="m 120.01084,16.258558 h 11.71048 c 0.9282,0 1.67545,0.74725 1.67545,1.675448 v 12.46644 c 0,0.928199 -0.74725,1.675448 -1.67545,1.675448 h -11.71048 c -0.9282,0 -1.67545,-0.747249 -1.67545,-1.675448 v -12.46644 c 0,-0.928198 0.74725,-1.675448 1.67545,-1.675448 z"
           style="fill:#4e4e4e;fill-opacity:1;stroke:none;stroke-width:0.16766435;stroke-linejoin:round;stroke-miterlimit:4;stroke-dasharray:none;stroke-dashoffset:0;stroke-opacity:1" />
        <path
           inkscape:connector-curvature="0"
           id="rect5166"
           d="m 120.01084,17.058664 h 11.71048 c 0.9282,0 1.67545,0.74725 1.67545,1.675448 v 12.46644 c 0,0.928199 -0.74725,1.675448 -1.67545,1.675448 h -11.71048 c -0.9282,0 -1.67545,-0.747249 -1.67545,-1.675448 v -12.46644 c 0,-0.928198 0.74725,-1.675448 1.67545,-1.675448 z"
           style="fill:#373737;fill-opacity:1;stroke:none;stroke-width:0.16766435;stroke-linejoin:round;stroke-miterlimit:4;stroke-dasharray:none;stroke-dashoffset:0;stroke-opacity:1" />
      </g>
      <g
         style="stroke:none;stroke-opacity:1"
         transform="matrix(1.0752871,0,0,1.0982185,-88.879933,93.611691)"
         id="g5176">
        <path
           inkscape:connector-curvature="0"
           id="rect5170"
           d="m 120.01084,17.758663 h 11.71048 c 0.9282,0 1.67545,0.74725 1.67545,1.675448 v 12.46644 c 0,0.928198 -0.74725,1.675448 -1.67545,1.675448 h -11.71048 c -0.9282,0 -1.67545,-0.74725 -1.67545,-1.675448 v -12.46644 c 0,-0.928198 0.74725,-1.675448 1.67545,-1.675448 z"
           style="fill:#111111;fill-opacity:1;stroke:none;stroke-width:0.16766435;stroke-linejoin:round;stroke-miterlimit:4;stroke-dasharray:none;stroke-dashoffset:0;stroke-opacity:1" />
        <path
           inkscape:connector-curvature="0"
           id="rect5172"
           d="m 120.01084,16.258558 h 11.71048 c 0.9282,0 1.67545,0.74725 1.67545,1.675448 v 12.46644 c 0,0.928199 -0.74725,1.675448 -1.67545,1.675448 h -11.71048 c -0.9282,0 -1.67545,-0.747249 -1.67545,-1.675448 v -12.46644 c 0,-0.928198 0.74725,-1.675448 1.67545,-1.675448 z"
           style="fill:#4e4e4e;fill-opacity:1;stroke:none;stroke-width:0.16766435;stroke-linejoin:round;stroke-miterlimit:4;stroke-dasharray:none;stroke-dashoffset:0;stroke-opacity:1" />
        <path
           inkscape:connector-curvature="0"
           id="rect5174"
           d="m 120.01084,17.058664 h 11.71048 c 0.9282,0 1.67545,0.74725 1.67545,1.675448 v 12.46644 c 0,0.928199 -0.74725,1.675448 -1.67545,1.675448 h -11.71048 c -0.9282,0 -1.67545,-0.747249 -1.67545,-1.675448 v -12.46644 c 0,-0.928198 0.74725,-1.675448 1.67545,-1.675448 z"
           style="fill:#373737;fill-opacity:1;stroke:none;stroke-width:0.16766435;stroke-linejoin:round;stroke-miterlimit:4;stroke-dasharray:none;stroke-dashoffset:0;stroke-opacity:1" />
      </g>
      <g
         style="stroke:none;stroke-opacity:1"
         id="g5191"
         transform="matrix(1.0752871,0,0,1.0982185,39.442984,47.309608)">
        <path
           inkscape:connector-curvature="0"
           id="rect5185"
           d="m 120.01084,17.758663 h 11.71048 c 0.9282,0 1.67545,0.74725 1.67545,1.675448 v 12.46644 c 0,0.928198 -0.74725,1.675448 -1.67545,1.675448 h -11.71048 c -0.9282,0 -1.67545,-0.74725 -1.67545,-1.675448 v -12.46644 c 0,-0.928198 0.74725,-1.675448 1.67545,-1.675448 z"
           style="fill:#111111;fill-opacity:1;stroke:none;stroke-width:0.16766435;stroke-linejoin:round;stroke-miterlimit:4;stroke-dasharray:none;stroke-dashoffset:0;stroke-opacity:1" />
        <path
           inkscape:connector-curvature="0"
           id="rect5187"
           d="m 120.01084,16.258558 h 11.71048 c 0.9282,0 1.67545,0.74725 1.67545,1.675448 v 12.46644 c 0,0.928199 -0.74725,1.675448 -1.67545,1.675448 h -11.71048 c -0.9282,0 -1.67545,-0.747249 -1.67545,-1.675448 v -12.46644 c 0,-0.928198 0.74725,-1.675448 1.67545,-1.675448 z"
           style="fill:#4e4e4e;fill-opacity:1;stroke:none;stroke-width:0.16766435;stroke-linejoin:round;stroke-miterlimit:4;stroke-dasharray:none;stroke-dashoffset:0;stroke-opacity:1" />
        <path
           inkscape:connector-curvature="0"
           id="rect5189"
           d="m 120.01084,17.058664 h 11.71048 c 0.9282,0 1.67545,0.74725 1.67545,1.675448 v 12.46644 c 0,0.928199 -0.74725,1.675448 -1.67545,1.675448 h -11.71048 c -0.9282,0 -1.67545,-0.747249 -1.67545,-1.675448 v -12.46644 c 0,-0.928198 0.74725,-1.675448 1.67545,-1.675448 z"
           style="fill:#373737;fill-opacity:1;stroke:none;stroke-width:0.16766435;stroke-linejoin:round;stroke-miterlimit:4;stroke-dasharray:none;stroke-dashoffset:0;stroke-opacity:1" />
      </g>
      <g
         style="stroke:none;stroke-opacity:1"
         transform="matrix(1.0752871,0,0,1.0982185,59.286734,47.309608)"
         id="g5199">
        <path
           inkscape:connector-curvature="0"
           id="rect5193"
           d="m 120.01084,17.758663 h 11.71048 c 0.9282,0 1.67545,0.74725 1.67545,1.675448 v 12.46644 c 0,0.928198 -0.74725,1.675448 -1.67545,1.675448 h -11.71048 c -0.9282,0 -1.67545,-0.74725 -1.67545,-1.675448 v -12.46644 c 0,-0.928198 0.74725,-1.675448 1.67545,-1.675448 z"
           style="fill:#111111;fill-opacity:1;stroke:none;stroke-width:0.16766435;stroke-linejoin:round;stroke-miterlimit:4;stroke-dasharray:none;stroke-dashoffset:0;stroke-opacity:1" />
        <path
           inkscape:connector-curvature="0"
           id="rect5195"
           d="m 120.01084,16.258558 h 11.71048 c 0.9282,0 1.67545,0.74725 1.67545,1.675448 v 12.46644 c 0,0.928199 -0.74725,1.675448 -1.67545,1.675448 h -11.71048 c -0.9282,0 -1.67545,-0.747249 -1.67545,-1.675448 v -12.46644 c 0,-0.928198 0.74725,-1.675448 1.67545,-1.675448 z"
           style="fill:#4e4e4e;fill-opacity:1;stroke:none;stroke-width:0.16766435;stroke-linejoin:round;stroke-miterlimit:4;stroke-dasharray:none;stroke-dashoffset:0;stroke-opacity:1" />
        <path
           inkscape:connector-curvature="0"
           id="rect5197"
           d="m 120.01084,17.058664 h 11.71048 c 0.9282,0 1.67545,0.74725 1.67545,1.675448 v 12.46644 c 0,0.928199 -0.74725,1.675448 -1.67545,1.675448 h -11.71048 c -0.9282,0 -1.67545,-0.747249 -1.67545,-1.675448 v -12.46644 c 0,-0.928198 0.74725,-1.675448 1.67545,-1.675448 z"
           style="fill:#373737;fill-opacity:1;stroke:none;stroke-width:0.16766435;stroke-linejoin:round;stroke-miterlimit:4;stroke-dasharray:none;stroke-dashoffset:0;stroke-opacity:1" />
      </g>
      <g
         style="stroke:none;stroke-opacity:1"
         transform="matrix(1.0752871,0,0,1.0982185,-88.879933,71.122108)"
         id="g5207">
        <path
           inkscape:connector-curvature="0"
           id="rect5201"
           d="m 120.01084,17.758663 h 11.71048 c 0.9282,0 1.67545,0.74725 1.67545,1.675448 v 12.46644 c 0,0.928198 -0.74725,1.675448 -1.67545,1.675448 h -11.71048 c -0.9282,0 -1.67545,-0.74725 -1.67545,-1.675448 v -12.46644 c 0,-0.928198 0.74725,-1.675448 1.67545,-1.675448 z"
           style="fill:#111111;fill-opacity:1;stroke:none;stroke-width:0.16766435;stroke-linejoin:round;stroke-miterlimit:4;stroke-dasharray:none;stroke-dashoffset:0;stroke-opacity:1" />
        <path
           inkscape:connector-curvature="0"
           id="rect5203"
           d="m 120.01084,16.258558 h 11.71048 c 0.9282,0 1.67545,0.74725 1.67545,1.675448 v 12.46644 c 0,0.928199 -0.74725,1.675448 -1.67545,1.675448 h -11.71048 c -0.9282,0 -1.67545,-0.747249 -1.67545,-1.675448 v -12.46644 c 0,-0.928198 0.74725,-1.675448 1.67545,-1.675448 z"
           style="fill:#4e4e4e;fill-opacity:1;stroke:none;stroke-width:0.16766435;stroke-linejoin:round;stroke-miterlimit:4;stroke-dasharray:none;stroke-dashoffset:0;stroke-opacity:1" />
        <path
           inkscape:connector-curvature="0"
           id="rect5205"
           d="m 120.01084,17.058664 h 11.71048 c 0.9282,0 1.67545,0.74725 1.67545,1.675448 v 12.46644 c 0,0.928199 -0.74725,1.675448 -1.67545,1.675448 h -11.71048 c -0.9282,0 -1.67545,-0.747249 -1.67545,-1.675448 v -12.46644 c 0,-0.928198 0.74725,-1.675448 1.67545,-1.675448 z"
           style="fill:#373737;fill-opacity:1;stroke:none;stroke-width:0.16766435;stroke-linejoin:round;stroke-miterlimit:4;stroke-dasharray:none;stroke-dashoffset:0;stroke-opacity:1" />
      </g>
      <g
         style="stroke:none;stroke-opacity:1"
         id="g5215"
         transform="matrix(1.0752871,0,0,1.0982185,-69.036183,71.122108)">
        <path
           inkscape:connector-curvature="0"
           id="rect5209"
           d="m 120.01084,17.758663 h 11.71048 c 0.9282,0 1.67545,0.74725 1.67545,1.675448 v 12.46644 c 0,0.928198 -0.74725,1.675448 -1.67545,1.675448 h -11.71048 c -0.9282,0 -1.67545,-0.74725 -1.67545,-1.675448 v -12.46644 c 0,-0.928198 0.74725,-1.675448 1.67545,-1.675448 z"
           style="fill:#111111;fill-opacity:1;stroke:none;stroke-width:0.16766435;stroke-linejoin:round;stroke-miterlimit:4;stroke-dasharray:none;stroke-dashoffset:0;stroke-opacity:1" />
        <path
           inkscape:connector-curvature="0"
           id="rect5211"
           d="m 120.01084,16.258558 h 11.71048 c 0.9282,0 1.67545,0.74725 1.67545,1.675448 v 12.46644 c 0,0.928199 -0.74725,1.675448 -1.67545,1.675448 h -11.71048 c -0.9282,0 -1.67545,-0.747249 -1.67545,-1.675448 v -12.46644 c 0,-0.928198 0.74725,-1.675448 1.67545,-1.675448 z"
           style="fill:#4e4e4e;fill-opacity:1;stroke:none;stroke-width:0.16766435;stroke-linejoin:round;stroke-miterlimit:4;stroke-dasharray:none;stroke-dashoffset:0;stroke-opacity:1" />
        <path
           inkscape:connector-curvature="0"
           id="rect5213"
           d="m 120.01084,17.058664 h 11.71048 c 0.9282,0 1.67545,0.74725 1.67545,1.675448 v 12.46644 c 0,0.928199 -0.74725,1.675448 -1.67545,1.675448 h -11.71048 c -0.9282,0 -1.67545,-0.747249 -1.67545,-1.675448 v -12.46644 c 0,-0.928198 0.74725,-1.675448 1.67545,-1.675448 z"
           style="fill:#373737;fill-opacity:1;stroke:none;stroke-width:0.16766435;stroke-linejoin:round;stroke-miterlimit:4;stroke-dasharray:none;stroke-dashoffset:0;stroke-opacity:1" />
      </g>
      <g
         style="stroke:none;stroke-opacity:1"
         transform="matrix(1.0752871,0,0,1.0982185,-49.192433,71.122108)"
         id="g5223">
        <path
           inkscape:connector-curvature="0"
           id="rect5217"
           d="m 120.01084,17.758663 h 11.71048 c 0.9282,0 1.67545,0.74725 1.67545,1.675448 v 12.46644 c 0,0.928198 -0.74725,1.675448 -1.67545,1.675448 h -11.71048 c -0.9282,0 -1.67545,-0.74725 -1.67545,-1.675448 v -12.46644 c 0,-0.928198 0.74725,-1.675448 1.67545,-1.675448 z"
           style="fill:#111111;fill-opacity:1;stroke:none;stroke-width:0.16766435;stroke-linejoin:round;stroke-miterlimit:4;stroke-dasharray:none;stroke-dashoffset:0;stroke-opacity:1" />
        <path
           inkscape:connector-curvature="0"
           id="rect5219"
           d="m 120.01084,16.258558 h 11.71048 c 0.9282,0 1.67545,0.74725 1.67545,1.675448 v 12.46644 c 0,0.928199 -0.74725,1.675448 -1.67545,1.675448 h -11.71048 c -0.9282,0 -1.67545,-0.747249 -1.67545,-1.675448 v -12.46644 c 0,-0.928198 0.74725,-1.675448 1.67545,-1.675448 z"
           style="fill:#4e4e4e;fill-opacity:1;stroke:none;stroke-width:0.16766435;stroke-linejoin:round;stroke-miterlimit:4;stroke-dasharray:none;stroke-dashoffset:0;stroke-opacity:1" />
        <path
           inkscape:connector-curvature="0"
           id="rect5221"
           d="m 120.01084,17.058664 h 11.71048 c 0.9282,0 1.67545,0.74725 1.67545,1.675448 v 12.46644 c 0,0.928199 -0.74725,1.675448 -1.67545,1.675448 h -11.71048 c -0.9282,0 -1.67545,-0.747249 -1.67545,-1.675448 v -12.46644 c 0,-0.928198 0.74725,-1.675448 1.67545,-1.675448 z"
           style="fill:#373737;fill-opacity:1;stroke:none;stroke-width:0.16766435;stroke-linejoin:round;stroke-miterlimit:4;stroke-dasharray:none;stroke-dashoffset:0;stroke-opacity:1" />
      </g>
      <g
         style="stroke:none;stroke-opacity:1"
         id="g5231"
         transform="matrix(1.0752871,0,0,1.0982185,-29.348684,71.122108)">
        <path
           inkscape:connector-curvature="0"
           id="rect5225"
           d="m 120.01084,17.758663 h 11.71048 c 0.9282,0 1.67545,0.74725 1.67545,1.675448 v 12.46644 c 0,0.928198 -0.74725,1.675448 -1.67545,1.675448 h -11.71048 c -0.9282,0 -1.67545,-0.74725 -1.67545,-1.675448 v -12.46644 c 0,-0.928198 0.74725,-1.675448 1.67545,-1.675448 z"
           style="fill:#111111;fill-opacity:1;stroke:none;stroke-width:0.16766435;stroke-linejoin:round;stroke-miterlimit:4;stroke-dasharray:none;stroke-dashoffset:0;stroke-opacity:1" />
        <path
           inkscape:connector-curvature="0"
           id="rect5227"
           d="m 120.01084,16.258558 h 11.71048 c 0.9282,0 1.67545,0.74725 1.67545,1.675448 v 12.46644 c 0,0.928199 -0.74725,1.675448 -1.67545,1.675448 h -11.71048 c -0.9282,0 -1.67545,-0.747249 -1.67545,-1.675448 v -12.46644 c 0,-0.928198 0.74725,-1.675448 1.67545,-1.675448 z"
           style="fill:#4e4e4e;fill-opacity:1;stroke:none;stroke-width:0.16766435;stroke-linejoin:round;stroke-miterlimit:4;stroke-dasharray:none;stroke-dashoffset:0;stroke-opacity:1" />
        <path
           inkscape:connector-curvature="0"
           id="rect5229"
           d="m 120.01084,17.058664 h 11.71048 c 0.9282,0 1.67545,0.74725 1.67545,1.675448 v 12.46644 c 0,0.928199 -0.74725,1.675448 -1.67545,1.675448 h -11.71048 c -0.9282,0 -1.67545,-0.747249 -1.67545,-1.675448 v -12.46644 c 0,-0.928198 0.74725,-1.675448 1.67545,-1.675448 z"
           style="fill:#373737;fill-opacity:1;stroke:none;stroke-width:0.16766435;stroke-linejoin:round;stroke-miterlimit:4;stroke-dasharray:none;stroke-dashoffset:0;stroke-opacity:1" />
      </g>
      <g
         style="stroke:none;stroke-opacity:1"
         transform="matrix(1.0752871,0,0,1.0982185,-9.5049337,71.122108)"
         id="g5239">
        <path
           inkscape:connector-curvature="0"
           id="rect5233"
           d="m 120.01084,17.758663 h 11.71048 c 0.9282,0 1.67545,0.74725 1.67545,1.675448 v 12.46644 c 0,0.928198 -0.74725,1.675448 -1.67545,1.675448 h -11.71048 c -0.9282,0 -1.67545,-0.74725 -1.67545,-1.675448 v -12.46644 c 0,-0.928198 0.74725,-1.675448 1.67545,-1.675448 z"
           style="fill:#111111;fill-opacity:1;stroke:none;stroke-width:0.16766435;stroke-linejoin:round;stroke-miterlimit:4;stroke-dasharray:none;stroke-dashoffset:0;stroke-opacity:1" />
        <path
           inkscape:connector-curvature="0"
           id="rect5235"
           d="m 120.01084,16.258558 h 11.71048 c 0.9282,0 1.67545,0.74725 1.67545,1.675448 v 12.46644 c 0,0.928199 -0.74725,1.675448 -1.67545,1.675448 h -11.71048 c -0.9282,0 -1.67545,-0.747249 -1.67545,-1.675448 v -12.46644 c 0,-0.928198 0.74725,-1.675448 1.67545,-1.675448 z"
           style="fill:#4e4e4e;fill-opacity:1;stroke:none;stroke-width:0.16766435;stroke-linejoin:round;stroke-miterlimit:4;stroke-dasharray:none;stroke-dashoffset:0;stroke-opacity:1" />
        <path
           inkscape:connector-curvature="0"
           id="rect5237"
           d="m 120.01084,17.058664 h 11.71048 c 0.9282,0 1.67545,0.74725 1.67545,1.675448 v 12.46644 c 0,0.928199 -0.74725,1.675448 -1.67545,1.675448 h -11.71048 c -0.9282,0 -1.67545,-0.747249 -1.67545,-1.675448 v -12.46644 c 0,-0.928198 0.74725,-1.675448 1.67545,-1.675448 z"
           style="fill:#373737;fill-opacity:1;stroke:none;stroke-width:0.16766435;stroke-linejoin:round;stroke-miterlimit:4;stroke-dasharray:none;stroke-dashoffset:0;stroke-opacity:1" />
      </g>
      <g
         style="stroke:none;stroke-opacity:1"
         transform="matrix(1.0752871,0,0,1.0982185,10.338817,71.122108)"
         id="g5247">
        <path
           inkscape:connector-curvature="0"
           id="rect5241"
           d="m 120.01084,17.758663 h 11.71048 c 0.9282,0 1.67545,0.74725 1.67545,1.675448 v 12.46644 c 0,0.928198 -0.74725,1.675448 -1.67545,1.675448 h -11.71048 c -0.9282,0 -1.67545,-0.74725 -1.67545,-1.675448 v -12.46644 c 0,-0.928198 0.74725,-1.675448 1.67545,-1.675448 z"
           style="fill:#111111;fill-opacity:1;stroke:none;stroke-width:0.16766435;stroke-linejoin:round;stroke-miterlimit:4;stroke-dasharray:none;stroke-dashoffset:0;stroke-opacity:1" />
        <path
           inkscape:connector-curvature="0"
           id="rect5243"
           d="m 120.01084,16.258558 h 11.71048 c 0.9282,0 1.67545,0.74725 1.67545,1.675448 v 12.46644 c 0,0.928199 -0.74725,1.675448 -1.67545,1.675448 h -11.71048 c -0.9282,0 -1.67545,-0.747249 -1.67545,-1.675448 v -12.46644 c 0,-0.928198 0.74725,-1.675448 1.67545,-1.675448 z"
           style="fill:#4e4e4e;fill-opacity:1;stroke:none;stroke-width:0.16766435;stroke-linejoin:round;stroke-miterlimit:4;stroke-dasharray:none;stroke-dashoffset:0;stroke-opacity:1" />
        <path
           inkscape:connector-curvature="0"
           id="rect5245"
           d="m 120.01084,17.058664 h 11.71048 c 0.9282,0 1.67545,0.74725 1.67545,1.675448 v 12.46644 c 0,0.928199 -0.74725,1.675448 -1.67545,1.675448 h -11.71048 c -0.9282,0 -1.67545,-0.747249 -1.67545,-1.675448 v -12.46644 c 0,-0.928198 0.74725,-1.675448 1.67545,-1.675448 z"
           style="fill:#373737;fill-opacity:1;stroke:none;stroke-width:0.16766435;stroke-linejoin:round;stroke-miterlimit:4;stroke-dasharray:none;stroke-dashoffset:0;stroke-opacity:1" />
      </g>
      <g
         style="stroke:none;stroke-opacity:1"
         id="g5255"
         transform="matrix(1.0752871,0,0,1.0982185,30.182567,71.122108)">
        <path
           inkscape:connector-curvature="0"
           id="rect5249"
           d="m 120.01084,17.758663 h 11.71048 c 0.9282,0 1.67545,0.74725 1.67545,1.675448 v 12.46644 c 0,0.928198 -0.74725,1.675448 -1.67545,1.675448 h -11.71048 c -0.9282,0 -1.67545,-0.74725 -1.67545,-1.675448 v -12.46644 c 0,-0.928198 0.74725,-1.675448 1.67545,-1.675448 z"
           style="fill:#111111;fill-opacity:1;stroke:none;stroke-width:0.16766435;stroke-linejoin:round;stroke-miterlimit:4;stroke-dasharray:none;stroke-dashoffset:0;stroke-opacity:1" />
        <path
           inkscape:connector-curvature="0"
           id="rect5251"
           d="m 120.01084,16.258558 h 11.71048 c 0.9282,0 1.67545,0.74725 1.67545,1.675448 v 12.46644 c 0,0.928199 -0.74725,1.675448 -1.67545,1.675448 h -11.71048 c -0.9282,0 -1.67545,-0.747249 -1.67545,-1.675448 v -12.46644 c 0,-0.928198 0.74725,-1.675448 1.67545,-1.675448 z"
           style="fill:#4e4e4e;fill-opacity:1;stroke:none;stroke-width:0.16766435;stroke-linejoin:round;stroke-miterlimit:4;stroke-dasharray:none;stroke-dashoffset:0;stroke-opacity:1" />
        <path
           inkscape:connector-curvature="0"
           id="rect5253"
           d="m 120.01084,17.058664 h 11.71048 c 0.9282,0 1.67545,0.74725 1.67545,1.675448 v 12.46644 c 0,0.928199 -0.74725,1.675448 -1.67545,1.675448 h -11.71048 c -0.9282,0 -1.67545,-0.747249 -1.67545,-1.675448 v -12.46644 c 0,-0.928198 0.74725,-1.675448 1.67545,-1.675448 z"
           style="fill:#373737;fill-opacity:1;stroke:none;stroke-width:0.16766435;stroke-linejoin:round;stroke-miterlimit:4;stroke-dasharray:none;stroke-dashoffset:0;stroke-opacity:1" />
      </g>
      <g
         style="stroke:none;stroke-opacity:1"
         transform="matrix(1.0752871,0,0,1.0982185,50.026317,71.122108)"
         id="g5263">
        <path
           inkscape:connector-curvature="0"
           id="rect5257"
           d="m 120.01084,17.758663 h 11.71048 c 0.9282,0 1.67545,0.74725 1.67545,1.675448 v 12.46644 c 0,0.928198 -0.74725,1.675448 -1.67545,1.675448 h -11.71048 c -0.9282,0 -1.67545,-0.74725 -1.67545,-1.675448 v -12.46644 c 0,-0.928198 0.74725,-1.675448 1.67545,-1.675448 z"
           style="fill:#111111;fill-opacity:1;stroke:none;stroke-width:0.16766435;stroke-linejoin:round;stroke-miterlimit:4;stroke-dasharray:none;stroke-dashoffset:0;stroke-opacity:1" />
        <path
           inkscape:connector-curvature="0"
           id="rect5259"
           d="m 120.01084,16.258558 h 11.71048 c 0.9282,0 1.67545,0.74725 1.67545,1.675448 v 12.46644 c 0,0.928199 -0.74725,1.675448 -1.67545,1.675448 h -11.71048 c -0.9282,0 -1.67545,-0.747249 -1.67545,-1.675448 v -12.46644 c 0,-0.928198 0.74725,-1.675448 1.67545,-1.675448 z"
           style="fill:#4e4e4e;fill-opacity:1;stroke:none;stroke-width:0.16766435;stroke-linejoin:round;stroke-miterlimit:4;stroke-dasharray:none;stroke-dashoffset:0;stroke-opacity:1" />
        <path
           inkscape:connector-curvature="0"
           id="rect5261"
           d="m 120.01084,17.058664 h 11.71048 c 0.9282,0 1.67545,0.74725 1.67545,1.675448 v 12.46644 c 0,0.928199 -0.74725,1.675448 -1.67545,1.675448 h -11.71048 c -0.9282,0 -1.67545,-0.747249 -1.67545,-1.675448 v -12.46644 c 0,-0.928198 0.74725,-1.675448 1.67545,-1.675448 z"
           style="fill:#373737;fill-opacity:1;stroke:none;stroke-width:0.16766435;stroke-linejoin:round;stroke-miterlimit:4;stroke-dasharray:none;stroke-dashoffset:0;stroke-opacity:1" />
      </g>
      <g
         style="stroke:none;stroke-opacity:1"
         transform="matrix(1.0752871,0,0,1.0982185,-69.036183,93.611691)"
         id="g5271">
        <path
           inkscape:connector-curvature="0"
           id="rect5265"
           d="m 120.01084,17.758663 h 11.71048 c 0.9282,0 1.67545,0.74725 1.67545,1.675448 v 12.46644 c 0,0.928198 -0.74725,1.675448 -1.67545,1.675448 h -11.71048 c -0.9282,0 -1.67545,-0.74725 -1.67545,-1.675448 v -12.46644 c 0,-0.928198 0.74725,-1.675448 1.67545,-1.675448 z"
           style="fill:#111111;fill-opacity:1;stroke:none;stroke-width:0.16766435;stroke-linejoin:round;stroke-miterlimit:4;stroke-dasharray:none;stroke-dashoffset:0;stroke-opacity:1" />
        <path
           inkscape:connector-curvature="0"
           id="rect5267"
           d="m 120.01084,16.258558 h 11.71048 c 0.9282,0 1.67545,0.74725 1.67545,1.675448 v 12.46644 c 0,0.928199 -0.74725,1.675448 -1.67545,1.675448 h -11.71048 c -0.9282,0 -1.67545,-0.747249 -1.67545,-1.675448 v -12.46644 c 0,-0.928198 0.74725,-1.675448 1.67545,-1.675448 z"
           style="fill:#4e4e4e;fill-opacity:1;stroke:none;stroke-width:0.16766435;stroke-linejoin:round;stroke-miterlimit:4;stroke-dasharray:none;stroke-dashoffset:0;stroke-opacity:1" />
        <path
           inkscape:connector-curvature="0"
           id="rect5269"
           d="m 120.01084,17.058664 h 11.71048 c 0.9282,0 1.67545,0.74725 1.67545,1.675448 v 12.46644 c 0,0.928199 -0.74725,1.675448 -1.67545,1.675448 h -11.71048 c -0.9282,0 -1.67545,-0.747249 -1.67545,-1.675448 v -12.46644 c 0,-0.928198 0.74725,-1.675448 1.67545,-1.675448 z"
           style="fill:#373737;fill-opacity:1;stroke:none;stroke-width:0.16766435;stroke-linejoin:round;stroke-miterlimit:4;stroke-dasharray:none;stroke-dashoffset:0;stroke-opacity:1" />
      </g>
      <g
         style="stroke:none;stroke-opacity:1"
         id="g5279"
         transform="matrix(1.0752871,0,0,1.0982185,-49.192433,93.611691)">
        <path
           inkscape:connector-curvature="0"
           id="rect5273"
           d="m 120.01084,17.758663 h 11.71048 c 0.9282,0 1.67545,0.74725 1.67545,1.675448 v 12.46644 c 0,0.928198 -0.74725,1.675448 -1.67545,1.675448 h -11.71048 c -0.9282,0 -1.67545,-0.74725 -1.67545,-1.675448 v -12.46644 c 0,-0.928198 0.74725,-1.675448 1.67545,-1.675448 z"
           style="fill:#111111;fill-opacity:1;stroke:none;stroke-width:0.16766435;stroke-linejoin:round;stroke-miterlimit:4;stroke-dasharray:none;stroke-dashoffset:0;stroke-opacity:1" />
        <path
           inkscape:connector-curvature="0"
           id="rect5275"
           d="m 120.01084,16.258558 h 11.71048 c 0.9282,0 1.67545,0.74725 1.67545,1.675448 v 12.46644 c 0,0.928199 -0.74725,1.675448 -1.67545,1.675448 h -11.71048 c -0.9282,0 -1.67545,-0.747249 -1.67545,-1.675448 v -12.46644 c 0,-0.928198 0.74725,-1.675448 1.67545,-1.675448 z"
           style="fill:#4e4e4e;fill-opacity:1;stroke:none;stroke-width:0.16766435;stroke-linejoin:round;stroke-miterlimit:4;stroke-dasharray:none;stroke-dashoffset:0;stroke-opacity:1" />
        <path
           inkscape:connector-curvature="0"
           id="rect5277"
           d="m 120.01084,17.058664 h 11.71048 c 0.9282,0 1.67545,0.74725 1.67545,1.675448 v 12.46644 c 0,0.928199 -0.74725,1.675448 -1.67545,1.675448 h -11.71048 c -0.9282,0 -1.67545,-0.747249 -1.67545,-1.675448 v -12.46644 c 0,-0.928198 0.74725,-1.675448 1.67545,-1.675448 z"
           style="fill:#373737;fill-opacity:1;stroke:none;stroke-width:0.16766435;stroke-linejoin:round;stroke-miterlimit:4;stroke-dasharray:none;stroke-dashoffset:0;stroke-opacity:1" />
      </g>
      <g
         style="stroke:none;stroke-opacity:1"
         transform="matrix(1.0752871,0,0,1.0982185,-29.348684,93.611691)"
         id="g5287">
        <path
           inkscape:connector-curvature="0"
           id="rect5281"
           d="m 120.01084,17.758663 h 11.71048 c 0.9282,0 1.67545,0.74725 1.67545,1.675448 v 12.46644 c 0,0.928198 -0.74725,1.675448 -1.67545,1.675448 h -11.71048 c -0.9282,0 -1.67545,-0.74725 -1.67545,-1.675448 v -12.46644 c 0,-0.928198 0.74725,-1.675448 1.67545,-1.675448 z"
           style="fill:#111111;fill-opacity:1;stroke:none;stroke-width:0.16766435;stroke-linejoin:round;stroke-miterlimit:4;stroke-dasharray:none;stroke-dashoffset:0;stroke-opacity:1" />
        <path
           inkscape:connector-curvature="0"
           id="rect5283"
           d="m 120.01084,16.258558 h 11.71048 c 0.9282,0 1.67545,0.74725 1.67545,1.675448 v 12.46644 c 0,0.928199 -0.74725,1.675448 -1.67545,1.675448 h -11.71048 c -0.9282,0 -1.67545,-0.747249 -1.67545,-1.675448 v -12.46644 c 0,-0.928198 0.74725,-1.675448 1.67545,-1.675448 z"
           style="fill:#4e4e4e;fill-opacity:1;stroke:none;stroke-width:0.16766435;stroke-linejoin:round;stroke-miterlimit:4;stroke-dasharray:none;stroke-dashoffset:0;stroke-opacity:1" />
        <path
           inkscape:connector-curvature="0"
           id="rect5285"
           d="m 120.01084,17.058664 h 11.71048 c 0.9282,0 1.67545,0.74725 1.67545,1.675448 v 12.46644 c 0,0.928199 -0.74725,1.675448 -1.67545,1.675448 h -11.71048 c -0.9282,0 -1.67545,-0.747249 -1.67545,-1.675448 v -12.46644 c 0,-0.928198 0.74725,-1.675448 1.67545,-1.675448 z"
           style="fill:#373737;fill-opacity:1;stroke:none;stroke-width:0.16766435;stroke-linejoin:round;stroke-miterlimit:4;stroke-dasharray:none;stroke-dashoffset:0;stroke-opacity:1" />
      </g>
      <g
         style="stroke:none;stroke-opacity:1"
         id="g5295"
         transform="matrix(1.0752871,0,0,1.0982185,-9.5049334,93.611691)">
        <path
           inkscape:connector-curvature="0"
           id="rect5289"
           d="m 120.01084,17.758663 h 11.71048 c 0.9282,0 1.67545,0.74725 1.67545,1.675448 v 12.46644 c 0,0.928198 -0.74725,1.675448 -1.67545,1.675448 h -11.71048 c -0.9282,0 -1.67545,-0.74725 -1.67545,-1.675448 v -12.46644 c 0,-0.928198 0.74725,-1.675448 1.67545,-1.675448 z"
           style="fill:#111111;fill-opacity:1;stroke:none;stroke-width:0.16766435;stroke-linejoin:round;stroke-miterlimit:4;stroke-dasharray:none;stroke-dashoffset:0;stroke-opacity:1" />
        <path
           inkscape:connector-curvature="0"
           id="rect5291"
           d="m 120.01084,16.258558 h 11.71048 c 0.9282,0 1.67545,0.74725 1.67545,1.675448 v 12.46644 c 0,0.928199 -0.74725,1.675448 -1.67545,1.675448 h -11.71048 c -0.9282,0 -1.67545,-0.747249 -1.67545,-1.675448 v -12.46644 c 0,-0.928198 0.74725,-1.675448 1.67545,-1.675448 z"
           style="fill:#4e4e4e;fill-opacity:1;stroke:none;stroke-width:0.16766435;stroke-linejoin:round;stroke-miterlimit:4;stroke-dasharray:none;stroke-dashoffset:0;stroke-opacity:1" />
        <path
           inkscape:connector-curvature="0"
           id="rect5293"
           d="m 120.01084,17.058664 h 11.71048 c 0.9282,0 1.67545,0.74725 1.67545,1.675448 v 12.46644 c 0,0.928199 -0.74725,1.675448 -1.67545,1.675448 h -11.71048 c -0.9282,0 -1.67545,-0.747249 -1.67545,-1.675448 v -12.46644 c 0,-0.928198 0.74725,-1.675448 1.67545,-1.675448 z"
           style="fill:#373737;fill-opacity:1;stroke:none;stroke-width:0.16766435;stroke-linejoin:round;stroke-miterlimit:4;stroke-dasharray:none;stroke-dashoffset:0;stroke-opacity:1" />
      </g>
      <g
         style="stroke:none;stroke-opacity:1"
         id="g5303"
         transform="matrix(1.0752871,0,0,1.0982185,10.338817,93.611691)">
        <path
           inkscape:connector-curvature="0"
           id="rect5297"
           d="m 120.01084,17.758663 h 11.71048 c 0.9282,0 1.67545,0.74725 1.67545,1.675448 v 12.46644 c 0,0.928198 -0.74725,1.675448 -1.67545,1.675448 h -11.71048 c -0.9282,0 -1.67545,-0.74725 -1.67545,-1.675448 v -12.46644 c 0,-0.928198 0.74725,-1.675448 1.67545,-1.675448 z"
           style="fill:#111111;fill-opacity:1;stroke:none;stroke-width:0.16766435;stroke-linejoin:round;stroke-miterlimit:4;stroke-dasharray:none;stroke-dashoffset:0;stroke-opacity:1" />
        <path
           inkscape:connector-curvature="0"
           id="rect5299"
           d="m 120.01084,16.258558 h 11.71048 c 0.9282,0 1.67545,0.74725 1.67545,1.675448 v 12.46644 c 0,0.928199 -0.74725,1.675448 -1.67545,1.675448 h -11.71048 c -0.9282,0 -1.67545,-0.747249 -1.67545,-1.675448 v -12.46644 c 0,-0.928198 0.74725,-1.675448 1.67545,-1.675448 z"
           style="fill:#4e4e4e;fill-opacity:1;stroke:none;stroke-width:0.16766435;stroke-linejoin:round;stroke-miterlimit:4;stroke-dasharray:none;stroke-dashoffset:0;stroke-opacity:1" />
        <path
           inkscape:connector-curvature="0"
           id="rect5301"
           d="m 120.01084,17.058664 h 11.71048 c 0.9282,0 1.67545,0.74725 1.67545,1.675448 v 12.46644 c 0,0.928199 -0.74725,1.675448 -1.67545,1.675448 h -11.71048 c -0.9282,0 -1.67545,-0.747249 -1.67545,-1.675448 v -12.46644 c 0,-0.928198 0.74725,-1.675448 1.67545,-1.675448 z"
           style="fill:#373737;fill-opacity:1;stroke:none;stroke-width:0.16766435;stroke-linejoin:round;stroke-miterlimit:4;stroke-dasharray:none;stroke-dashoffset:0;stroke-opacity:1" />
      </g>
      <g
         style="stroke:none;stroke-opacity:1"
         transform="matrix(1.0752871,0,0,1.0982185,30.182567,93.611691)"
         id="g5311">
        <path
           inkscape:connector-curvature="0"
           id="rect5305"
           d="m 120.01084,17.758663 h 11.71048 c 0.9282,0 1.67545,0.74725 1.67545,1.675448 v 12.46644 c 0,0.928198 -0.74725,1.675448 -1.67545,1.675448 h -11.71048 c -0.9282,0 -1.67545,-0.74725 -1.67545,-1.675448 v -12.46644 c 0,-0.928198 0.74725,-1.675448 1.67545,-1.675448 z"
           style="fill:#111111;fill-opacity:1;stroke:none;stroke-width:0.16766435;stroke-linejoin:round;stroke-miterlimit:4;stroke-dasharray:none;stroke-dashoffset:0;stroke-opacity:1" />
        <path
           inkscape:connector-curvature="0"
           id="rect5307"
           d="m 120.01084,16.258558 h 11.71048 c 0.9282,0 1.67545,0.74725 1.67545,1.675448 v 12.46644 c 0,0.928199 -0.74725,1.675448 -1.67545,1.675448 h -11.71048 c -0.9282,0 -1.67545,-0.747249 -1.67545,-1.675448 v -12.46644 c 0,-0.928198 0.74725,-1.675448 1.67545,-1.675448 z"
           style="fill:#4e4e4e;fill-opacity:1;stroke:none;stroke-width:0.16766435;stroke-linejoin:round;stroke-miterlimit:4;stroke-dasharray:none;stroke-dashoffset:0;stroke-opacity:1" />
        <path
           inkscape:connector-curvature="0"
           id="rect5309"
           d="m 120.01084,17.058664 h 11.71048 c 0.9282,0 1.67545,0.74725 1.67545,1.675448 v 12.46644 c 0,0.928199 -0.74725,1.675448 -1.67545,1.675448 h -11.71048 c -0.9282,0 -1.67545,-0.747249 -1.67545,-1.675448 v -12.46644 c 0,-0.928198 0.74725,-1.675448 1.67545,-1.675448 z"
           style="fill:#373737;fill-opacity:1;stroke:none;stroke-width:0.16766435;stroke-linejoin:round;stroke-miterlimit:4;stroke-dasharray:none;stroke-dashoffset:0;stroke-opacity:1" />
      </g>
    </g>
    <g
       aria-label="QWERTYUIOP
ASDFGHJKL
ZXCVBNM"
       style="font-style:normal;font-weight:normal;font-size:10.58333302px;line-height:1.25;font-family:sans-serif;text-align:start;letter-spacing:0px;word-spacing:0px;text-anchor:start;fill:#ffffff;fill-opacity:1;stroke:none;stroke-width:0.26458332;stroke-opacity:1"
       id="text5592">
      <path
         d="m 12.222529,226.5058 q 1.041797,0.73173 2.350244,1.03559 l -0.644922,1.0666 q -1.593701,-0.62632 -2.809131,-1.81694 -0.310058,0.0186 -0.47749,0.0186 -1.4882811,0 -2.4122557,-1.15342 -0.9239746,-1.15341 -0.9239746,-3.01376 0,-1.90997 0.9301758,-3.03858 0.9363769,-1.13481 2.5114745,-1.13481 1.575098,0 2.505273,1.13481 0.936377,1.12861 0.936377,3.03858 0,1.37666 -0.508496,2.37504 -0.502295,0.99219 -1.457275,1.48829 z m -3.6152832,-3.86954 q 0,1.5627 0.5519043,2.41226 0.5581055,0.84336 1.5874999,0.84336 1.029395,0 1.5875,-0.84336 0.558106,-0.84956 0.558106,-2.41226 0,-1.55649 -0.558106,-2.39985 -0.558105,-0.84956 -1.5875,-0.84956 -1.0293944,0 -1.5874999,0.84956 -0.5519043,0.84336 -0.5519043,2.39985 z"
         style="font-style:normal;font-variant:normal;font-weight:normal;font-stretch:normal;font-size:12.69999981px;line-height:1.79999995;font-family:'Lucida Console';-inkscape-font-specification:'Lucida Console';text-align:center;letter-spacing:12.17083359px;text-anchor:middle;fill:#ffffff;fill-opacity:1;stroke:none;stroke-width:0.26458332;stroke-opacity:1"
         id="path5332" />
      <path
         d="m 28.039651,226.61742 -1.184424,-7.95611 h 1.041797 l 0.967383,6.61045 h 0.0186 l 1.147216,-4.92993 h 1.178223 l 1.128613,4.85552 h 0.0124 l 1.023193,-6.53604 h 0.930176 l -1.308447,7.95611 h -1.327051 l -1.097608,-4.66949 h -0.0124 l -1.103809,4.66949 z"
         style="font-style:normal;font-variant:normal;font-weight:normal;font-stretch:normal;font-size:12.69999981px;line-height:1.79999995;font-family:'Lucida Console';-inkscape-font-specification:'Lucida Console';text-align:center;letter-spacing:12.17083359px;text-anchor:middle;fill:#ffffff;fill-opacity:1;stroke:none;stroke-width:0.26458332;stroke-opacity:1"
         id="path5334" />
      <path
         d="m 47.930943,226.61742 v -7.95611 h 5.376416 v 0.91778 h -4.154785 v 2.41225 h 3.522266 v 0.91778 h -3.522266 v 2.79052 h 4.440039 v 0.91778 z"
         style="font-style:normal;font-variant:normal;font-weight:normal;font-stretch:normal;font-size:12.69999981px;line-height:1.79999995;font-family:'Lucida Console';-inkscape-font-specification:'Lucida Console';text-align:center;letter-spacing:12.17083359px;text-anchor:middle;fill:#ffffff;fill-opacity:1;stroke:none;stroke-width:0.26458332;stroke-opacity:1"
         id="path5336" />
      <path
         d="m 67.56799,226.61742 v -7.95611 h 2.22622 q 1.389063,0 1.928565,0.22945 1.153418,0.47749 1.153418,1.68672 0,0.83095 -0.415479,1.38906 -0.415478,0.5519 -1.389062,1.02939 l 2.815332,3.62149 h -1.48208 l -2.511475,-3.31143 H 68.78962 v 3.31143 z m 1.22163,-4.2354 h 0.644922 q 0.985987,0 1.562696,-0.43409 0.576708,-0.43408 0.576708,-1.17202 0,-0.68833 -0.434082,-0.94258 -0.434082,-0.25424 -1.599902,-0.25424 H 68.78962 Z"
         style="font-style:normal;font-variant:normal;font-weight:normal;font-stretch:normal;font-size:12.69999981px;line-height:1.79999995;font-family:'Lucida Console';-inkscape-font-specification:'Lucida Console';text-align:center;letter-spacing:12.17083359px;text-anchor:middle;fill:#ffffff;fill-opacity:1;stroke:none;stroke-width:0.26458332;stroke-opacity:1"
         id="path5338" />
      <path
         d="m 89.474661,226.61742 v -7.03833 h -3.057178 v -0.91778 h 7.342187 v 0.91778 h -3.057177 v 7.03833 z"
         style="font-style:normal;font-variant:normal;font-weight:normal;font-stretch:normal;font-size:12.69999981px;line-height:1.79999995;font-family:'Lucida Console';-inkscape-font-specification:'Lucida Console';text-align:center;letter-spacing:12.17083359px;text-anchor:middle;fill:#ffffff;fill-opacity:1;stroke:none;stroke-width:0.26458332;stroke-opacity:1"
         id="path5340" />
      <path
         d="m 109.31635,226.61742 v -3.25562 l -3.01997,-4.70049 h 1.40766 l 2.31304,3.6711 2.53008,-3.6711 h 1.15962 l -3.1688,4.70049 v 3.25562 z"
         style="font-style:normal;font-variant:normal;font-weight:normal;font-stretch:normal;font-size:12.69999981px;line-height:1.79999995;font-family:'Lucida Console';-inkscape-font-specification:'Lucida Console';text-align:center;letter-spacing:12.17083359px;text-anchor:middle;fill:#ffffff;fill-opacity:1;stroke:none;stroke-width:0.26458332;stroke-opacity:1"
         id="path5342" />
      <path
         d="m 126.8822,218.66131 h 1.22163 v 4.83072 q 0,1.26503 0.39688,1.83554 0.40307,0.56431 1.29604,0.56431 0.94258,0 1.35806,-0.56431 0.41548,-0.57051 0.41548,-1.86655 v -4.79971 h 1.0666 v 4.61988 q 0,1.49448 -0.35347,2.1456 -0.75034,1.38286 -2.47427,1.38286 -1.49448,0 -2.21382,-0.81855 -0.71313,-0.81856 -0.71313,-2.51768 z"
         style="font-style:normal;font-variant:normal;font-weight:normal;font-stretch:normal;font-size:12.69999981px;line-height:1.79999995;font-family:'Lucida Console';-inkscape-font-specification:'Lucida Console';text-align:center;letter-spacing:12.17083359px;text-anchor:middle;fill:#ffffff;fill-opacity:1;stroke:none;stroke-width:0.26458332;stroke-opacity:1"
         id="path5344" />
      <path
         d="m 146.8417,226.61742 v -0.91778 h 2.13941 v -6.12055 h -2.13941 v -0.91778 h 5.50664 v 0.91778 h -2.1394 v 6.12055 h 2.1394 v 0.91778 z"
         style="font-style:normal;font-variant:normal;font-weight:normal;font-stretch:normal;font-size:12.69999981px;line-height:1.79999995;font-family:'Lucida Console';-inkscape-font-specification:'Lucida Console';text-align:center;letter-spacing:12.17083359px;text-anchor:middle;fill:#ffffff;fill-opacity:1;stroke:none;stroke-width:0.26458332;stroke-opacity:1"
         id="path5346" />
      <path
         d="m 165.98885,222.63626 q 0,-1.90376 0.93018,-3.03237 0.93638,-1.13481 2.51147,-1.13481 1.5751,0 2.50528,1.13481 0.93637,1.12861 0.93637,3.03237 0,1.90997 -0.93637,3.04478 -0.93018,1.12861 -2.50528,1.12861 -1.57509,0 -2.51147,-1.12861 -0.93018,-1.13481 -0.93018,-3.04478 z m 1.30225,0 q 0,1.5627 0.5519,2.41226 0.55811,0.84336 1.5875,0.84336 1.0294,0 1.5875,-0.84336 0.55811,-0.84956 0.55811,-2.41226 0,-1.55649 -0.55811,-2.39985 -0.5581,-0.84956 -1.5875,-0.84956 -1.02939,0 -1.5875,0.84956 -0.5519,0.84336 -0.5519,2.39985 z"
         style="font-style:normal;font-variant:normal;font-weight:normal;font-stretch:normal;font-size:12.69999981px;line-height:1.79999995;font-family:'Lucida Console';-inkscape-font-specification:'Lucida Console';text-align:center;letter-spacing:12.17083359px;text-anchor:middle;fill:#ffffff;fill-opacity:1;stroke:none;stroke-width:0.26458332;stroke-opacity:1"
         id="path5348" />
      <path
         d="m 186.85373,226.61742 v -7.95611 h 2.58589 q 1.38286,0 1.97197,0.24805 1.20303,0.5209 1.20303,2.00918 0,1.25264 -0.97359,1.96577 -0.96738,0.71314 -2.6727,0.71314 h -0.89297 v 3.01997 z m 1.22163,-3.93775 h 0.76274 q 2.48047,0 2.48047,-1.73633 0,-0.73173 -0.47129,-1.04799 -0.46509,-0.31626 -1.55649,-0.31626 h -1.21543 z"
         style="font-style:normal;font-variant:normal;font-weight:normal;font-stretch:normal;font-size:12.69999981px;line-height:1.79999995;font-family:'Lucida Console';-inkscape-font-specification:'Lucida Console';text-align:center;letter-spacing:12.17083359px;text-anchor:middle;fill:#ffffff;fill-opacity:1;stroke:none;stroke-width:0.26458332;stroke-opacity:1"
         id="path5350" />
      <path
         d="m 16.912682,249.47742 3.137793,-7.95611 h 1.221631 l 3.137793,7.95611 h -1.296045 l -0.750342,-1.99058 h -3.633887 l -0.762744,1.99058 z m 2.182813,-2.90835 h 2.902148 l -1.457275,-3.80132 z"
         style="font-style:normal;font-variant:normal;font-weight:normal;font-stretch:normal;font-size:12.69999981px;line-height:1.79999995;font-family:'Lucida Console';-inkscape-font-specification:'Lucida Console';text-align:center;letter-spacing:12.17083359px;text-anchor:middle;fill:#ffffff;fill-opacity:1;stroke:none;stroke-width:0.26458332;stroke-opacity:1"
         id="path5352" />
      <path
         d="m 42.936933,241.70735 v 1.0604 q -1.345654,-0.5209 -2.393652,-0.5209 -1.655713,0 -1.655713,1.11621 0,0.45269 0.310059,0.73174 0.310058,0.27285 1.147216,0.5643 l 0.781348,0.27286 0.744141,0.25424 q 1.730127,0.60772 1.730127,2.05879 0,1.10381 -0.886768,1.76734 -0.880566,0.65732 -2.362646,0.65732 -1.029395,0 -2.660303,-0.44028 v -1.20923 q 1.624707,0.73174 2.69751,0.73174 0.905371,0 1.444873,-0.35347 0.539502,-0.35967 0.539502,-0.96118 0,-0.45889 -0.322461,-0.72554 -0.31626,-0.26665 -1.314649,-0.63252 l -0.818554,-0.29765 q -1.221631,-0.45269 -1.699122,-0.93018 -0.471289,-0.47749 -0.471289,-1.27124 0,-1.0728 0.725537,-1.66191 0.731739,-0.58911 2.052588,-0.58911 1.072803,0 2.412256,0.37827 z"
         style="font-style:normal;font-variant:normal;font-weight:normal;font-stretch:normal;font-size:12.69999981px;line-height:1.79999995;font-family:'Lucida Console';-inkscape-font-specification:'Lucida Console';text-align:center;letter-spacing:12.17083359px;text-anchor:middle;fill:#ffffff;fill-opacity:1;stroke:none;stroke-width:0.26458332;stroke-opacity:1"
         id="path5354" />
      <path
         d="m 57.315384,249.47742 v -7.95611 h 2.399853 q 3.96875,0 3.96875,3.81992 0,1.76734 -0.861963,2.85874 -0.539502,0.68833 -1.333252,0.98599 -0.787549,0.29146 -2.102197,0.29146 z m 1.22163,-0.91778 h 0.613917 q 1.74873,0 2.486669,-0.69453 0.744141,-0.69453 0.744141,-2.33164 0,-1.66191 -0.669727,-2.37505 -0.669726,-0.71933 -2.232421,-0.71933 h -0.942579 z"
         style="font-style:normal;font-variant:normal;font-weight:normal;font-stretch:normal;font-size:12.69999981px;line-height:1.79999995;font-family:'Lucida Console';-inkscape-font-specification:'Lucida Console';text-align:center;letter-spacing:12.17083359px;text-anchor:middle;fill:#ffffff;fill-opacity:1;stroke:none;stroke-width:0.26458332;stroke-opacity:1"
         id="path5356" />
      <path
         d="m 77.876404,249.47742 v -7.95611 h 5.66167 v 0.91778 H 79.098035 V 245.18 h 3.788916 v 0.91778 h -3.788916 v 3.37964 z"
         style="font-style:normal;font-variant:normal;font-weight:normal;font-stretch:normal;font-size:12.69999981px;line-height:1.79999995;font-family:'Lucida Console';-inkscape-font-specification:'Lucida Console';text-align:center;letter-spacing:12.17083359px;text-anchor:middle;fill:#ffffff;fill-opacity:1;stroke:none;stroke-width:0.26458332;stroke-opacity:1"
         id="path5358" />
      <path
         d="m 103.0821,241.68874 v 1.12242 q -1.22783,-0.56431 -2.29443,-0.56431 -1.234038,0 -2.033989,0.90537 -0.79375,0.90537 -0.79375,2.30684 0,1.40766 0.89917,2.31303 0.89917,0.89917 2.294429,0.89917 0.31626,0 0.80616,-0.0744 v -2.1022 h -1.49449 v -0.91777 h 2.71612 v 3.6959 q -1.24644,0.39687 -2.36265,0.39687 -1.847948,0 -3.007567,-1.14722 -1.153418,-1.14721 -1.153418,-2.98276 0,-1.87895 1.153418,-3.04477 1.153418,-1.16582 3.013767,-1.16582 1.0542,0 2.25723,0.35966 z"
         style="font-style:normal;font-variant:normal;font-weight:normal;font-stretch:normal;font-size:12.69999981px;line-height:1.79999995;font-family:'Lucida Console';-inkscape-font-specification:'Lucida Console';text-align:center;letter-spacing:12.17083359px;text-anchor:middle;fill:#ffffff;fill-opacity:1;stroke:none;stroke-width:0.26458332;stroke-opacity:1"
         id="path5360" />
      <path
         d="m 116.93346,249.47742 v -7.95611 h 1.22163 v 3.47886 h 3.36723 v -3.47886 h 1.22783 v 7.95611 h -1.22783 v -3.55948 h -3.36723 v 3.55948 z"
         style="font-style:normal;font-variant:normal;font-weight:normal;font-stretch:normal;font-size:12.69999981px;line-height:1.79999995;font-family:'Lucida Console';-inkscape-font-specification:'Lucida Console';text-align:center;letter-spacing:12.17083359px;text-anchor:middle;fill:#ffffff;fill-opacity:1;stroke:none;stroke-width:0.26458332;stroke-opacity:1"
         id="path5362" />
      <path
         d="m 137.07279,249.372 v -1.0356 l 0.40928,0.13643 q 0.84956,0.27905 1.34565,0.27905 0.87437,0 1.22164,-0.45269 0.35346,-0.45268 0.35346,-1.5999 v -4.2602 h -2.75332 v -0.91778 h 3.97495 v 4.52686 q 0,1.20923 -0.14262,1.79834 -0.14263,0.58911 -0.54571,1.03559 -0.70693,0.78755 -2.02158,0.78755 -0.71313,0 -1.84175,-0.29765 z"
         style="font-style:normal;font-variant:normal;font-weight:normal;font-stretch:normal;font-size:12.69999981px;line-height:1.79999995;font-family:'Lucida Console';-inkscape-font-specification:'Lucida Console';text-align:center;letter-spacing:12.17083359px;text-anchor:middle;fill:#ffffff;fill-opacity:1;stroke:none;stroke-width:0.26458332;stroke-opacity:1"
         id="path5364" />
      <path
         d="m 156.74084,249.47742 v -7.95611 h 1.22163 v 3.90054 l 3.33003,-3.90054 h 1.23403 l -3.2122,3.75171 3.82612,4.2044 h -1.46348 l -3.7145,-4.05557 v 4.05557 z"
         style="font-style:normal;font-variant:normal;font-weight:normal;font-stretch:normal;font-size:12.69999981px;line-height:1.79999995;font-family:'Lucida Console';-inkscape-font-specification:'Lucida Console';text-align:center;letter-spacing:12.17083359px;text-anchor:middle;fill:#ffffff;fill-opacity:1;stroke:none;stroke-width:0.26458332;stroke-opacity:1"
         id="path5366" />
      <path
         d="m 176.89878,249.47742 v -7.95611 h 1.22163 v 7.03833 h 4.28501 v 0.91778 z"
         style="font-style:normal;font-variant:normal;font-weight:normal;font-stretch:normal;font-size:12.69999981px;line-height:1.79999995;font-family:'Lucida Console';-inkscape-font-specification:'Lucida Console';text-align:center;letter-spacing:12.17083359px;text-anchor:middle;fill:#ffffff;fill-opacity:1;stroke:none;stroke-width:0.26458332;stroke-opacity:1"
         id="path5368" />
      <path
         d="m 37.287666,272.33741 v -0.91777 l 4.991943,-6.12056 h -4.688086 v -0.91777 h 6.070948 v 0.91777 l -4.985743,6.12056 h 5.035352 v 0.91777 z"
         style="font-style:normal;font-variant:normal;font-weight:normal;font-stretch:normal;font-size:12.69999981px;line-height:1.79999995;font-family:'Lucida Console';-inkscape-font-specification:'Lucida Console';text-align:center;letter-spacing:12.17083359px;text-anchor:middle;fill:#ffffff;fill-opacity:1;stroke:none;stroke-width:0.26458332;stroke-opacity:1"
         id="path5370" />
      <path
         d="m 56.577444,272.33741 3.11919,-4.04936 -2.852539,-3.90674 h 1.444873 l 2.151806,2.94556 2.275831,-2.94556 h 1.190625 l -2.889747,3.73311 3.050977,4.22299 h -1.451074 l -2.350244,-3.23701 -2.499073,3.23701 z"
         style="font-style:normal;font-variant:normal;font-weight:normal;font-stretch:normal;font-size:12.69999981px;line-height:1.79999995;font-family:'Lucida Console';-inkscape-font-specification:'Lucida Console';text-align:center;letter-spacing:12.17083359px;text-anchor:middle;fill:#ffffff;fill-opacity:1;stroke:none;stroke-width:0.26458332;stroke-opacity:1"
         id="path5372" />
      <path
         d="m 83.507067,272.08937 q -1.227832,0.44028 -2.313037,0.44028 -1.897559,0 -3.057178,-1.13481 -1.159619,-1.14102 -1.159619,-2.99517 0,-1.87895 1.153418,-3.04477 1.153418,-1.16583 3.013769,-1.16583 1.054199,0 2.257227,0.35967 v 1.12241 q -1.227832,-0.5643 -2.294434,-0.5643 -1.234033,0 -2.033984,0.90537 -0.79375,0.90537 -0.79375,2.30684 0,1.41386 0.89917,2.31303 0.89917,0.89917 2.313037,0.89917 0.855762,0 2.015381,-0.44648 z"
         style="font-style:normal;font-variant:normal;font-weight:normal;font-stretch:normal;font-size:12.69999981px;line-height:1.79999995;font-family:'Lucida Console';-inkscape-font-specification:'Lucida Console';text-align:center;letter-spacing:12.17083359px;text-anchor:middle;fill:#ffffff;fill-opacity:1;stroke:none;stroke-width:0.26458332;stroke-opacity:1"
         id="path5374" />
      <path
         d="m 99.355197,272.33741 -3.088184,-7.9561 h 1.289844 l 2.542483,6.3252 2.59829,-6.3252 h 1.0418 l -3.1564,7.9561 z"
         style="font-style:normal;font-variant:normal;font-weight:normal;font-stretch:normal;font-size:12.69999981px;line-height:1.79999995;font-family:'Lucida Console';-inkscape-font-specification:'Lucida Console';text-align:center;letter-spacing:12.17083359px;text-anchor:middle;fill:#ffffff;fill-opacity:1;stroke:none;stroke-width:0.26458332;stroke-opacity:1"
         id="path5376" />
      <path
         d="m 117.16289,272.33741 v -7.9561 h 2.56729 q 2.79053,0 2.79053,1.84795 0,0.70693 -0.4837,1.22163 -0.47749,0.5085 -1.33945,0.72554 2.21382,0.45268 2.21382,2.1022 0,0.94257 -0.65112,1.47587 -0.42168,0.35347 -0.96119,0.47129 -0.5395,0.11162 -1.73632,0.11162 z m 1.22163,-4.51445 h 0.42788 q 2.46807,0 2.46807,-1.37666 0,-0.67593 -0.47749,-0.91157 -0.47749,-0.23565 -1.84795,-0.23565 h -0.57051 z m 0,3.59668 h 1.10381 q 1.20923,0 1.66192,-0.24805 0.45888,-0.24804 0.45888,-0.91157 0,-0.76894 -0.75034,-1.22163 -0.74414,-0.45268 -2.02778,-0.45268 h -0.44649 z"
         style="font-style:normal;font-variant:normal;font-weight:normal;font-stretch:normal;font-size:12.69999981px;line-height:1.79999995;font-family:'Lucida Console';-inkscape-font-specification:'Lucida Console';text-align:center;letter-spacing:12.17083359px;text-anchor:middle;fill:#ffffff;fill-opacity:1;stroke:none;stroke-width:0.26458332;stroke-opacity:1"
         id="path5378" />
      <path
         d="m 136.76894,272.33741 v -7.9809 h 1.15342 l 3.65249,5.78569 h 0.0124 v -5.76089 h 0.99839 v 7.9561 h -1.12862 l -3.67729,-5.8291 h -0.0186 v 5.8291 z"
         style="font-style:normal;font-variant:normal;font-weight:normal;font-stretch:normal;font-size:12.69999981px;line-height:1.79999995;font-family:'Lucida Console';-inkscape-font-specification:'Lucida Console';text-align:center;letter-spacing:12.17083359px;text-anchor:middle;fill:#ffffff;fill-opacity:1;stroke:none;stroke-width:0.26458332;stroke-opacity:1"
         id="path5380" />
      <path
         d="m 156.26955,272.33741 v -7.9561 h 1.46968 l 1.74873,4.89893 h 0.0124 l 1.71773,-4.89893 h 1.53169 v 7.9561 h -0.99839 v -6.82749 h -0.0124 l -1.79214,5.14698 h -1.0294 l -1.78593,-5.00435 h -0.0124 v 6.68486 z"
         style="font-style:normal;font-variant:normal;font-weight:normal;font-stretch:normal;font-size:12.69999981px;line-height:1.79999995;font-family:'Lucida Console';-inkscape-font-specification:'Lucida Console';text-align:center;letter-spacing:12.17083359px;text-anchor:middle;fill:#ffffff;fill-opacity:1;stroke:none;stroke-width:0.26458332;stroke-opacity:1"
         id="path5382" />
    </g>
  </g>
</svg>
